<mxfile host="65bd71144e">
    <diagram id="yW_j6QJXCtgAMqRclSKO" name="Page-1">
        <mxGraphModel dx="1271" dy="723" grid="1" gridSize="10" guides="1" tooltips="1" connect="1" arrows="1" fold="1" page="1" pageScale="1" pageWidth="1169" pageHeight="827" math="0" shadow="0">
            <root>
                <mxCell id="0"/>
                <mxCell id="1" parent="0"/>
                <mxCell id="16" value="" style="rounded=0;whiteSpace=wrap;html=1;rotation=0;fontSize=18;horizontal=0;verticalAlign=top;" vertex="1" parent="1">
                    <mxGeometry x="390" y="110" width="240" height="290" as="geometry"/>
                </mxCell>
                <mxCell id="9" value="" style="rounded=0;whiteSpace=wrap;html=1;" vertex="1" parent="1">
                    <mxGeometry x="657" y="129" width="170" height="241" as="geometry"/>
                </mxCell>
                <mxCell id="12" style="edgeStyle=none;html=1;exitX=1;exitY=0.5;exitDx=0;exitDy=0;entryX=0.003;entryY=0.094;entryDx=0;entryDy=0;entryPerimeter=0;" edge="1" parent="1" source="10">
                    <mxGeometry relative="1" as="geometry">
                        <mxPoint x="420.1500000000001" y="169.70600000000002" as="targetPoint"/>
                    </mxGeometry>
                </mxCell>
                <mxCell id="10" value="&amp;nbsp; &amp;nbsp; &amp;nbsp; Trestle AgileAuthoring&lt;br&gt;&amp;nbsp; &amp;nbsp; &amp;nbsp; /GRC* tools/CSPM**" style="rounded=0;whiteSpace=wrap;html=1;fillColor=none;strokeColor=#0e8088;align=left;" vertex="1" parent="1">
                    <mxGeometry x="120" y="145" width="146" height="49" as="geometry"/>
                </mxCell>
                <mxCell id="11" value="Compliance&lt;br&gt;as Code" style="shape=note;whiteSpace=wrap;html=1;backgroundOutline=1;darkOpacity=0.05;size=12;fillColor=#b0e3e6;strokeColor=#0e8088;" vertex="1" parent="1">
                    <mxGeometry x="286" y="151" width="90" height="40" as="geometry"/>
                </mxCell>
                <mxCell id="17" value="Policy engine&lt;br style=&quot;border-color: var(--border-color);&quot;&gt;(e.g. Kyverno,&lt;br&gt;OPA Gatekeeper)" style="rounded=0;whiteSpace=wrap;html=1;" vertex="1" parent="1">
                    <mxGeometry x="672" y="160" width="135" height="50" as="geometry"/>
                </mxCell>
                <mxCell id="18" value="Policy engine&lt;br style=&quot;border-color: var(--border-color);&quot;&gt;(e.g. Auditree, Ansible)" style="rounded=0;whiteSpace=wrap;html=1;" vertex="1" parent="1">
                    <mxGeometry x="672" y="240" width="135" height="50" as="geometry"/>
                </mxCell>
                <mxCell id="20" value="..." style="text;html=1;strokeColor=none;fillColor=none;align=center;verticalAlign=middle;whiteSpace=wrap;rounded=0;fontSize=18;rotation=90;" vertex="1" parent="1">
                    <mxGeometry x="695" y="307" width="60" height="30" as="geometry"/>
                </mxCell>
                <mxCell id="21" style="edgeStyle=none;html=1;exitX=1;exitY=0.25;exitDx=0;exitDy=0;entryX=0.009;entryY=0.383;entryDx=0;entryDy=0;entryPerimeter=0;" edge="1" parent="1" source="55" target="17">
                    <mxGeometry relative="1" as="geometry">
                        <mxPoint x="270" y="180" as="sourcePoint"/>
                        <mxPoint x="400.99" y="181.5" as="targetPoint"/>
                    </mxGeometry>
                </mxCell>
                <mxCell id="22" value="Infrastructure&lt;br&gt;(VMs, Networks)" style="text;strokeColor=none;fillColor=none;html=1;fontSize=12;fontStyle=0;verticalAlign=middle;align=center;" vertex="1" parent="1">
                    <mxGeometry x="840" y="245" width="100" height="40" as="geometry"/>
                </mxCell>
                <mxCell id="24" value="Kubernetes resources" style="text;strokeColor=none;fillColor=none;html=1;fontSize=12;fontStyle=0;verticalAlign=middle;align=center;whiteSpace=wrap;" vertex="1" parent="1">
                    <mxGeometry x="840" y="160" width="130" height="40" as="geometry"/>
                </mxCell>
                <mxCell id="26" value="Target resources" style="text;strokeColor=none;fillColor=none;html=1;fontSize=12;fontStyle=4;verticalAlign=middle;align=center;" vertex="1" parent="1">
                    <mxGeometry x="840" y="76" width="100" height="40" as="geometry"/>
                </mxCell>
                <mxCell id="29" style="edgeStyle=none;html=1;exitX=0;exitY=0.75;exitDx=0;exitDy=0;entryX=1;entryY=0.75;entryDx=0;entryDy=0;" edge="1" parent="1" source="17" target="55">
                    <mxGeometry relative="1" as="geometry">
                        <mxPoint x="470" y="200" as="sourcePoint"/>
                        <mxPoint x="530" y="210" as="targetPoint"/>
                    </mxGeometry>
                </mxCell>
                <mxCell id="6" value="Policy&lt;br&gt;as Code" style="shape=note;whiteSpace=wrap;html=1;backgroundOutline=1;darkOpacity=0.05;size=10;fillColor=#dae8fc;strokeColor=#6c8ebf;" vertex="1" parent="1">
                    <mxGeometry x="544" y="157" width="55" height="29" as="geometry"/>
                </mxCell>
                <mxCell id="37" style="edgeStyle=none;html=1;exitX=0;exitY=0.75;exitDx=0;exitDy=0;entryX=1;entryY=0.75;entryDx=0;entryDy=0;" edge="1" parent="1" source="18" target="58">
                    <mxGeometry relative="1" as="geometry">
                        <mxPoint x="670" y="200" as="sourcePoint"/>
                        <mxPoint x="470" y="360" as="targetPoint"/>
                    </mxGeometry>
                </mxCell>
                <mxCell id="46" style="edgeStyle=none;html=1;entryX=1;entryY=0.5;entryDx=0;entryDy=0;" edge="1" parent="1">
                    <mxGeometry relative="1" as="geometry">
                        <mxPoint x="419" y="332" as="sourcePoint"/>
                        <mxPoint x="267" y="331.5" as="targetPoint"/>
                    </mxGeometry>
                </mxCell>
                <mxCell id="44" value="Compliance&lt;br&gt;as Code" style="shape=note;whiteSpace=wrap;html=1;backgroundOutline=1;darkOpacity=0.05;size=12;fillColor=#b0e3e6;strokeColor=#0e8088;" vertex="1" parent="1">
                    <mxGeometry x="286" y="311.5" width="90" height="40" as="geometry"/>
                </mxCell>
                <mxCell id="47" value="Policy Validation/&lt;br&gt;Enforcement Points (PVPs/PEPs)" style="text;strokeColor=none;fillColor=none;html=1;fontSize=12;fontStyle=0;verticalAlign=middle;align=center;whiteSpace=wrap;" vertex="1" parent="1">
                    <mxGeometry x="643" y="70" width="195" height="40" as="geometry"/>
                </mxCell>
                <mxCell id="57" value="Result" style="shape=note;whiteSpace=wrap;html=1;backgroundOutline=1;darkOpacity=0.05;size=10;" vertex="1" parent="1">
                    <mxGeometry x="549" y="190" width="50" height="29" as="geometry"/>
                </mxCell>
                <mxCell id="60" style="edgeStyle=none;html=1;exitX=1;exitY=0.25;exitDx=0;exitDy=0;entryX=0.005;entryY=0.394;entryDx=0;entryDy=0;entryPerimeter=0;" edge="1" parent="1" target="18">
                    <mxGeometry relative="1" as="geometry">
                        <mxPoint x="519.09" y="260" as="sourcePoint"/>
                        <mxPoint x="664.9000000000002" y="261.15000000000003" as="targetPoint"/>
                    </mxGeometry>
                </mxCell>
                <mxCell id="61" value="Policy&lt;br&gt;as Code" style="shape=note;whiteSpace=wrap;html=1;backgroundOutline=1;darkOpacity=0.05;size=10;fillColor=#dae8fc;strokeColor=#6c8ebf;" vertex="1" parent="1">
                    <mxGeometry x="544" y="241.5" width="55" height="29" as="geometry"/>
                </mxCell>
                <mxCell id="62" value="Result" style="shape=note;whiteSpace=wrap;html=1;backgroundOutline=1;darkOpacity=0.05;size=10;" vertex="1" parent="1">
                    <mxGeometry x="549" y="273.38" width="50" height="29" as="geometry"/>
                </mxCell>
                <mxCell id="72" value="GitOps Pipeline/Kubernetes Controller/&lt;br&gt;any Python, Go environment" style="text;strokeColor=none;fillColor=none;html=1;fontSize=12;fontStyle=0;verticalAlign=middle;align=center;whiteSpace=wrap;" vertex="1" parent="1">
                    <mxGeometry x="390" y="70" width="245" height="40" as="geometry"/>
                </mxCell>
                <mxCell id="73" value="&amp;nbsp; &amp;nbsp; &amp;nbsp;Compliance-to-Policy" style="rounded=0;whiteSpace=wrap;html=1;rotation=90;fontSize=16;verticalAlign=middle;align=center;fillColor=none;strokeColor=#6c8ebf;" vertex="1" parent="1">
                    <mxGeometry x="350.88" y="216.63" width="203.5" height="63.27" as="geometry"/>
                </mxCell>
                <mxCell id="51" value="" style="shape=image;imageAspect=0;aspect=fixed;verticalLabelPosition=bottom;verticalAlign=top;fontSize=12;image=data:image/png,iVBORw0KGgoAAAANSUhEUgAAAyAAAAMgCAYAAADbcAZoAAAAGXRFWHRTb2Z0d2FyZQBBZG9iZSBJbWFnZVJlYWR5ccllPAAAVNRJREFUeNrs3Q2cXHVh6P1zZmZfkt2EFZDgVcNCvLVAQ9baqnC1LJWXeu1HE7T3aauWcJ97W/G2F1Kxb/a5JL1t71WsgVZRK5qAbxUVgm3lRZRNK9FSlVB5sxVdE0AoL9kkm82+zMx55uxuwiaZmZ3dnd2dOef7/XyWQM6GmfmfyZz/b89bEAAAAAAAAAAAAAAAAAAAAAAAAAAAAAAAAAAAAAAAAAAAAAAAAAAAAAAAAAAAAAAAAAAAAAAAAAAAAAAAAAAAAAAAAAAAAAAAAAAAAAAAAAAAAAAAAAAAAAAAAAAAAAAAAAAAAAAAAAAAAAAAAAAAAAAAAAAAAAAAAAAAAAAAAAAAAAAAAAAAAAAAAAAAAAAAAAAAAAAAAAAAAAAAAAAAAAAAAAAAAAAAAAAAAAAAAAAAAAAAAAAAAAAAAAAAAAAAAAAAAAAAAAAAAAAAAAAAAAAAAAAAAAAAAAAAAAAAAAAAAAAAAAAAAAAAAAAAAAAAAAAAAAAAAAAAAAAAAAAAAAAAAAAAAAAAAAAAAAAAAAAAAAAAAAAAAAAAAAAAAAAAAAAAAAAAAAAAAAAAAAAAAAAAAAAAAAA0n9AQwMI55X2jvVP+6vUExcILgrHhlvHfyrW9bvzX6NB3TPnrGWZWBkH8NUX8fcXCN6b+RhhNWV4s7IqKo7uDKJz43vzBXdHIwO7x79zz6K7hr/zXXTV+DoSWJXaZsbF+LbN+52XZYK5ndRS2deTD406LlxXDpadGQbZj6vcUw/bVU/6zf/Jrqp2lr72lr4HJfx8Idm3eaTYhQIBJK68e6Sn90jUeFkHYVZr0r5n87+7JryMD4dBfv6jM/6xchJT73ujIv8Zhpf9fEFZ8nLA4ds/4v+ZHvxdEhX3B2NCuaHhgV/4Htz4w+u3Ne238TWAss34ts34rLRvJrlwxnDlldSGz7LRisOS0YthaCo5MxzxvcndOxsr9pa++8f/etXnATESAQGK99C+Ge4MoHI+N0l+gcw8HRlTbpL8hI6Ta8ymM3hNExb1RYfiBaHjPA9GBJ3cdvGXtAzb+JjCWWb+WpW/9xsFxMPuy1xTC5asL4ZKzFiA2ZhIlcYxsH/9VkAgQaMrQ+OBwHBY9418TezN6JmPjiMl8WC0OkhIh5ZTCJCrmdwdjBx6Ihp56YOjzr7/HxMAExjLr17Lkrd+h3OmnDWdPPb8QLjs7CnIrmmQzHsfIraWvbaUY6TerESDQkF6y+WBv6Zfe0l+KNaXJd3wYVXdQY1ykNkKOVsw/EBVGHwiG99xTeGLHjuG7fnu3SYMJjGXWr2XNt36bNDoqifeOXDsZI/aMCBBYpNi45mB8bkYcHPEhVPEejt5j/mJEZf6KiJCZiaK9QWFkRzS6757ic9/fcfDWtzp0ywTVMuvXsgZdv/nMCzoPZFefPZpdsTYK4nM5Emlr6euGUoj0mQ0JEJj/6Lh2qHcyOt48uYej6mRehNQpQo4JkuEdxYPP3FZ4/J4dI1+7fLcJhQmqZdavZYu7fkeyp6wYzK15WyHsOKeBzumYb/2lr02lENlqhiRAoG5e/JdD3VOCI/61K6wyURchCxQhRzxOYXc0OnhbNPTvO4Y++9rbTChMUC2zfi1buPX7fHgsuyDF04X4kKz48KxrHJ4lQGB20fFXB3rGoyMKLgmCo/ZyVAwEEbKoEXL48Sb3jgw9ffvYzo/ePva9T+w12TBBtcz6taz+67cUHicLDyEiQGAO/sOHDvSEE8GxNjh8laqpk2UR0jQRMlX+4O2lGLntqBgxETFBtcz6tWyWfzafOb5zb8trf0t4VNUfODRLgED56BiMQ+PyiegIu4+dvIuQRETI0TFy33W3jz2wZZ+JiAmqZdavZTP7s3taL3r7WOb4dSk6x2Ou4itnbXCyugAh7dHx4cH4ylXrS18Th1eVmaiLkARHyKGnMjr4+WjwsduHPnfu7SYiJqiWWb/Wb/Vlg7mfPetg7qfeHQXZZr+U7mLZOhkiDssSIKQqPK7bH+/luKQ04V1bOS5ESJoiZOKx4xPY99+ef/RvPz5y95W7TVJMUC3z+q3f5+Uzxy/b13L22/Nh11oziTmL4+PSUoRsMxQChAR70Uf2d5cmt+tL/3pJWObu4yJEhByhMLKjOPjETUOffs1NJikmqJZ5/Wlfv5N7Pa6016Putk2GiL0hAoSEhUf8k5pDJ5SXmbyLEBFSRVTcF43s/Xz+B1++fmT77+02STFBtX6NTdrW757Wi94xljnx7WYU86a/9LWuFCE7DYUAoZmj46P7Dp3bcXkQhd2VJ9YiRITMoEXGhm4vPvvg9Qe/9Ms7TGBMUK1fy5K+fuMrXA20nHdVMWw/y8xiQcTnhVxjGAQITebkj+3rLk2sL5+Mj67nZ45hIEJESN0Uxx4s7tt9/dBnznZ4ltdv/VqWyPU7lDtj1WBuzfuDINNpdrGgHJIlQGim8Cj9ctVkeFQIBBEiQuodIoXd0fCzXxj9p/d9fOyhT+8zgfH6rV/LkrB+97b8wgUj2ZdeaXaxaOJDseJDsvoNhQChEcPjr/f2jodHFPQe/dYTISJkwcTniRx85vopIWKCapn1a1lTrt/n2t54WT7sWmeGsejiPSDnOS9EgNCI4RHE4VF5Qi9CRMiihMi3/s/1Yw9/Nq03NzS5s34ta9Jlz7a96cpCuOxCs4yGihCX6hUgLHp4fHzqHo9Kk2MRIkIaOkRMUC2zfi1rqGXxyeZ7W177TvHRsOII2WoYBAgLbMX1A/E9PLaU/rU3nG4iKkJESGOHiAmqZdavZQ2zLI6PPa3nXx0FLavMNkSIAIFD4XHo5PJo6ptMhIiQJnojxyEy+MQHD9z4yutNUC2zfi1rlGXiQ4QIEJgaHp8Y6CpNMK+YjI+yE1sRIkKaKkJixcJjxWcf2jh00/l3mKBaZv1attjLnml7ywfc40OECBAYj489k+ERdk036RchIqTpIiSWH/5mftfXNg3f9l8fNEG1zPq1bDGWOeG8qa1zYroAoU5O+uSe3vg8j9IbqLuWiagIESFNHSHx0x7Z94XRb/x/G8ce+ZsknR9icidALGvwZeKj6blErwChDuERB8fm0tfaYyeYIkSEJDtCJs4PefyDB278uU+YoFpm/Vo238v2tp574UjmJe8x+0hEhLzCzQoFCLOJjy3PbSxN+i8v/WtX5QmmCBEhCY+QWGH0wcKT/7zp4LaLv2WCapn1a9l8LNvXcvY5w9nTNpl9JEa8ByTeEzJgKAQItYVHb+mX+LK63dUm/SJEhKQqQuKnf/DZT4zs2Lg5/8hNzXr/EBM/AWJZAy4byp2xajC35gNBkOk0C0mUbaUAced6AULV8Nj6XLyn46rJK1zVNOkXISIkbRESH5ZVfOZ77x666cI7TFAts34tm+uyycvtfsDldhNrQylCrkn7IGS9DyjnhVufi8/xuLv0qdhb9mMzLPN5Gpb5JA3DaT+Gxye94XQfy+ERvxfO4Pkc+b+Z/vkceoCw6veFVR6j2hMoNzTVv2/qcw5r/L7KY1VhrMMyUVjucco8gbDiuqs81uF0z6epfowTtoUdJ7+p5RXvOiOz5IT7Crvu3meCapn1a9lsl+1pveDyYrjk581EEuuXguPO3h7s/VZ/mgfBHhCODI8bno33emwJovgk8/DIN8kM9jzYExLYEzLNWCduT8j4ayjuK+5/bPPQp37+kyaollm/ls10mfM+UiOOj1ek+XyQjPcAU+Ij3uvxoyC+wtWUGWVU7eOz3Az9mDlnNO1P3aOys+uyM/WqrVHp+Rz5p6d/Podfe9Xvi6rP6cNKxVFuHh9Ns6mKqjzG9GMdhVWLrMzrmOb5hMeMaIV1V3mso1qeT9P9SCezPLN85VUdv/nox3Mvf+tynypArYaz3StKX654lQ7dwcS5tallDwjBC298tsq5Hs+/TewJqfR99oRUa67pxjqRe0LGX0dxX/Hpf3n30BcuunMGn7t+Qm6Z9ZvSZc+0vfUDxbBtjVlJqqT2JoUCJPXx8UxP6W1wS3D4ClfVJ/0iRISIkBl2yMjeL4784x9tyn//i414A0MTPwFiWQMsG2g9/+LRzIrLzEpSJz4E69Q0HorlEKwUO/FTz2wszfPuK02Ruqt+RDocq8pjlC2oCg3jcKxUHY516OW1HffW9l+89rb2i/76DJ86wNHymeM7RjMvfIeRSKX4CJTNaXzh9oCkMzziN3y816P3yHnhsT/FrzBDtiek4vfZE1KtuaYb6yTvCYkV9/1409CnXrVllp/JfkJumfWbwGXPtr359wph54VmJ6kW36CwL00v2B6QtMXHp5+Jo+NHh+PjiPlgVP2j0p6QKo9RtqAqNIw9IWncEzL+gbv8lKs6f6v/b3I/9RYnqAPBYO6Va8QHQQr3ggiQVMXH0xtLv9xdmtR1VZ78iRARIkLmVW7Ja9rP/9A32i/8mEOyIOWGs6f+hlGgpCdYuWF9ml6wQ7DSEB6febqrNJd7/pCraQ63cTiWw7Gqr3eHY9VLcd+P/2ToU6/6ZI2fyQ7Rscz6TdCyva3nXjSSeYnL7nJIqk5Itwck4U74zNM9QXyieTjlkKtpftJtT4g9IdXXuz0hdfsAXn7K/+r4b9//gEOyIH1GMy+y94Op4qNTrkjLi81a34mOj/WlX26L39Rh2QlcWHWSGR77HxUmnVO+s+L3hVUe49DvhdNM+id/8l41Qo76Q2H5l13p+Rz5v5n++Rx6gLDq94VVHqPaEyg3NOE0YRhWHY7pxjqcwfvj8PqoGiFHLggrrrtwmvdhlefT5MJc+xm57gvODVqXbS/s3r6/2rfOw7L5+v9a1hjLjE2DLov3fuTDLud+cLSe4LizPxbs/dZw0l+oPSBJjY/P/vvm0sfd4avtlN9LYU9IucexJ6S298cR66NqhNgTMv2PglrPaO257CtL3nTTq316QfLZ+0EFqdkL4hyQ5IXHkZfYPWqWX/58DeeEBFXn3c4Jqb7enRNST8VnH3nP0N+c+8UZfl77CbllXn+TLHPuB9NIxbkg9oAkKT4+9+89pY+4u4PgqPM9wupzYXtCyj+OPSG1vT+OWB+VHseekNo/lE/46as7/tv3r/aJBsk0mllxsVGgivgHyWuT/iIFSJLiIxiPj57pJpkiRISIkMYWtnW9teO//+Bjuf+4zsnpkCDxfT+ioGWVkWAaVwkQGt7xf/PU+mgiPrpqnWSKEBEiQho8QlqXXdj++ms/J0IgOYazK+39oBbdwcoNvQKEho6P0i9bShPorqjqxFiEiBAR0nSybWe0n/+hv2+/4CNuWghNHx/dJxfDpf/JSFCjywUIjRofW8bjY8oEWoSIEBGStE/p3Ety/3Ht59ovuO50n3rQzAHysnOMAjOwNli5oUuA0Fjx8flSfITB+nITaBEiQkRIwoSZ5bn/uO5zS97y9xf49IPmNJY58S1GgRlaL0BokPB4sms8Pg69KStMoEWICBEhyYuQ7Mk/97Glv9pnEgNNZih35qooyK4wEszQJQKExY+Pm57smrjMbrS++iRThIgQEZLYD+0TTr9ahEBzGc6e6q7nzEZPsHJDtwBh0bygFB/REZfZnW6SKUJEiAgRIUAjKISdTj5nthJ5TxAB0gzx8YUn45OQxuMjmsFkVISIEBEiQoDFNXn41clGgllK5GFYAqRZ4iMMesoHgggRISJEhACNaiTzoh6jwBz0JPFqWAKkoePjJ6U3XDRx2NUxE2sRIkJEiAg5FCF3ixBoUIWwy+FXzFWvAGFh4uOLP5k84TyOj6jCxFqEiBARIkLiCDnj/SIEGlMxbFtjFJijNwsQFiY+jjjhvPKEXoSIEBEiQkQINKbBlleKD+ohcYfxCZAG01WKj8NXu6phMipCRIgIESEiBBrTWPhC539QnwBJ2HkgAqTRhEF8k8GeaAaTUREiQkSICBEh0HgK4ZJVRoG6RYgAYT50femJUnxEa8tO/kSICBEhImQGEbLkLX93gU9VWFzFsN0hWNRLrwBhnuIjWF918idCRIgIESE1yq545fvbz//Q6T5dYXGMZU7oLE2zOo0EdZKomBUgjRAfNz+xsTQRWl/T5E+EiBARIkJqEWaW537qLZ9tf/1fiRBYBCPZbodfUU8OwaKu8RGHx1UzmvyJEBEiQkRIzRFy8Udzq355uU9bWFhOQKfOugUI9YmPWx7vLf2yZVaTPxEiQkSICKnpUz734vYLrvuMCIGFFYW5DqNAXa3ckJioFSCL5LhbHo+vdHVLtQmrCBEhIkSE1EW27fS2X9z8Pp+8sHCKQfvLjAJ1lphL8QqQxYmP+A10S/xGiqaZsIoQESJCREg9hK3LL+j4fx9+v09gWBhR6AR06q5XgDC7+NhWio9w/EaD3UdOmkSICBEhImSeI6T9+IuX/j9fd48QWIgACVqchA4CpGFsDuIrGZSd/IkQESJCRMg8f+ifeOb7lvzyZ17toxig6ZwiQJix47Y9dkUQTLncrggRISJEhCyC7Mpf/Ejrq3//JT6VYX4MZ7tPNgrMg24Bwszi49bHekuTmc21Tf5EiAgRISJkHoWZ5a2v+B8fcWUsmB/5zAkrjAIIkEW1/NbH4mK9ZWaTPxEiQkSICJlH8ZWxeq/+Y5/QAAiQpMXHlx8bv+JVNPXSaSJEhIgQEdIAxk9Kf9s9631SAzSFbgFCrTaXJi49s5/8iRARIkJEyDxuBLpe9t62X7z2dB/VAAJEgCTA8i/vXh8cOul8TpM/ESJCRIgImT8tP/1fPp077Y3OBwFAgDR1fPzt7nivx+b6Tf5EiAgRISJknoSZ5W3nf+g6n9wACJDmjY/4fI8tpUlKV30nfyJEhIgQETJPDdKy9NUdv/Ht/+kTHAAB0pwmbjY4L5M/ESJCRIgImacIWfbS33E+CAACpMks/7vda4OpNxsUISJEhIiQJtLy8rd8xPkgAA2pT4BwjGV/t6s7mjj0agEmfyJEhIgQETIfW4WWF7ed94H3+kQHQIA0hy2lCUlXNM0ESYSIEBEiQhpZfH+QJetuvcBHOgACpIEt+/tdV5R+6T1i+iNCRIgIESFNKvuiV/3f3GlvcCgWzELn2HfuNwogQOY7PrpLv1x19ORPhIgQESJCmtb4pXk/7NK8AI1juwBhqltKX13lJn8iRISIEBHStA3S0vGqpb/+jUt8xMNsFAeNAQiQebHsK7s2BocuuVth8idCRIgIESFNu5HoWvU7rT9/5Yt92sMM/+5EY48aBeqsX4BQio8fd5cmG5fXMvkTISJEhIiQphRmlre84l3v84kPM1WwBwQBIkDqb/ySu+OHXtU2+RMhIkSEiJCmbJCWjlctWXfr+T71oXbZ6KA9INTbTgGScp23/Xj8qlcznfyJEBEiQkRIU06mXBULZhgg+35gFKirXZsHBEi64yM+4fyq2U7+RIgIESEipOnEV8Xq/Ys/sgWA2uSivU8aBeqoL0kvRoDMzubgqKteiRARIkJESNIjJFxywsXtb7zx1TYBML2l+QcdgkU97UzSixEgM9R5e39v6Zf19Zj8iRARIkJESLPJvfRce0Gg1klWNOKGhNRLot5LAmTmttRz8idCRIgIESFNJdt++tJ3/PPv2BRALZOsYeeBUC/2gKRV5+39G0u/dNd78idCRIgIESFNteFY9pJLcqf+khPSYbpejwYdhkU9DAS7NguQVMbHHf3xOR+Xz9fkT4SIEBEiQppGfEL6eR90KBZMo63Q7xAs6qEvaS9IgNQoik88DydPPBchIkSEiJCUR0i45IR17f/5hlfZOkBl7YX+J8Og4GpYzNV2AZJCHXf095R+WR/NcDIqQkSICBEhSY6Q7Ete51wQmG6iFR20F4S56hMgqRRtnnayIUJEiAgRISmLkPgO6Uv/y1fX2UZAZS3Fp+8xCsxBf9LO/xAgNei480e9pYlBb02TDREiQkSICElZhGROON1eEKhi+dgOAcJc9CXxRQmQ6W2Z0WRDhIgQESJC0hQhmZYXL/31b1xiUwFV/ppEQyKE2bpVgKRMx50/Wh8cuuyuCBEhIkSEiJDyG5KuVb/tsrxQWUu0R4AwG/Hld7cJkLQJg6umm/yJEBEiQkRI6iMkzCxvfe3/thcEKujIf68UIMVBI8EMbUvqCxMglT4svjq59yOcfvInQkSICBEhaY+QzLKX/Ia9IFBervjsgWw0tMNIMEM3CJAUWfrVH3ZFU658JUJEiAgRISJkGvaCQFVthcfuMArMQHz1qz4BkiZhcEXpn13RDCajIkSEiBARkvYIsRcEKuvMf+f+MCg8ZSSo0bVJfnEC5ChL7/phfLfzy8tONkSICBEhIkSEVPnhTbwX5E/sBYEKWorPfMkoUKOtAiRd1pe+uipONkSICBEhIkSEVN6oLHvpJbnui+wFgTI689+908no1BQfuzYPCJB0uXzayYYIESEiRISIkArvwcyy1tf979+wKYFj5YrPDToZnRpsSvoLFCBTLP3aD9eXNu7dNU02RIgIESEiRISU37DYCwIVdeTvv9EoUEVfsGtzvwBJleiqGU02RIgIESEiRISUeb72gkAl7YX+J7PR4J1Gggo2peFFCpBJS7/26Ppg/K7nM5xsiBARIkJEiAg5duPS+R/W2bJAefaCUEFfki+9K0DKT9YumfVkQ4SIEBEiQkTIUVuXlhcv/ZU7RQiUYS8IFWxKywsVICVLvv5ob2lT3hvMZbIhQkSICBEhIuTIDcyJZ/y2LQyUN7EXxBWxOGxrWvZ+CJDnXVJ+IiBCRIgIESEiZPZbmJYXt79h66tsYuBY8V6QluKem40Ekzal6cWmPkCW3P1odzBx749AhIgQESJCREh9ZV98jhsTQgXL8vfe7O7ojMdHCq58JUCO3LhfXnlCI0JEiAgRISJkLsK2417f+nMbXmxbA8eK7wvSVth1nZFItTg8rknbixYg43s/okCEiBARIkJEyPxo+ZlL7AWBCpaP7diRcXPCNLs06Xc9FyBHWXL3D0rxEXRV2riLEBEiQkSICJm7cOkKV8OCKjrz913nhPRU2pamE88FyPMun27jLkJEiAgRISJkrgWSWeaSvFBZe6H/qbbiEx8xEqkS7/W4NK0vPrUBsqTvBz2ljXNPLRt3ESJCRIgIESFz3Ngc/3KHYUEVx41uv9OhWKmyLo2HXqU+QKLJS+/WunEXISJEhIgQETIHufafbn3lFU5Ghyq6xrZf7VCsVLgmrYdepT5AStZXnfyJEBEiQkSICKmrlp9Zby8IVOv04nODS/P/utFIJNrOUnxsSPsgpDJA2rf/2/rSRrlr2smfCBEhIkSEiJC6CTucjA7T6cx/5/7W4lPOB0mm+JArn4NBeveAvLnmyZ8IESEiRISIkDoVSGbZkrVfer1NL1TXNXrXzdlo/51GInHWpe2GgwJkUvv2f+su/bJ2RpM/ESJCRIgIESH12eic+DN++gc1OG7sGx8Jg7FHjURiXJr28z5SHSCH42Omkz8RIkJEiAgRIXMWtnW9Ptd9wTKbX6guPh/kBaN3Xemk9ETYWoqPrYYhzQESBpfMevInQkSICBEhImTOWn/+yvNtfqGmCDnQmb//PSKk6ePjUsOQ4gBp/4fxw6965jT5EyEiRISIEBEyt58DHdftPBCo0dL8Q4+KkKa1s/S1wTCkPEBKG9y1dZn8iRARIkJEiAiZfYA4DAtESDri47w032xQgDy/qb2kbpM/ESJCRIgIESGz5jAsmHmELM1/f5MIER8CpIm0/eO/dpc2sD11nfyJEBEiQkSICJkVh2HBzHXmv3u/PSHiQ4A0l7XzMvkTISJEhIgQETLzAHEYFsyKw7Ea2jbxIUCOdsm8Tf5EiAgRISJEhMyYw7BAhCRIfLWrdeJDgBzW9o1/7Q7iq1/N5+RPhIgQESJCRMiMOAwL5hYhx4/ecYmbFTaETS61K0DK6V2QyZ8IESEiRISIkNoDpK1LgMAcTN6s8Pey0f6vGo1FEe/tiO9wvtFQCJByG9w3L9jkT4SIEBEiQkRIzZas/ZIIgTlGyAkjX/5Aa/HJjxqNBdUfTJzvsdVQCJBK1i7o5E+EiBARIkJESG0boeNWvcqmGOaua/RrtyzNP+y8kIURn2z+ilJ87DQUAqSstnu+v3ZRJn8iRISIEBEiQqYVLj3RHhCok878d/8lPi8kEw3tMBrzIj7kaoOTzQVILc5dtMmfCBEhIkSEiJBptkItL2595eUvtjmG+ogPyTpx5JZNrcUnPxYExQNGpG76gom9HtcYCgEyrSg+AX0xJ38iRISIEBEiQqpPmH7qLfaCQJ3Fh2QdN7bjXZlo6JtGY04O7fWIz/foNxwCZFqt93y/u/RLz6JP/kSICBEhIkSEVBR2rHAeCMyDtsKPn4r3hrQXHv2TMCg8ZURm7NC5HvZ6CJCZbNUm9340wuRPhIgQESJCREj5t0vrcgEC82j52Ld2vGD0zv/RUnzm0w7Lqkl/MHGFq3X2egiQ2Ti3oSZ/IkSEiBARIkLK/L8zy9p6r/5pm2SYPxP3DLnj0/FhWe4bUjU84vt6nFr66jMcAmSWot6Gm/yJEBEiQkSICDlG9kWvthcEFkB8WNYJI1/+4HFj31gvRI4Ij02T4bHVcMy/MKkvrHXHI92lX35UaXZVbi5SecY6dXtcbhZZvibCat937GyvzHwmnOZx4u+o/flUmjNVnLEdM78Iqz6XI55R1e8Lq8+pokozvqPHKpzmuRz5nMMZPJ9j1184zeNMPJ9wBs+nId6HFcYwnOa9euxYVXnOFcYwnOf3YeXHqPf7sJb3R1jlMaYf63AunwvlvrfWz4UqYx3W8nxm8uOikYGvHbj+5b8zy+2VZV6/9TvLZSPZU1YM5ta8rRB2nBMEmY6UhofoECB1CpBvPrK+tEHc0tCTPxEiQkSICBEhk3+2uH/wuhe92kRTgFi2OOs3n3lBx/7cq9blM13nR0FuRcLnv/HJ5TeUwmObFBAg9Q6QzaVfrmj4yZ8IESEiRISIkHFjD2y9eGT77z9ioilALFvc9bu/5TVnj2ZOOrsQLjs/QVPD/vHoCIKtTixffLkEv7bew3/FoqO3mM9vTKNDfwuP+L7J3w3LbEzjPzq+0Y2e//tb4fvGv3Hqd5b7vqOez+FHn8HziX8vPvY7rPH5lH+MKTOcoyd/hx9jyp8Ow4rP5dBzHn9GVZ5zUGYMo6mfikc953KvbeJ1VH7O5cY5OvqTt8rzOfY9Uv35HBrD6OgIafT3YYUxjI6YYE6/3g+/D8MKE9EyYxg/bDiP78Px1172Mer9Pqzl/VHhfTjN+6P8WM3wc6Hc49T6uVBlrJ9/j1R5PjXKvHBNfCL6IzbNsLiWjX0rvnfIN/OZF3zsQHb12fnMCaUYWXp2k0bHob0dO63ZxpHkPSDHnE977JazzEDYE/L8TKfiY1R+zuXG0J6QJnof2hNSh/dhLe8Pe0LKvi0OPrPtwCfP/KNZbK8s8/qt33leVoqRzoPZl581mjnpNcVwyeoGPkwrDo1bx8NDdAiQhdTyrUd6Sxu/u5tu8idCRIgIESFpjpD88CODHzvlYhNNAWJZ46/fkezKFcOZU1aXwmR1MWg7LQpbT1uEKd/AZHBsn/y1rxQdA6b3jS+hh2BFPROHBjTZYTAOx6rwGIHDsRyOVZf3ocOxGvxwrFy7e4FAk2gr7Hoq/ir9612HPgUGcz2rC+GyFcVwyUnFcOlpUZDtKIbtq+vwcP1Tvn48HhrxvzuXo2kldA/Iw7eUfll7aCttT0hgT8g0692ekNrXuz0hgT0h04z1XPaERIM/+aUDN/T8Y4Nsr0KP1/RzDmPaII9XipOOodyZM9lLMuAQKgHSbAES3/+ju6knfyJEhIgQEZLOCNn0w6vCjTbPAMmV1Duhdx+9dW66O1W7Y3rluYs7pi/c+9Ad0+vwPqzl/eGO6VOcYtMMIECaSss/PdybmMmfCBEhIkSEpC9CemyaAQRIs+lJ1ORPhIgQESJC0hUhAgRAgDSdUxI3+RMhIkSEiJAURchpmyIRAiBAmkpPIid/IkSEiBARkp4I6bZ5BhAgzSOMf3KW0MmfCBEhIkSEpCNC7AEBECDNIXfvQ12lX7oSPfkTISJEhIiQ5EfIGptnAAHSLHpSMfkTISJEhIiQZEdIt80zgABpFt2pmfyJEBEiQkRIciPEIVgAAqRJhM//1EyEiBARIkJESPNGyGmbom6baAAB0gzWpG7yJ0JEiAgRIcmMEAECIECaQlcqJ38iRISIEBGSvAgRIAACpBlMuXmVCBEhIkSEiJBmjhABAiBAmkJXqid/IkSEiBARkpwIOcUmGkCANLTctx/sMfkTISJEhIiQxERIt000gABpdF0mfyJEhIgQEZKYCOmyiQYQII2u2+RPhIgQESJCEhMh7gUCIECaKEBM/kSICBEhIqTpIwQAAdLQotDkT4SIEBEiQpIUIaf+76K9IAACpKGtCUSICBEhIkSEJClCnAcCIEAaWlf5CY3JnwgRISJEhDRxhAAgQBpVVGVCY/InQkSICBEhTRghDsECECANrVuEiBARIkJESKIixCFYAAKkgYWHroIlQkSICBEhIiRBEQKAAGnoCAlEiAgRISJEhCQoQgAQICJEhIgQESJCRMgCRci5NtMAAqQhZb/7QJcIESEiRISIkKTuCQFAgDSasMyVUkSICBEhIkSEiBAABMg8RkjNG3eTPxEiQkSICGmCCBEiAAKkUU1s3CIRIkJEiAgRIUmKEAAESGNHSC2TABEiQkSICBEhIgQAASJCRIgI8T4UISLk2OfsTugAAkSEiBARIkJEiAhZsAhxJ3QAAdKgwnITMxEiQkSICBEhSTkcCwAB0rghIkJEiAgRISIkQRECgAARISJEhIgQESJCFipCABAgIkSEiBARIkJEiAgBQICIEBEiQkSICBEhAAiQhYmNWiYbIkSEiBARIkJECAACpG5EiAgRISJEhCQuQgAQICLE5E+EiBARIkIWKEJ22kwDCBARYvInQkSICBEhCxUhAzbTAAKkUZNjFpMNESJCRIgIESFNECEACJAGFM52siFCRIgIESEipGEjxEnoAAKkgQ3MfrIhQkSICBEhIqQhIwQAAdKoorPO2jm3yYYIESEiRISIEBECgACZLREiQkSICBEhSYiQfptpAAHSwCIRIkJEiPehCElWhPzYZhpAgIgQESJCRIgIESELEyEOyQIQIA0tDPpEiAgRId6HIiRBEQKAAGmCCAlEiAgRId6HIiQxEeJO6AACRISIEBEiQkSICFmwCHEndAAB0tB2ihARIkJEiAhJWoQAIEAa195pN7oiRISIEO9DEdJMEeIQLAAB0sDCYOCYjZgIESEixPtQhDRthPz491sdggUgQBpXdOgnZSJEhIgQESJCkhAh4gNAgDRFhAQiRISIEBEiQhIRIQ6/AhAgDZ8fO0WICBEhIkSEJCpCABAgDexnegamnWyIEBEiQrwPRUizRMh2m2gAAdL4wniXvQgRISJEhIiQREQIAAKkCQzUNNkQISJEhHgfipBGj5A+m2gAAdIMdtY82RAhIkSEeB+KkEaPEAAESMPbO6PJhggRISLE+1CENGSE7HpPW59NNIAAaQZ9M55siBARIkK8D0VIo0WIe4AACJCmMTCryYYIESEixPtQhDRShLgHCIAAaRJn9uycbuMuQkSICBEhIqThI0SAAAiQpiJCRIgIESEipLkj5Mc2zwACpJn0V1wiQkSICBEhIqQJIiSyBwRAgDSV+6suFSEiRISIEBHS4BHiECwAAdJcpt9wiRARIkJEiAhp1AgZ2P3udlfBAhAgCQsQESJCRIgIESGNGiH2fgAIkCZzZk9/UOs15EWICBEhIkSENFqEbLdpBhAgzaj2n6CJEBEiQkSICGmkCLEHBCDhcgl9XfFP0HpnFCFRNP4v0aHtYXjUNvHwf0dHbkXDiT8aHrFxL1MNU/5/hx+p6vdNeZxjHqPy9x35GEe+tnLP5YjJX2m2EVZ4zuVeW/mxmvzdso9x6HWUf84zWh8Vxnr8+2fwfOLfiyd/YY3Pp/xjTJn8HT1jO/wYU/70NO+Pw8+oynMut96PWMs1rPeJ11H5OZcb5yjwPqx1vc/8c2HyfVj2vV5+DOOHDefxfTj+2ss+Rr3fh89/X77v/w6edNJJp0+XSJbVtMzYWL+Ltmww17M6Cts68uFxp8XLiuHSU6Mg2zH1e4ph++op/9kfHHsl0/gHEnuDiSNbdo7/umuzH1IkQJjIV/XgzrWlf94y4z835UfPlXZ6VPxx6DE/VAzLTyKO+aHhdN8XVnmMyt93zO9G5Z/zsY8bVnmM8q+t/FiFVR7jmFGuMgbTrI8KYxjO8PlMfEftz6f8Y0yZFVZ8jNrfH4ef0QzeH8es5RrWezjNcy43zt6Hta/3mX8uVHnOFcYwnOf3YeXHqPP7sFjcP/K+U19toilALGue9TuSXbliOHPK6kJm2WnFYMlpxbC1FByZjnme6e2cjJX4yqd94/+9a7OLVwiQRQ+Q7tI/fzSrPytCRIgIESEiZFEiJBg98M+jf3HGJSaaAsSyxl2/cXAczL7sNYVw+epCuOSsBYiNmURJHCPbx38VJAJkkSJkT+mfXSJEhIgQESJCmiNCoj0//vDYR3/hwyaaAsSyxlq/Q7nTTxvOnnp+IVx2dhTkVjTJTDCOkVtLX9tKMdJvyi9AFipA4kOw1s76z4sQESJCRIgIWdAIKX7/tvX5m995r4mmALFs8ddvk0ZHJfHekWsnY8SeEQEyrwFyRemfm+f0/xAhIkSEiBARsmARkr/p0lcXH/36fhNNAWLZ4qzffOYFnQeyq88eza5YGwXxuRyJtLX0dUMpRPpkgACZjwDpLf3z7jn/f0SICBEhIkSEzH+E5IcfGX3/yy820RQgli38+h3JnrJiMLfmbYWw45wGOqdjvvWXvjaVQmSrHBAg9Y6QqC7/HxEiQkSICBEh8xoh0f4nbxz7q1f/XxNNAWLZwq3f58Nj2QUpngvHh2TFh2dd4/CshZNJ+Ovrq1+muVmhmxUGblY4zXr3Pqx9vbtZ4VFj+NwP77VJhoURh8ezbW/63b0tr92a8viIxRcsuiqIr566csPG0leXd4gAmavtdfs/iRARIkJEiAiZtwgp/tP1AgTmWT5zfGcpPN4tPKqGyH2lCFlvOOZX0g/B6hl/I9WTw7EcjlXj86k0p644Y3M4VvLfhw7HKv8Y8fkf7/vpdYFDbeq9zNhYv4ftab3o7WOZ49el6ByPuYqvnLXByerzI9l7QM7sid889T2ez54Qe0JqfD6V5tIVZ2r2hCT/fWhPSNnHiA4O2PsB82Qw97NnPd3+qzeMZU58u/iYkfiH2HcHKzdscViWAJmN+perCBEhIkSEiJC6RUj07I8ECNRZfLjVc21vfOdQ7vT3R0F2hRGZtfXBxPkhaw1FnafSifbgzviNs2Ve/t8Ox3I4Vo3Pp9KcuuKMzeFYyX8fOhzr8O+N/Vn36TVskyyb3Xbc2KRw/cZ7PQ7mfupK4VF320pfl7pa1tzZAzLnfLMnxJ6QwJ6Qada792Ht6z11e0JG9n7NphjqZ0/rRe8Yyp1+tfiYF/FekPgk9R5DIUCqO7OnP5g4kUiEmPyJEBEiQhosQqL9Tzn8CuogPuTqmba3XD1xrgfzqHsyQq4wFAJkOn3z+n8XISJEhIgQETKrCCk+cKs9IDBHQ7kzVj3XetENxbD9LKOxYDaXIuQWJ6gLkGpunfdHECEiRISIEBEyswjJDz9SvOfDj9sUw+ztbfmFCwZzr7iuNKXrNBoLLj4kK75SVrehECDHOrOnL6j35XhFiAgRISJEhMwpQlx+F+YmvsrVSPalVxqJRTVxzznnhQiQCrYtyKOIEBEiQkSICKkpQqJ/+/otNsMwO8+2venKfNi1zkg0hPgwrLtdqleAlHPrgj2SCBEhIkSEiJDqEVIYe7zwlfc+YjMMMxOfbB7HRyFcdqHRaLgIic8JWW8oBMjzzuyJ94As3HWbRYgIESEiRIRUjJBo6Fknn8Ms4mNP6/lXi4+GtkWECJCjbVvQRxMhIkSEiBARUnYMiw6/glnFRxS0rDIaIkSANJdbF/wRRYgIESEiRIQc+XuF0ceLf+/wK5iJgZbzNooPESJAmtFCH4YlQkSICBEhIuTY53PA4VcwE/E5H+7x0bQR4sT01AfIhG2L8qgiRISIEBEiQsZ/z+FXMLP4cM5H00eIS/QKkOCGRXtkESJCRIgISXuEFMYeL/79Hzv8Cmqwt/XcC8RH0zt0id5uQ5HmAJm4KWG/CBEhIkSEiJCFj5Douf4bbXphevtazj5nJPOS9xiJxERIfIneLkOR1gCZcMOiProIESEiRISkNEKi793q/A+YxlDujFXD2W7xkSzxYVhbDEO6A2Troj8DESJCRIgISVuEjB64t/iP1z1u0wuVxZfbPZD7mVJ8ZDqNRuKsDVZuuMIwpDVAzuzpL/2zT4SIEBEiQkTIwkVI9OyjTj6Haextee1lLrebaJtLEdIrQNLrhoZ4FiJEhIgQEZKGCImK+wt/vVaAQBXxeR9OOk+FLWk/HyS9AXJmz9ZgMe4JIkJEiAgRIWmMkP1Piw+oYjjbvcJ5H6nRHaT8fJBMyt8AWxvmmYgQESJCREiCI6T47c80xl5naFCDuZ9z3ke6rE3zTQrTHiDXNtSzESEiRISIkCRGyOiBe6N/+LCTz6GCgdbzLy6GbWuMROqk9lCsdAdIo5yMLkJEiAgRIQmOkOiZHzr8CirIZ47vGM288B1GIpXi+NgsQNLp2oZ7RiJEhIgQEZKUCCmOPl78mJPPoZK9La97l0OvUm19Gq+KJUDO7NkWLOad0UWICBEhIiTJEbLvSfEBFQzmXrmmEHa66hWp2wsiQCZc25DPSoSIEBEiQpo5QqLi/uJX/vRGmxgobzh76m8YBYL4LukrN6wXIOmzNWiUS/KKEBEiQkRIUiJkaOCu6Ptf22cTA8fa23ruRU48Z4rNaTohXYDEzuwZCBrpkrwiRISIEBGSgAgpfmvrh2xgoLzRzIvs/WCqOD6uECDpc21DPzsRIkJEiAhppgg58Nwt0fbrXHoXyoj3fkRBdoWR4CiXp2UviAA5ZOKSvFtFiAgRISJEhMw9QqJd33byOVRg7wcVpGYviAA50qaGf4YiRISIEBHS6BES33jws++61yYFjmXvB9NIxV4QATJVM+wFESEiRISIkAaPkOjRHc79gEp9nllxsVGgijg+1gqQ9NnUFM9ShIgQESJCGjFC7P2AiuL7fkRByyojwTSuEiBp0yx7QUSICBEhIqQBIyR69Jv2fkAFw9mV9n5Qi+6k3x1dgJS3qWmeqQgRISJEhDRKhIwN3Rt95rJ/sgmBcvHRfXIxXPqfjAQ1ulyApE0z7QURISJEhIiQBomQ6NEdf2UDApUC5GXnGAVmYG2ST0YXIJVtaqpnK0JEiAgRIYsZIaND90afvsy5H1DBWObEtxgFZmi9AEmbZtsLIkJEiAgRIYsZIY9+094PqGAod+Yql95lFi4RIOm0qemesQgRISJEhCx0hBzcd5e9H1DZcPbUC40Cs9ATrNzQLUDSZmIviAgRISJEhIiQas/5ni1/boMBlRXCTiefM1uJvCeIAJneNaWvAREiQkSICBEhZZ7zgeduCb7+4cdtKqC8ycOvTjYSzFIiD8MSINM5syeOj01N+dxFiAgRISJkPiMkKuyLbnmvvR9QxUjmRT1GgTnoSeLVsARIbRES7wXpFyEiRISIEBEy5c/seeLG4KGv7bORgMoKYZfDr5irXgGSXhua9pmLEBEiQkRIvSOkMPZ4dPXrXfkKplEM29YYBebozQIkrc7s2Vb6Z58IESEiRISIkJJd9zn0CqYx2PJK8UE9JO4wPgEyM5c29bMXISJEhIiQekTI6NC9wV+/4y6bBKhuLHyh8z+oT4Ak7DwQATITzXpZXhEiQkSICKlnhGy//g9sEGB6hXDJKqNA3SJEgKRa856QLkJEiAgRIXN9Hw489lfB1z78mE0BTK8YtjsEi3rpFSBpNnFZ3g1N/zpEiAgRISJkpu/DQv7x4G//zw02BDC9scwJnaVpVqeRoE4SFbMCZHYREp+Qvk2EiBARIkJS9T78/j/8QfDgXS67CzUYyXY7/Ip6cggW4+K9IANN/ypEiAgRISKklvfh8P67ghve9U8++qE2TkCnzroFCMk4IV2EiBARIkJqeR9GxX3BTX/oxHOYgSjMdRgF6mrlhsRErQCZW4TEJ6T3iRARIkJESKLfh/3fdegVzFAxaH+ZUaDOEnMpXgEyd/G9QQYS8UpEiAgRISLkaMP77wo/8nb3/IAZikInoFN3vQKECUk6FEuEiBARIkKmfl9U3Bfe9EcOvYLZBEjQ4iR0ECDzGiHJORRLhIgQESJCDn3fj777B8EDDr0CaBCnCBCOlpxDsUSICBEhImT80Kt3OPQKZmE4232yUWAedAsQjjRxKNaGRL0mESJCREg6I2T80Kv3/r4PdpidfOaEFUYBBMhCRcjWIAk3KBQhIkSEpDtCHt7+ruB7X3XoFQACpEnEh2L1ixARIkJESFO+D/c/vTX8pBsOAjSgbgFCeWf2DExGSLKIEBEiQpIfIfmRhzObzv0zH+QAAkSANF+E9AVJujSvCBEhIiT5ERKf9/H1T1zmAxwAAdK8EbIxSNKleUWICBEhyY6Q/vt+P7zjQ4/78AZAgDS3dUGSLs0rQkSICElmhOz7962ZD7nkLgACpPlNnA9yXiJfmwgRISIkGRESn/exsdd5HwAIkARFyM4gafcHESEiRIQkI0Li8z4+/Xtv90EN0BT6BAgziZBrSv/cKkJEiAgRIY30Pgwe/sfLwn+5y/0+ABAgCRXvBdkpQkSICBEhDfE+fLr/TzMfd78PAARIck2cD5LMk9JFiAgRIc0VIQf23Jz98zdu9cEM86Nz7Dv3GwUQII0SIf1BUk9KFyEiRIQ0R4TkRx7Ovve1v+cDGaDpbBcgzDZC4sOwLk3s6xMhIkSENG6EFPOPZz71B2/zQQwLoThoDECANFKEbA2SeKd0ESJCREjjRkh8xavv/P07w/u/6qRzWIgJVjT2qFGgzvoFCHONkI1BUq+MJUJEiAhpuAgJH/7GZZnPvPdhH76wUAr2gCBABEhDRkh8KNbOxL4+ESJCREhDREj4xCO/n/mYK17BQspGB+0Bod4SM2cUIIvvPBEiQkSICJm39+FzP/nL7Pve+iUftbDQAbLvB0aButq1OTFXUhUgi23i8rxxhAwk9jWKEBEiQhYnQg4MfCm38cK/9EELCy8X7X3SKFBHfUl6MQJEhIgQESJCkhghcXz84etcbhcWydL8gw7Bop4SdbSMAGmcCNkpQkSICBEhdYmQ/MjDuT8QH7Dok6xoxA0JqZdEvZcESGNGSHKJEBEiQuY3QvKjD2dv/KNf94EKjTDJGnYeCPViDwjzHiGXJvo1ihARIkLmJ0Im4yO87073+oAGkI0GHYZFPQwEuzYLEOY9QraKEBEiQkTIjCIkjo8bxAc0krZCv0OwqIe+pL0gASJCRIgIESHNHiGTez4y4gMaSnuh/8kwKLgaFnO1XYAgQkSICBEhjRMh+ZGHsje899cy3xUf0JATreigvSDMVZ8AQYSIEBEiQhojQvKjD2Vv/ONfz3z3jv0+LKExtRSfvscoMAf9STv/Q4CIEBEiQkRIs0bIofj4zh32fEADWz62Q4AwF31JfFECRISIEBEiQpotQuL4uEF8QNNMtqIhEcJs3SpAaIQIeUXgZoUiRISkN0IKow/lxAc0lZZojwBhNuLL724TIDRChLhjuggRIWmNkOHBr+a2ig9oNh3575UCpDhoJJihbUl9YQJEhIgQESJCmiFChvZ+qXXDa39LfEDzyRWfPZCNhnYYCWboBgFCI0bIqaWvnYl9jSJEhIiQCQf2frH13ee+xwcfNK+2wmN3GAVmIL76VZ8AoREjJN4Dcp4IESEiJLkREj7xg/eID2h+nfnv3B8GhaeMBDW6NskvToAkIULO7IlPTN8qQkSICElQhETFfeFP/u09LX/y1i/6oINkaCk+8yWjQI22JvnFCZDkhEh8id5rRIgIESEJiJBSfGT++Y5fa9n0K+IDEqQz/907nYxOTfGxa/NAkl+gAElWhGwIknyvEBEiQtIQIYXRh7J33PDGlk/80UM+1CBZcsXnBp2MTg02Jf0FCpDkRcjWIMn3ChEhIiTJETJ84M6WLVf9Wu6Wv3zMhxkkU0f+/huNAlX0Bbs29wsQmjFCdk5GSDJPThchIiSBERIOPHVN2/987W9l/vl2l9mFBGsv9D+ZjQbvNBJUsCkNL1KAJDdC4nqOr5C1VYSIEBHSwBESn2z+owd/s/X3fukaH1yQDvaCUEFfki+9K0DSEyEDkyenbxAhIkSENGCE5Ecfynz7q7/a+ufv8NNQSBF7QahgU1peqABJR4jEP1lN5nkhIkSENGuExOd7bN30qy1//YdONocUmtgL4opYHLY1LXs/BEi6IuTQndOT9+YWISKkySIkfHr3n7T/9ut+M/tPtznfA1Iq3gvSUtxzs5Fg0qY0vVgBkq4IiQ/JOi+Rb3IRIkKaIUIKhcey/3zHf277wzd/0gcSsCx/783ujs74vCwFV74SIEJkYzBxgnqy3uwiRIQ0coQMD93ZsmXjG1o+5v4ewIT4viBthV3XGYlUi+diqbsIiQBJb4T0BRPnhWwTISJEhMxjhMRXufrJD9/d/j9e99+z3/yKQ66AIywf27Ej4+aEaXZp0u96LkA4OkLiQ7LWBRN3T0/Om1+EiJBGiZD82EO5Oz/zhrY//pUv+sABKunM33edE9JTaVuaTjwXIBwdIluDib0hyflLIEJEyCJHSDjw9DVLfvPsN7R8/hp3NQeqai/0P9VWfOIjRiJV4h/8XprWFy9AOBQh/ZMnqG8IkrI3RISIkMWIkPzYQ9l7v/qG9t99w2YfLECtjhvdfqdDsVJlXRoPvaq6+SflHtzZXfrnltJXbyJez5SZZaXeqDgjPmYuXK4ays29p/u+sHrbRNXq4+jXEVZ8Ls//XljlMcq/tvJjFVZ5jGNGucoYTLM+KoxhOMPnM/EdtT+fSm13aAwrP8bkrwPPbG6/Yjw8wll+7i70sqCJnqtl1m/il+Uzx3c+13rRp4Ig02kykmjXlOJjQ5oHQIBQLUSuKP3zqtJXlwgRISKkSoTE53rc9w+/2/rhP3jIBNUy69eyuSwbzL1yzVDupz9gEpJYO0vx8Yq0D4IAYboI6S79M/6J7loRIkJEyFEREl/h6pknNy+58s2fMEG1zPq1rF7LBlrPv3g0s+Iyk5DEiQ+5ekXa7vkhQJhLiKydDJFuESJCREgY39fjjtz2bZtaP7v5MRNUy6xfy+q97Nm2N72nEC670AQkUc5L61WvBAhziZD4UKxDh2WJEBGSzggpFB7L7P7Bxvb/9Y47TVAts34tm69l8fkge1rP/0AUtKwyAUmE+H4fWw2DAGH2IdIdNPtJ6iJEhMw0QorRvnDvs59o+cJ11+f+8e/2maBaZv1aNt/LnJSeGFtL8XGpYRAg1CdEmvuwLBEiQmp9PkODXyhFxwdbP/3Bx0xQLbN+LVvIZUO5M1YN5tZcLULEhwCBI0NkY+mflwfNeLUsESJCqj3OyMg3sz98aHP7n73zmyaollm/li3WMhHStHYGE+d9DBgKAcL8REgcH/G5IVeIEBHS9BFSLDyWeerxDy55z698wQTVMuvXskZYJkLEhwCByiHSPRki60WICGm6CClG+zJP7t5YCo+bTFAts34ta7Rlg7mfXTOUe/lVIkR8CBCoHCLNdf8QEZLeCIlK4bF3z/WtX/jo9bm+L+8zQbXM+rWsUZfZEyI+BAhMHyK9wcQekV4RIkIaLkKi+MpWz13fetNHr2/p+9t9JqiWWb+WNcMyEdKwtgUTl9sVHwKEBgqRS4JmODRLhCQ/QuJL6u4rhccX/vrjLV+/db8JqmXWr2XNtkyENBxXuxIgNHCIdAfNcI6ICElmhBSLu8M9z1zfevMnbyqFxz6TG5M769eyZl6/+czxy/a0nv9+NytcdJtK8bHRMAgQmiNELp8Mkca8fK8ISU6EFAq7M//+xAeXbvgvN5nAeP3Wr2VJWr/xzQr3trz2nYVw2QUmFwsuPtRqgzucCxCaL0Ti+Igv3RsfntUtQkRIXSNkbPSb2R99/y+W/q/f/KYJjNdv/VqW5PU70Pr6daOZk99pYrFg+ktf60rxsdNQCBCaO0bWT4ZIrwgRIbOOkPjE8uGh23Pf+OpftF///t0mKSao1q9laVm/g7mfPctleheEk80FCAkMke5g4jyR+BK+jXF4lghp/AjJ5x/MPP3kx1v/9rO3t9y1bZ9JigmqZcYmjes3PiRroOXcdxfDpeeYUNRdHBzx+R7XGAoBQnJDpGsyQuJzRXpEiAg55nGjIN7bcVvukX/5+JL/8+6HTFJMUC3z+q3fyZly6+svHs2c9PYgyHSYUNRFXzCx16PfUAgQ0hMj3ZMhEgdJtwhJeYSMje7IPPf0Ta1f/pvbWu+82dWsTFAt8/qt3zLLRrKnrNif+9l3FsOlZ5tIzJq9HgIExmMkjpA3B4t1iJYIWZwIKRZ2Z/Y89/Hcd795e/vH3rfbRMQE1TLr1/qt7c/ua3nNOSPZ7t+KguwKk4gZic/12GCvhwCBxogREbIgERIWirvDgwduz/7bw59f+qe/+4CJiAmqZdavZbP7s/G5IftzP792LHP8OodlTSsOjvhwqz5DIUCgsWJEhMxPhOTzD4YjB3dk//Whz3f86bsfMNkwQbXM+rWsfn82PixrMLfm7e4bUjE8NrmvhwCB2cZI75QY6RYhDR4hY2M7wsF9t7Xcd+9tSz7054+ZbJigWmb9Wja/63cyRN4mRA6Hxw3uZi5AoJ4x0j0ZIudO/ipCFjtCisXdmZHhHeGzT9/WesetO9r+7gt7TShMUC2zfi1b+PX7fIh0nJPCQ7Pi8LDHQ4DAggRJbzBxs8Nzg3rd9FCEVI+QUnCEoyP3hPv37ch9b+eOpX/5Z7tNKExQLbN+LWuc9ZvPvKBjf+5V6/KZrvOjIJf0k9Xjk8vjPR7bTIoECCx2kKyZ/HV254+IkOcjpJB/IBwbeyDcVwqOB3fes/SaY4LDhMIE1TLr17IGXb/7W15z9mjmpLML4bLzE7S17x+PjiDY6qpWAgQaMUjimx72TAZJTzCTvSRpjJB470Z+7IFgZOSBzNP/fk/r9rseaL/lc3tNGkxQLbN+LWvu9RvvFTmQXX12PnNCKUaa8l4icWgc2tux0wRHgEAzRkn3ZJCcO/nv3amLkLH8PWG+sDvIj+3KPP3UPa19dz3YfvPn9poYmMBYZv1aluz1W4qRzoPZl581mjnpNcVwyeoGPkwrDo1bx8NDdAgQSEGYnHI4TKL41yaNkHzhnvHvHj4Yx8be8LlnH8ju/vHuzvf/yS4bfxMYy6xfy6zf2Eh25YrhzCmrS2Gyuhi0nRaFractwlZ4YDI4tk/+2leKjgGTEwEC6fVAfPWtMA6SrjAOlIkJ/qFICZ4PlQWKkHz+nsPfNTz8jYlzNQp7M3ueeyBefty7/us9NvAmMJZZv5ZZv7NdNpjrWV0Il60ohktOKoZLT4uCbEcxbF9dhy1q/5SvH4+HRvzvzuUQIMDMnXTSSfHfwUz878996lPHFV70orPKB0gwfoJ3tQCZ+As9+T1j+b0n/PKF32vgz4KkP54xtQ49nnXo8aYoxUnHUO7MmewlGXAIFQAAAAAAAAAAAAAAAAAAAAAAAAAAAAAAAAAAAAAAAAAAAAAAAAAAAAAAAAAAAAAAAAAAAAAAAAAAAAAAAAAAAAAAAAAAAAAAAAAAAAAAAAAAAAAAAAAAAAAAAAAAAAAAAAAAAAAAAAAAAAAAAAAAAAAAAAAAAAAAAAAAAAAAAAAAAAAAAAAAAAAAAAAAAAAAAAAAAAAAAAAAAAAAAAAAAAAAAAAAAAAAAAAAAAAAAAAAAAAAAAAAAAAAAAAAAAAAAAAAAAAAAAAAAAAAAAAAAAAAAAAAAAAAAAAAAAAAAAAAAAAAAACkVWgIYPGcdNJJ2dIvS2fw93KhlzXa87HM+rXM+rWsCZ7rYK5ndRS2deTD406LlxXDpadGQbZj6vcUw/bVU/6zf/Jrqp2lr72lr4HJfx8Idm3eafYgQAABYpkJjGXWr2UpXb8j2ZUrhjOnrC5klp1WDJacVgxbS8GR6ZjnzefOyVi5v/TVN/7fuzYPmFUIEECAWGYCY5n1a1nC1m8cHAezL3tNIVy+uhAuOWsBYmMmURLHyPbxXwWJAAEEiGXWr2XWr2XNuX6HcqefNpw99fxCuOzsKMitaJJNbBwjt5a+tpVipN+MQ4AAAsQy69cy69eyBl6/TRodlcR7R66djBF7RgQICBABYpn1a5n1a1kjrN985gWdB7Krzx7NrlgbBfG5HIm0tfR1QylE+sxCBAgIEBMYy6xfy6xfyxZh/Y5kT1kxmFvztkLYcU4DndMx3/pLX5tKIbLVbESAgAAxgbHM+rXM+rVsAdbv8+Gx7IIUb4rjQ7Liw7OucXiWAAEBYgJjmfVrmfVr2Tys31J4nCw8hIgAAQFiAmOZ9WuZ9WvZvK7ffOb4zr0tr/0t4VFVf+DQLAECAsQExjLr1zLr17K5/dk9rRe9fSxz/LoUneMxV/GVszY4WV2AgAAxgbHM+rXM+rVsBn92MPezZx3M/dS7oyDb7JfSXSxbJ0PEYVkCBASICYxl1q9l1q/1W2lBPnP8sn0tZ789H3attbWdszg+Li1FyDZDIUBAgJjAWGb9Wmb9Wr9HmdzrcaW9HnW3bTJE7A2Zo4whAABIhj2tF71jKHf61eJjXsR7k+4LVm7oMRQCBAAg1eIrXD3T9parxzInvt1ozKvuyQi5wlDMnkOwYBE5BMsy69cy69eyua7fodwZqwZza94fBJlOW9YF5ZCsWbIHBACgSe1t+YULBnOvuE58LIr4kKy7g5Ubug2FAAEASLzn2t74zpHsS680EosqPh/EeSECBAAg2Z5te9OV+bBrnZFoCF3BxJ4QlzwWIAAAyRKfbB7HRyFcdqHRaLgIuaUUIesNhQABAEhMfOxpPf9q8dHQtogQAQIAkJj4iIKWVUZDhAgQAADm1UDLeRvFhwgRIAAAzLv4nI9i2H6WkWjKCHFiugABAGiu+HDOR9NHiEv0ChAAgMa3t/XcC8RH0zt0id5uQyFAAAAa1r6Ws88ZybzkPUYiMRESX6K3y1AIEACAhjOUO2PVcLZbfCRLfBjWFsMgQAAAGkp8ud0DuZ8pxUem02gkztpg5YYrDIMAAQBoGHtbXnuZy+0m2uZShPQKEAAAFl183oeTzlNhS9rPBxEgAACLbDjbvcJ5H6nRHaT8fBABAgCwyAZzP+e8j3RZm+abFAoQAIBFNNB6/sXFsG2NkUid1B6KJUAAABZJPnN8x2jmhe8wEqkUx8dmAQIAwILZ2/K6dzn0KtXWp/GqWAIEAGARDOZeuaYQdrrqFanbCyJAAAAWwXD21N8wCgTxXdJXblgvQAAAmDd7W8+9yInnTLE5TSekCxAAgAU2mnmRvR9MFcfHFQIEAIC6i/d+REF2hZHgKJenZS+IAAEAWED2flBBavaCCBAAgAVi7wfTSMVeEAECALBARjMrLjYKVBHHx1oBAgDAnMX3/YiCllVGgmlcJUAAAJiz4exKez+oRXfS744uQAAA5j0+uk8uhkv/k5GgRpcLEAAA5hAgLzvHKDADa5N8MroAAQCYZ2OZE99iFJih9QIEAIAZG8qducqld5mFSwQIAAAzNpw99UKjwCz0BCs3dAsQAABmpBB2Ovmc2UrkPUEECADAPJk8/OpkI8EsJfIwLAECADBPRjIv6jEKzEFPEq+GJUAAAOZJIexy+BVz1StAAACoSTFsW2MUmKM3CxAAAKY12PJK8UE9JO4wPgECADAPxsIXOv+D+gRIws4DESAAAPOgEC5ZZRSoW4QIEAAAqimG7Q7Bol56BQgAABWNZU7oLE2zOo0EdZKomBUgAAB1NpLtdvgV9eQQLAAAKnMCOnXWLUAAAKgoCnMdRoG6WrkhMVErQAAA6qwYtL/MKFBnibkUrwABAKizKHQCOnXXK0AAACgfIEGLk9BBgAAAQNM6RYAAAHCM4Wz3yUaBedAtQAAAOEY+c8IKowACBAAAECAAAEANugUIAAAgQAQIAAAgQAAAAAFiCAAAAAECAAAIEAAAYMH1CRAAAAABAgAACBAAgBToHPvO/UYBBAgAADSz7QIEAIAKioPGAAQIAMDCTLCisUeNAnXWL0AAAKigYA8IAkSAAAAsjGx00B4Q6m2nAAEAoEKA7PuBUaCudm0eECAAAJSVi/Y+aRSoo74kvRgBAgBQZ0vzDzoEi3ramaQXI0AAAOZjkhWNuCEh9ZKo95IAAQCYl0nWsPNAqBd7QAAAqC4bDToMi3oYCHZtFiAAAFTXVuh3CBb10Je0FyRAAADmQXuh/8kwKLgaFnO1XYAAAFDbRCs6aC8Ic9UnQAAAqElL8el7jAJz0J+08z8ECADAPFo+tkOAMBd9SXxRAgQAYD4nW9GQCGG2bhUgAADMSEu0R4AwG/Hld7cJEAAAZqQj/71SgBQHjQQztC2pL0yAAADMo1zx2QPZaGiHkWCGbhAgAADMSlvhsTuMAjMQX/2qT4AAADArnfnv3B8GhaeMBDW6NskvToAAACyAluIzXzIK1GirAAEAYE4689+908no1BQfuzYPCBAAAOYkV3xu0Mno1GBT0l+gAAEAWCAd+ftvNApU0Rfs2twvQAAAqIv2Qv+T2WjwTiNBBZvS8CIFCADAArIXhAr6knzpXQECALBI7AWhgk1peaECBABggU3sBXFFLA7bmpa9HwIEAGARxHtBWop7bjYSTNqUphcrQAAAFsGy/L03uzs64/GRgitfCRAAgEUW3xekrbDrOiORanF4XJO2Fy1AAAAWyfKxHTsybk6YZpcm/a7nAgQAoMF05u+7zgnpqbQtTSeeCxAAgAbRXuh/qq34xEeMRKrEez0uTeuLFyAAAIvsuNHtdzoUK1XWpfHQKwECANBAusa2X+1QrFS4Jq2HXgkQAIAGEl8Va2n+XzcaiUTbWYqPDWkfBAECANAgOvPfub+1+JTzQZIpPuRqnWEQIAAADaVr9K6bs9H+O41E4qxL2w0HBQgAQJM4buwbHwmDsUeNRGJcmvbzPgQIAEADi88HecHoXVc6KT0RtpbiY6thECAAAI0eIQc68/e/R4Q0fXxcahgECABAU1iaf+hREdK0dpa+NhgGAQIAIEJYiPg4L803G6wmawhg8XR0dMQ/BGg56rfDKn9koZc12vOxzPq1zPpN5bKW4tN7oqD1kbHMCeeUfrvVFlR8NDN7QAAAmkBn/rv32xMiPgQIAAALxuFYDW2b+KiNQ7BgETkEyzLr1zLr17KZLosPxwqD4rdHMyt6HY7VMOKrXf1asPdbw4ZievaAAAA0mXhPyPGjd1ziZoUNYZNL7c6MPSCwiOwBscz6tcz6tWy26zcTHRxrK/5k+2jm5OOjsG2VreqCiw+1uqwUH9cYCgECAsQExjLr1zKvPxXrtxQho0sL398xljnpQCHs/Dlb1gXTX/p6Qyk+bjcUAgQEiAmMZdavZV5/6tZve+FHj0RBy7+4TO+C2DYZH/2GQoCAADGBscz6tczrT+36bS3+5Km24hNfGcm8+KVR2PJSW9m6iw+5+sNSeGxwsrkAAQFiAmOZ9WuZ12/9BuPnhYwuLTyyfSxz0lAhXHq6vSF10xc45EqAgAAxgbHM+rXM+rV+y4sPycpF+0shcuLJ9obMyaG9HpcFe/9/9u4lt2koDAOofW0ejRMBRXJmVMoEJGRgUtQwLnMyhgk7YSllB7CDMmPIClDYQVFaoCUPfKPwGACikJA0PUeKWulTY9W/It8vN5Ffu7+HAgIKiAWMzHxl5mu+v8ryyfujuBsySou3o3DlVpKEpivvqcTvevTsesxf6hTA8pRlGd8EaFjAyMxXZr6yRc53GDabg3z70eew2auLSOEK/Fv9+vG0Lh77ToUCAgqIBYzMfGXmK/uHvz3OttqH+d0no7T10FX4p8Uj3lRwz6lQQEABsYCRma/MfGVzfN5ZEXmsiHwrHs/r4vHMqVBAQAGxgJGZr8x8ZQt83u9FpHhwDj+aFYuHHQ8FBBQQCxiZ+crMV/a/5zsM14pBfr83DFd3J0neXvPLb/xyedzxeGElooCAAmIBIzNfmfnKljzfwYWd7kkou6O0tbtGl9z+tHQkyZ47mCsgoIAoIDLzlZmvbAXnG3dFjrKqOwzX6zLS6J7R0vF1t+ONVYcCAiggMvOVma/sjMy3LiPNj9nNOyeh3BmnG9UKf0wrFo2X0+KhdCgggAIiM1+Z+crWY77H2Y32p7BV1cWkGieXOpP0YmcJl9GDWeF4Nfu5X5cOdytXQAAFRGa+MvOVnYf5Hub3qlHaao/TjXKcNjqTJCvG6eVqDpfL/g+Pd9OiEX/3XQ4FBPirAhJfg2EFXpuO5390POfUDB1vYcery0nxIb99ml2SAx+hAgAAAAAAAAAAAAAAAAAAAAAAAAAAAAAAAAAAAAAAAAAAAAAAAAAAAAAAAAAAAAAAAAAAAAAAAAAAAAAAAAAAAAAAAAAAAAAAAAAAAAAAAAAAAAAAAAAAAAAAAAAAAAAAAAAAAAAAAAAAAAAAAAAAAAAAAAAAAAAAAAAAAAAAAAAAAAAAAAAAAAAAAAAAAAAAAAAAAAAAAAAAAAAAAAAAAAAAAAAAAAAAAAAAAAAAAAAAAAAAAAAAAAAAAAAAAAAAAAAAAAAAAAAAAAAAAAAAAAAAAAAAAAAAAAAAAAAAAAAAAAAAAAAAAAAAAAAAAAAAAAAAAAAAAAAAAAAAAAAAAAAAAAAAAAAAAAAAAAAAAAAAAAAAAAAAAAAAAAAAAAAAAAAAAAAAAAAAAAAAAAAAAAAAAOAPfBFgANcWvksIhQ2KAAAAAElFTkSuQmCC;" vertex="1" parent="1">
                    <mxGeometry x="438.5" y="157" width="23" height="23" as="geometry"/>
                </mxCell>
                <mxCell id="55" value="plugin" style="rounded=0;whiteSpace=wrap;html=1;rotation=0;fontSize=12;fillColor=default;strokeColor=#6c8ebf;" vertex="1" parent="1">
                    <mxGeometry x="470" y="168" width="50" height="40" as="geometry"/>
                </mxCell>
                <mxCell id="58" value="plugin" style="rounded=0;whiteSpace=wrap;html=1;rotation=0;fontSize=12;fillColor=default;strokeColor=#6c8ebf;" vertex="1" parent="1">
                    <mxGeometry x="470" y="247" width="50" height="40" as="geometry"/>
                </mxCell>
                <mxCell id="75" value="..." style="text;html=1;strokeColor=none;fillColor=none;align=center;verticalAlign=middle;whiteSpace=wrap;rounded=0;fontSize=18;rotation=90;" vertex="1" parent="1">
                    <mxGeometry x="870" y="306.5" width="60" height="30" as="geometry"/>
                </mxCell>
                <mxCell id="77" value="Generate each PVP policies from compliance" style="text;strokeColor=none;fillColor=none;html=1;fontSize=12;fontStyle=4;verticalAlign=middle;align=left;whiteSpace=wrap;" vertex="1" parent="1">
                    <mxGeometry x="396" y="109" width="164" height="40" as="geometry"/>
                </mxCell>
                <mxCell id="78" value="Generate compliance assessment results by aggregating each PVP results&amp;nbsp;" style="text;strokeColor=none;fillColor=none;html=1;fontSize=12;fontStyle=4;verticalAlign=middle;align=left;whiteSpace=wrap;" vertex="1" parent="1">
                    <mxGeometry x="395" y="351.5" width="225" height="40" as="geometry"/>
                </mxCell>
                <mxCell id="71" value="..." style="text;html=1;strokeColor=none;fillColor=none;align=center;verticalAlign=middle;whiteSpace=wrap;rounded=0;fontSize=18;rotation=90;" vertex="1" parent="1">
                    <mxGeometry x="470" y="306.5" width="60" height="30" as="geometry"/>
                </mxCell>
                <mxCell id="85" value="" style="shape=image;imageAspect=0;aspect=fixed;verticalLabelPosition=bottom;verticalAlign=top;strokeColor=#000000;fontSize=16;fillColor=none;image=data:image/png,iVBORw0KGgoAAAANSUhEUgAAAyAAAAMgCAYAAADbcAZoAAAAGXRFWHRTb2Z0d2FyZQBBZG9iZSBJbWFnZVJlYWR5ccllPAAAT9BJREFUeNrs3Ql4XXd9J/z/1WLZltcscjY7ihMgKzFLKQmbQimQ0ilOp9CXvi047dOFt9Mm7rTP8z6dtom7zEyBGSedDgX6tnamZesMxKFAgVIiU0iclBA5sbMRYsUJWZTElrxquzrvOfdeObIt2bJ079U953w+z3NyJZ0b2/d37nK++v3/5x8CAAAAAAAAAAAAAAAAAAAAAAAAAAAAAAAAAAAAAAAAAAAAAAAAAAAAAAAAAAAAAAAAAAAAAAAAAAAAAAAAAAAAAAAAAAAAAAAAAAAAAAAAAAAAAAAAAAAAAAAAAAAAAAAAAAAAAAAAAAAAAAAAAAAAAAAAAAAAAAAAAAAAAAAAAAAAAAAAAAAAAAAAAAAAAAAAAAAAAAAAAAAAAECtFJQAID9O/2xf1/jXUYjWxJ8CyybsPj/+vvPlb6MjnxJR+Sa575qXPzmi8U+S/vi/PUd+cuz+8s+2Hv3pE/XEe/sr3/UPXHduj6MDIIAAkBJn/P0LpTARn9QnASLZlsbfr6mEgDWl8HDMO345LEQn+FQ4LoAcc5/ouP/nBAHkmL8nmuLPDL2lrfzvGg8t5bBSCD37fua8fkcbQAABoB4h4+9eLAeJELrCkW5FNB44Su/ox5/UTx0CGjSAHNl//L/1yLc98U/6K12V8e5Lz75/t1I4ARBAADhVZ972Ume5e1HqYFyZBIyo/P0k7+BHn+TnJIAc9W+b8Gf0R+VwkgSSJ0vBpBB69r9nlWACIIAAUAobm/d0xifMXfG78ZXlwFHqbhx3sh0VpnoHF0COf/zH/b29odwl2R5/350ElP0/db5QAiCAAGRbx6Y9y46EjEJ4WzQ+N2OKk2kBpGoBZLKa9Mb/7Y6/3x5/3X3g2vNNggcQQABSHjj+dm95vkYhelsodzbWTB4WBJA5CCDH/pnluSSleSVR94F3d3Z7BgMIIAANbcXflANHHBaODhzHnuQLII0YQCar2ZZ42xrXvvvguzp1SAAEEIAGCB3/X39y+ds4bETvrYSO48OCAJLWABImHM/+ciCJtsb32XLwnReYQwIggADULXSsjW/GA0fnsSetAkgmA8ixf2/SEbkjCSVxGNEdARBAAKrnrL8eWBafLpdDRyGsPVkQEEByEUAm6k26IkkgOfiTF3R7xQAIIACnHjo+NZDM51gbv0smnY610SQn2wKIAHL844/KQ7UK4Y5D71i9xSsJQAABOHnoKA+vWjvxXVIAEUCmGUCOvbJWEkJujcOIYVoAAghAJXh8cl8cNqIPhXLHY9J3SQFEAJlBAJl4n95yGIluPfQTF/Z61QECCEDOnP2JfWviE8skdKwL44sBTnlCKoAIILMOIBMfSbLeyK3xV1sOv/1CV9MCBBCADIeO8SFWN4RkjY5jQ4AAIoDUJ4BMPFab4+22OIh0e4UCAghAVoLHX+1fUwodhdKVrJZNGQIEEAGk/gFkXG/8mG9NAsnhay7SFQEEEICUBo91YbzbMcXJtgAigDREADn6790cb7fGQcTEdUAAAWh053x8f2dUntdxQ/wOt+yEQUAAEUAaM4CM/6ynFES6LtrslQ0IIAANFzwOdFWuZLUumuZJrQAigDR4ABn/P3rjm9vimtwy+LZXGJ4FCCAAcxo8/mcSPMJN8dY1ftIqgAggGQsg4zUZX1dkQxxEer36AQEEoL7BY10leHQee9IqgAggGQ0gE/dujvdvGHyrIAIIIAC1DR5/WQkehQnBQwARQPIXQMb3l1Zaj4NIt3cHQAABqGrwOBgHj+jljsekJ3kCiACSuwAyLg4g0YbBt75SEAEEEIDZOPd/JMEj3BQd6XicKAgIIAJIbgPI+PMkCSAbht4iiAACCMCMgkeodDyiwkmCggAigAggE/+tydCs9XEQ6fVuAgggACcKHn9xMFmtfOOxczwEEAFEADmlADJ+n80h6Yi8WRABBBCAY4LHoa5Q6nhEXZOeLAsgAogAMpMAMr7vlnIQeZV1RAABBMh58Lj1UGcodzzWnigICCACiAAyqwCS/Kc//v7WoTe96mbvPIAAAuTOebceWhaSyeUh3Hiyk1oBRAARQKoSQMa/742/Wz/8pldt8U4ECCBAXsLHupB0PUJYFk3jpFYAEUAEkKoGkPHvukM5iPR4VwIEECCbweOWw13xqU8y3GrNcaeoAogAIoDUO4CMf39LsobI8NUXmx8CCCBAZoJHMtwq6XisO/YETgARQASQOQ8gyU+S8LE+DiGbvWMBtdakBEBNw8fGw8kcj13l8AE0qOSXBJvm3fXInfPufmSNcgC1pAMC1Cp4JCcxSdej60S/udYBOb4mx/89OiA6IKHWHZBj/58N8XbL8FWGZQHVpwMC1CJ83Bzf3F8KH0Aa3ZS8hufd/YjXMFB1OiBA1az874NdySTzaMIk8+PfaXRAJv27dUBOWDMdkFDvDsjEx1+apD7yxkt0QwABBGiY4FFa0yOU1vQ40UmQACKACCApDCDJf3vj/1wfh5Bu73jAbBmCBcw2fHSF8nCrG1UDMqsz3u5s3fbwxnhbphyAAALMTfj4b4M3JycllZMTIPtuDIVwf+s9D3cpBTBThmABMwkeyRyPTfG25tSGgZT3G4IVDMEyBCttQ7Am23/LyI9fst47InCqdECAUwwfQ8lQq/tL4QPIsxtb73n4/tZ7HvJeAJwSHRBgesHjY0PJuO/b43eNrhP+hlkHRAdEB+QEn7aZ6oBM/HetH3nDpbd4pwSmQwcEOKlVHxuKQ0dpNfMu1QAmsbHl3odujzcT1AEBBJh1+Lg5vrmzEIITC+BE1sbbrjiEdCkFcCKGYAGTB4+PThxyVfbykBVDsI6/jyFYRz9HTvI8MQQra0Owjn08G0Z/7NKbvZMCAggw3fDRVQofSddj0pNLAUQAEUAEkBMGkMSWeLs+DiJWUAeOYggWcEz4GL45lNf2MOQKmI1kSNb9Lf+201WygKPogADl4PGR4SRwbIrfFdZO9dtOHZCgA3KSY6UDogMyyfOoP/5+/ejrL9vsnRZI6IAASfhIfkOZdD3WqgZQZaVfbrR8b+cmpQASOiAgfCShY1MYH3J1gt926oAEHZCTHCsdEB2Qk7zme+LtmtHXX2ZeCOSYDgjk2PkfGU5WNb89mO8B1EfSbb2/+XvmhYAAAuQvfPz5cNL12KgSQJ11xtudzfftNOQTcsoQLMhd8BhZFkKUzPdYc9wwkCPvCoZgHftvNwRrsvsYgnX84zcEK0zjWE34d64vvu6yW7wzQ77ogEC+wkdp+EMoD4MAmGsbm+/bYXI6CCBAJsPHfx0Zv9JVp2oADWRdHELubP7+DnPRQAABMhQ+1oVy58MHPNCIukIyL0QIAQEEyEz4MMQBaHTlK2R9f4choiCAACkOH5uEDyBFOkO5EyKEgAACpC58/JdS+FinEkDKLCuFkPt3dCkFCCBAasLHqPABZCCEPOh9DDKoRQkgOzr/y2jpQzve1kTKAaTfpqb7Hwxjr7lis1JAduiAQAbDh2oAGQsh65QBBBCgkcLHfxY+ACEEEEAA4QOgOgpxCOl58GaFAAEEED4A6uWmOIS4tDgIIIDwAVA364QQEECAeoePPysKH0DeQ8jNygACCCB8ANTLTU3bH1inDCCAAMIHQL1sEkJAAAGEDwAhBBBAIO0K8Yes8AEweQgpCCEggADVc8GfFpPwsVYlAE4QQh54wPskCCBAlcLHOpUAmFYI0SkGAQSYRfi4WfgAmLbSXDkhBAQQYGbhIwkeN6kEwCmHkNvjELJMKUAAAaYdPsbWhlCw0i/AzHSGUidkuxACAghw0vDxJ2PJ0AHhA2B21oRCuF0ZQAABThw+xtf68Fs7gNnrKjy43S90QAABhA+AulkXh5AblQEEEOB4FhoEqI2NcQixRggIIMC4C/5kbGOw0CBALW2KQ4hf8oAAAlzwx2Pr4hvDAwBqq3x53h2ujAUCCOTY6j92xSuAuimUL8+rECCAQF7DxzIfhAB1tybscGUsEEAglwqueAUwN9aFHT3rlAEEEMiN1X8cJZPOTYYEmDub4hDifRgEEMhB+NgQrQsmnQM0gtvDzh6daBBAINPhI/lt20aVAGgInaUQAgggkNHwkfyWLZn46LdtAI2jK+zsuVkZQACBLDLvA6Ax3RSHkC5lAAEEMqMy72OdSgA0LPNBQACBzIQP8z4AGt/4MFlAAIHUM+8DIB3Whp09rlIIAgik1+oN1vsASJmNcQjxvg0CCKQyfHQF630ApNEm80FAAIG0hY/kg8u15QHSKemA3KQMIIBAmpj3AZBuN7o0LwggkAqrN0RrQzKREYC0MxQLBBBo+PDhMo4A2dEZXEYdBBBocIZeAWTLurCzR1cbBBBoPIZeAWSWoVgggEDDhQ9DrwCyK3mPd1UsEECgoRh6BZBtrooFAgg0BkOvAHLDUCwQQGDOw0fyQeQKKQD50BmSTggggMAcuqnygQRAXt73d/asUQYQQKDuVm+Ikg8gvwkDyB+dbxBAwAcQAHXTFXb2rFMGEECgblZviNaVPoAAyKuNJqSDAAL1Ch8mngNgbRAQQKBubgrW/ACgvDaICekggEDtmHgOwDF0xEEAAR80ANRNMiHdYrQggED1VVY871IJAI7hl1MggIAPGADqpjPs7LlZGUAAgapZvSG6MVjxHICp3eCyvCCAQLXCh0stAnAyPitAAIGquTG47C4A0/m82NnTqQwggMCMVbofN6gEANOkCwICCMxKMvFc9wOA6VpncUIQQGBGVm+IOksfJABwalw1EQQQmBFtdABmIlmcsEsZQACBadP9AGCW/BILBBDwwQFA3eiCgAAC06P7AUCV+GUWCCDgAwOAutEFAQEETkz3A4Aq80stEEDABwUAddNlXRAQQGBSlVXP16kEAFV2gxKAAAKTuVEJAKiBZHX0TmUAAQSOqHQ//IYKgFoxxBcEEDjKunhbpgwA1MjasLPH5wwIIHCE7gcAtZSED0N9QQCB0vCrdfFNp0oAUGN+2QUCCJR8SAkAqINlYWfPOmVAAIEcW70hSq7N3qUSANSJLggCiBLggwAA6mZN2NnTpQwIIJBDFh4EYI4Y+osAAjklfAAwN58/LsmLAAK5ZPgVAHPFJXkRQCBPVm+I1gaX3gVg7hiGhQAC3vgBoG46w86etcqAAAI5UJl87k0fgLn2XiVAAIF8WKcEADTE55HJ6AggkAsmnwPQOCEEBBDIrsrK550qAUCDMCcRAQQyTvcDgEaSrIy+RhkQQCC7TD4HoNHogiCAQBZV1v4w2Q+ARuOXYwggkBUdHR1t8bY42cLo4ferCAANyJog5EqLEpD2gBHfzIu3hZXn8+LKrkUT79d8zlWLQ8uCD6gYAA0qWRNkizIggEDjBI3m+Ka9EjSSrW1C2Igm+V+O+tm8N/ze21QRgAaWdECuVwYEEJi7wLFkQthYUgkcU4WNk2o67VVdqgpAA1tWGoZ12RpdEAQQqGPgmLhF1fqzk+FXhQVn6IAA0OgMw0IAgRoGjvZK0Fheua0Zw68ASAnDsBBAoMqh47RK2Ehu2ybsimr59xp+BUBKGIaFAAJVCh3jW/Nc/BsK85e/1pEAICUMw0IAgVmGjonPsaje/5b5P3Xb20KhebGjAkBKdCkBAghML3Qkczo6KlvLXISNyTSfeaU3cgDSJFmUcE24bE2PUiCAwPGhI3n+JF2Oc0J5jY6GU2jvMAEdgLRJJqMLIAggMCF4JGHj3DCH8zqmY95Vf/BKw68ASKFkHsjNyoAAguDR0bEilIdYLZ3w46hhn9yd7+xy1ABIoTVhZ09nuGxNr1IggJDH0JE8R5LgkQyzakvTv72weKXhVwCkVVe8bVYGBBDyFjzOrQSP8edJlJZ/f2n189aFr3QkAUip9wogCCDkOXikjtXPAUi5LiUgq5qUgPHgEW/nx1++Id5WpT2cNi294HWOKgAptqx0OV7IIB0QwWO843FuSOFQq6kUFpwugACQdi7HiwBC5sJHEjrOz9rzoPXyD50dmtvOdoQBSDnDiRFAyEzwWBbfvCre5ocMdDuOe1Jf+DO6HwBkQZcSkEXmgOQreMyPtyvjL6+shI9sPqmXrX6tow1AJuzsEULIHB2QfASP5DifF8rDrTLP/A8AMiQJIN3KgABCmsLHGfHNRSFliwjOlPkfAGSMeSAIIKQmeMyvBI8zKj+KcvGENv8DgGzpUgKyxhyQbIaPZLjV6yeEj/w8oc3/ACBrrAdCxuiAZCt4JF2Pi0OyeFFetS19pWcCABnTFawHQobogGQnfJwV3/xYvC3Paw2az7lqcaG1XQABIGvMAyFTdEDSHzySY3hJyOFwq+OezBf/vPABQBYZgkWm6ICkO3wkQ62uEj7Kmle8xvwPALKoM+zsWaYMCCDMdfi4IL55TdDFOqKw4AwdEACySheEzHDymr7gkRyzV4fyRPNIRSYEkPnLdUAAyKquYEFCBBDmIHwkE8yvcNyOV1qAsNC8WCUAyCgT0RFAqHv4WBnfvEIlJtfU8ZpzVAGADOtUAjJz3qYEDR88WuLtEuHjxExAByDzAcREdAQQ6hE+4pvkxNpv90/CBHQAcsBEdAQQaho+kvkMb4o38xqmo2XB2YoAQMZ1KQGZOG1TgoYMH8nJ9Csdn+mzAjoAOXC+EiCAUKvwcalKTF/b2295nSoAkAOdSoAAQrXDx2XxzVkqcWqaFq80/AqAPOhSAjJx7qYEDRU+nEjPQGHhGeoGQD7s7OlUBNJOB2Tug0dyDF4lfMwigLgCFgD5kQSQXmUgzXRA5j58vE74mG2MdgUsAHLDpXgRQJh1+HCZ3VlyBSwAcsSVsEg9Q7DmLny8Pt4WqcbstF72Qd0PAPJEB4TU0wGZu/Ch81GNJ3DHGgEEgDzpVAIEEISPuXwCn36J4VcACCAggCB81EehZYF6ApAvLsWLAMI0rRE+ahBAFp75ClUAIGcEEAQQTqyyyOBylajFM7hVqANAAIEUcRWs2oePy4N1Pmqm0DJfbQEQQCBN529KUNPwkVyrO1nlPJriLtE0f+a+U/x80W8+f0+6X3lR+QEVpt4/8WdHPfhCdMJXc+lPPtmfW5ik0IXj/96j/q8T7D/yNxdO9E4THf9nTvFvO+r/Osn+iTWJpvq3TVKzKJzkzy0cdaSm+HuPrkl0sr93sr/7JDWLpvH3Hv8cOfGxSvZEg4Oh+Ozzpe9Hn+kL0eHB0v3G9gyEsb0Dx73okp8l+4CG0j3Fz3vibfwF21vZ+sPujT1KxlzSAald+DinEj6okeZz3mj4FUxDEhqKyRYHjdLtM8/HwWMoDhzPKw5kQ9cp/XzV+onBpT/eth8JKLs3disnAkg6w0dyYny5StT4yfuq95uADpOEjZEnngyjSdh4tq90W+pqAEwdUNYeE06SMNJTCSbdpa93b+xXLgSQxg4fP6YSQD2M7Np9JHCMPLG7NKQKYJY6K1sSTG6qBJOeSijZWgoluzf2KhMCSGOEj6Sel6trfViEkDwqBY1dT5a24YceUxCgXtZUtnWVQNIbyt2ROyqBRIcEAWSOvCZY66NuLEJIXgw9/Fg5cDz8aGkOB0AD6KyEkfFAMh5GtuiOIIDUSUdHx8XxzWlh6qs3AZxC6Hg0DhyPhaGHHjWsCkiDrsq2sTJc6zZhBAGktuHj3PjmfJWoL6ugkzXJ8KrDd99bCh9CB5Bi48O1hBEEkBqFj2QY0MUqMQesgk4GFPv7w9D928Pg/Q+UvgbIcBjZUgojuzduURYBhJmHj6R+V6gjcKpGep8Mh+6+p9TtAMiJtaVt1frkty23xttmXREBhFOXdD78Fn6uNLUsUgTSJBlWNfTIo+Hgnd/W7QDybFkoX973pjiMbA7lrki3suRHQQlmpjLvY7LFBqNp/sx9Z3nfRb/5/D3pf+VF5QdUmHr/xJ8dVZRCdMJXc+lPPtmfW5ik0IXj/96j/q8T7D/yNxdO9E4THf9nTvFvO+r/Osn+iTWJpvq3TVKzKJzkzy0cdaSm+HuPrsmxjz8aOhwObbu31PEwtwNgUt2VILJZKQQQJg8fC+Kbq8PkHSRBQQARQASQkqTLcbB7axjs2e6NE2B6euNtgyAigHB8AHlTcv4rKAggAogAMlnNRgcEDwBBBAGkeuHjovjmIkFBABFABJBja5YMrzqwdWs4tO2eAIAgwuRMQj+18LGkEj6YY62XffBsVaBRJMHj0D3bwsFt5ngAVFlnvG0Kq9bfEN+uN1ldAMlb+GiNb16jEo2hqWONAEJDOLy9JxzcutVVrQBqK1lL5M44iCQB5HqX7xVA8iLpfCxQBiAx+txzYf83vh6Ge30GAtRRV7ztioPIhvj2ljiI+O1PCjUpwcl1dHScFt+crxJAMsRq/9e/Hl761CeFD4C5k6wjcn8cRNYqRfrogEzPJUoADD36SBj40h3meQA0hs54u92wrPTRATmJylWvrHYOOZYEjv5/+HxpEz4AGk5XKHdDblSKdNABOXH4WFBJ10BOlbseW8KY4AHQyJbF28Y4hLw36IY0PB2QE3t1vLUqA+RPqevxvz8X9v7D54QPgPToCuVuyDqlaFw6IFPo6OhYEd+cphKQP8NP9pbCh+ABkEpJN2TThG6IK2U1GB2QycNH0vUw8Rxy6MC3u8Oev9ssfACkX3KFrKQbskYpBJA06AzW/IBcSYZc7fn7zaUAAkCmzulMUG8whmAdozLx3JofkCOlIVf/57O6HgDZlUxQf1swJKsh6IAc7xXBxHPIjUP3bgt7/n6T8AGQfcmQrDsNyRJAGkql+3GuSkA+9P/j7WHfP/+TQgDkx5pKCLGCugDSMF6tBJB9Sbfjxb/5q3D4gR7FAMif5CpZt5sXIoDMuY6OjtODy+5C5o08/1wpfCS3AORaMi9kkzIIIHPpFUoA2Q8fez69KRQHzD8EoGRdHEKSbsgypRBA6kr3A7Lv8IP3l8KHyeYAHGN8croQIoDUle4HZDx89H/5duEDgKmsEUIEkLrR/YB8hA8AmEYI2eUyvQJIPeh+pNDQnb/zfVVA+ACgypIOiLVCBJDa0f0A4QMAhBABpJ4sOghZDR9fET4AEEIEkAZSWfX8PE8ByJZDwgcAQogA0qDM/Ui7qLhfERA+AKhDCHF1LAFkdjo6OlrjmxUOf8rzx/CBH6gCwgcAQogAkgbJ3I9Whx+yYXj3rtD/1S8qBAC1Yp0QAWTWLnDoIRtG+p4Ne774GYUAoB4hRKtdADl1HR0dydCrhQ59+kWDex5ThXwbGxoML33mb0u3AFAHXWHV+k3KIICcqpUOe0aMDh5QhByHj0HhA4A5sS4OITcqgwAyLZVL75p8DhmQzPlIhl8BwBzYGIeQtcoggEzHWQ55dowN7DIEK6f2f/fOMPiDhxUCgLm0yRohAsh0mHyeIdHgXuuA5FASPPZ/91sKAcBcW1YJIa6MJYBMrqOjY0l8s8Ahz1AAOfyiOSA5kwy5crldABrImlIIQQCZwnkOd7YMb/vPhmDlKXAODpbCh0nnADSYtWHV+puVQQARQCBjBr71VZPOAWhUN8UhpEsZBJAjKmt/WPk8g6Khge+rQvYd2nF/vDnUADQ080EEkKO4+hWkVHGgPwx86ysKAUCj6wzmgwggE1j7I6Oshp59L235tHkfAKTFWosUCiCGX2Wd1dAzbf9d3zLvA4C0SeaDdCpDjgNI7HSHObssRphdSfDYZ70PANKnvD4IuQ4g5n9kmMUIs2vvP1nvA4DU6jIUK6cBxOKD2Td05++4NFIGGXoFQAYYipXHABIMv8qHqKgLkiHFff1h312GXgGQeoZi5TSAGH6Vh/wxfOAHqpAde//pC4oAQFYkQ7HWKkNOAkhHR0dy5SsdkDwEkMG9JqJnxKGd3w9DT+1SCACyxAKFeQkgwkeOFAcNwcqAZK0PCw4CkEFJ+LhJGQQQspQ/nr/fRPQMOHjfXRYcBCCrbjQhXQAhQ8b67n9GFVIeIvftDfvu+heFACDLTEjPcgCpzP9Y4vDmw8iO2551Jax067/zq4oAQNYlE9K7lCG7HRDdj5xxJaz0SiadDz7+kEIAkAcblUAAISsBxJWwUmv/3YZeAZAba8Kq9esEkGwy/CpvAWT/0wJICiXdD5fdBSBncn9FLB0QMqH4/PcFkBTap/sBQP505r0LkrkA0tHRofuRQ8Pb/kwASRndDwByLNddkCx2QHQ/cioaGrAeSIrofgCQY7nugmQxgCz1nM5pADERPTV0PwAgv12QLAaQBZ7POQ0gJqKnhu4HAOS3C2IIFplhIno6DD2t+wEAFTcIIClnAnq+lSaiWxG94R3aaaoOAFSsyePq6FnrgCz0PM43K6I3tuK+veGgAAIAE+WuC5K1AKIDkvcAcvDZ+1ShcQkfAHCctWHV+k4BJL10QHKu+Pz9znAb2IHvf1cRAOB4ueqCZC2AuAJWzg1960YdkAaVzP0YGxpUCAA43joBJL0MwcKChA3q4EMOCwBMYVmeLsmbtQDS6vmLeSCNJ5l8PvTUEwoBAFN7rwCSMh0dHdb/oHyyax5IwzH5HABOKjeT0Zsca7LGPJDGY+0PAJhmCBFAUkUHhCPMA2kcIy88G0b37VUIADi5XFwNSweETBobeKJbFRqDS+8CwLR1hlXr1wgg6WENEI4oPv2vhmE1iMM/fEgRAGD6PiSApIc1QDhi+O4/eyxExf0qMbeGnt5l7Q8AODWZnwdiCBaZFR3s26oKc+vw47ofAHCKMj8MK0sBZKnnKxONDTxhGNYcGzT8CgBmoksASQeLEHKU4Xs/qgMyh1z9CgBmLNPzQAzBIrOKz9y9Pxoa0AWZI0NPW/kcAGZoTVi1fpkAAikUDezSBZkjhx9/WBEAYOYyOxk9EwGko6Njiecokxl5+LPdqjAHwW9oUAcEAGbnbQJIYzP/g8kDyI7Nz0Yjhx5TifoSPgBg1roEEEipaP9ThmHVO4A8tUsRAGB2ksvxdgogkEKjvd/oVoX6GtQBAYBq6BJAIIWG7/7Tx0Jx6FmVqI9k5fPkErwAwKxlch6IAEI+TooPPNutCvUhfABA1XQJIJBSoz/8xy+rQn2YgA4AVdOZxfVABBByIRmG5WpYdaq1DggAVFOXAAIpFe19TBekDnRAAKCq1gggkFIWJay90X17S5PQAYCquVIAgbQGkGRRwqGB+1SidopxAAEAqkoHBNJs7MWdhmHV0NDTFiAEgCrL3ER0AYRcGf63j3aHqLhfJWpjVAcEAGohU10QAYRcKf7orv3Rob6tKiGAAECKdAogkOYQ8tS3/1EVasMVsABAABFA4BiD//Lb94XisMUqqszVrwCgZt4mgDSefZ6XnNLJ8ksPfUYVqmvkhWcUAQBqwyT0RtPX1zfiecmpGLprg6thVZn5HwBQMyahQ9qVJqMffFYIqWZN9/UrAgAggMCUJ8wmo1fV2NBhRQCAWlm1vksAaTwvemZyKkxGr67hF5QSAMhXAIFTVnzue59SBQAgBTIzD0QAIdesjF7FMGcSOgDUUmauhJWlAPKS5yWnfNL8o7v2j+1/2mT0KnAVLAAgbwEEZmSk5xPWBAEAGt35AkjjsRghMwsgD/7tM9HBZ10RCwBoZJ0CSAOeR3peMuMnz2Nf1AWZhaGnn1AEACB3AcQiBMzY8F1//Fg0tO8+lQAAEECmpa+v75DDyWwUd33tk6oAACCAnArzQJixwX/5rfuikUOPqQQA0IA6BZDGZB4IszL2wnZzQQAAAUQAmTZrgTArh29f+4+hOPyMSgAACCDTOn90SJmt4vP3fUoVAAAEkOkwEZ3Zp1hdEAAAAWQ6+vr6DMGiKnRBAAAEkOkyDIvZP4l0QQAABJBpGnBYqYbi8/dZFwQAaBT9AkjjshYIVaELAgA0kB4BpHGZB0LVjD5+x82qAAAggJyIDghVM/jN//C9aHjffSoBACCATKqvry9ZDd1EdKqmuOvr5oKcRPOS5YoAAOQzgFQYhkXVlLogh1/qVomptQggAEDOA4grYVFVw9/7bx9TBQBgDm0VQBqbDghVNfLA3zwztm/3Z1QCAEAAOU5fX18yEX3E4aWahu5c/8kQFferxOTazlutCABAPgNIhS4IVVV8+jv7x17caUI6ADAXrAMigJBHh/7hJz9tccIp3kza5isCANSOldAFEPJq9PEv3aQKx5t35jmKAAC10yuANLjKPBDrgVB1g9/8ze9Fg3vuVImjFXRAAKB2dm8UQFJCF4SaGP63//4xE9KPNu/MsxUBAGqjN0sPJusB5DnPV2ph5IG/fmas/wmX5Z34ZtK2QBEAQADJfQDRAaFmDn3mzZ8Io4ceVYmyVh0QABBA8h5A+vr6krVAnvecpVZGf/hVK6RP0LJkuSIAQPU9KYCkiy4INZNMSB/bt/vTKlHWLIAAQC10CyDpYh4INTV05+9YIb1ivtXQAaAWegWQFOnr60suxbvP85ZaKT79r/uLu7v/SCWSDsgyRQCAasvQJXhzEUAqnvbMpZYOf/kX7rQ2iMUIAaAGurP2gPISQAzDouYGv/7rf5T3oViuhAUAVdcjgKRQZRiWq2FRU8Wnv20oVqzNPBAAqKbtAkh66YJQc4ZiWREdAKpMByTFdECoi7wPxTIMCwCqaPdGASStKosSmoxOzeV9KJYhWABQNd1ZfFBNOTuIAgh1URqKtf+pXC5Q2LJkWWhqm+9JAACzt1UASbm+vr5kVfTDnsvUw+Cd//GvwujhR/P42HVBAKAqugWQbNjluUw9FJ/aun9k59/9YS4DyMoLPAEAYLZ2bxRAMsIwLOpm6Dt/+OjYizs+krfHveDCSx18AJid7qw+sNwFkMpk9Kc8p6mXQ5//iU9Hw/u/l6fH3LxkeWiJNwBgxrZm9YE15fSA/shzmnoa/Nqv3Ji3S/O2nWcYFgDMwhYBJEMqk9H3eF5TL8l8kNEf3HFjnh7z/IsMwwKAGerP4vofuQ4gFeaCUFeD//zh7431P/6JvDxeV8ICgBnbkuUHl9sA0tfXlwQQl+Slrg59+k1/FQ3u/VYeHmuyFojJ6AAwI3cIINn1A89v6m3wG7/xh6E4/EweHusCw7AA4NTt3qgDkmHPx9uIZzn1VHyqe//IjttuyMOk9Pk6IABwqrZk/QHmOoBULsnb63lOvQ396x88Wnzu+5lfH8QwLAA4ZXdk/QE2OcalAKILQt0d/sJP3xHtf/rvs/44DcMCgGlLrn61WQDJOF0Q5tLB217/kawvUmgYFgBM25Y8PEgdkLIkgOiCMCeGvvarN4TRw49m9k0mGYalCwIA03FHHh5ks+McwsGDB8fa29uTWpymGtRbNNA7XFh45gPNK668NhSa2ko/LExyx8Ipfl+v/2caf0ahpSUcfvQBBxsAptYbdm/8cB4eqA7IxIOuC8IcGf72Hzwy+viXb8jq40s6IEknBACY0pa8PFAdkIpKF2Qo/nKFajAXio9/+ZmW87ueKSw65+1Z64Ak3xcPHQjDzz7lQAPA5D4QBrb15+GB6oBM0NfX96NgdXTm0OH/nVwZ60eZvDLW4tde7QADwOS6w+6NvXl5sALI8R5WAubSoc2v+/PoYF/mJqE1L1ke2laudoAB4Hi35unBGoJ1jIOx9vb20+MvF6gGc2VszyP/1nLRe94UmlrOOPLDlA/BSiTzQExGB4Cj5Gby+TgdkMnpgjCnik/euX/wK7/8y2H08CNZelzJZPSWJcsdYAB42a15e8ACyCT6+vr2BYsT0hAh5FeuD1Fxf5Ye15Kr3u7gAkBZMul8swDCuMeDy/LSACFk5MHbMhVC5rskLwCM2xx2b+zP24M2B2QKLstLw4SQ3m+9WFh4+nebV7z65YUKEymcA1L6sqUlzlPFMPT0LgcXgLzLzaV3BZDph5D9cQhJVkc3IZ25DyELTv9u01mveX/aA0iidcXZ4eD2e+MgMurgApBXSffjtjw+cAHkJOIAkgx9WakSNEIIae68prxQYcoDyJEuyFO6IADk1nV57H4kzAE5icqE9MdVgkYw+Pmf3jL23Pf/UxYey6LXXm0uCAB5tTlPCw8eSwdkGg4ePLinvb09mQvSphrMtdGdn3mkufPtzxQWn/0TR+1IUQck+V4XBIAcy233I6EDMn0PKgGNYvDz78lEJ0QXBIAcynX3I6EDMk0HDx4cam9vT748TTVoBKM7kk5IMiek0glJWQekdKMLAkC+JF2PD+S5+5HQATkFfX19yVyQ/SpBoxj8XPrnhLS/9urQbHV0APLh1rx3PwSQmTEUiwYMIfenNoQkQ7CWXG11dAAyL+l63KIMhmCdsspQrGTxgjNUg0ZRGo51wdt/dGQ41rgGH4I1rrXj7DD4w4fD2MEDDiYAWfXhsHvjNmUQQGYaQvrjELIk/rJdNWjoEJKSAJJoOf3McGjn9x1IALKoJw4fH1aGMkOwZi4ZimUZZxrK4Gffs2X0gf/1s1FUTN1cpbaVF4SFl7/WQQQgi9Yrwct0QGbo4MGDY+3t7QPxl+eqBo2kuOubLxbaO77T1HHFT4VC4ei1axq4A5L8rG3l6nBo+70hKsr2AGRGctndW5VBAKlWCDkch5DkVMqleWkoY7v+pRxCVhwTQho8gCSX5U22od4fOIgAZEEy8fzaMLBtUCkEkGqGkD3mg9CoISTqe/DzzRdd+5bQ1HJGGgJIYt45K8PwU7tCcV+/gwhA2pl4PglzQKojmQ9ifRAaTvGJb+4b/vKvfzCMDj6Spn/30mt+ysEDIO264/CxWRmOpwNSBZX5IMmva88S6mg00d4nhqMXHvpq06q3nFGYt/CSo3Y2YAek9MbUvjgU4u+tkA5ASo0PvdLOn4ST5Srp6+tLOiA7VIJGVHzim/sHP3Hl70eHXrw9Lf/mxVe/vbQ+CACk0AYrnk9NB6SKDsYsUkgjG/3eJ/6lefU7niksWlFeK6RBOyDj3yfzQQ4/8qCrYgGQJt3W/BBA6h1CBuIQsiD+crFq0IiKD376kaaOS+9tWr76HcddprfBAkhpKFZyVaxdrooFQCokQ66uctUrAWQuQkhfHEI64i/bVIOGDCGPfulHhUVnfafpzEveEpqalzRqAEkkXZCRF54No3tedOAAaHQfCLs39iiDADIn4gDyXCgPxRJCaEhjT3zzxeiFh7Y0X/iTV4bmeec2agBJzL/gleFQjwUKAWhot1hwUACZU5UrYyUhZGUw2Z8GFe19Ymj0nr+8vfnVv7CkMG/RlY0aQJJhWEkn5NCO+x00ABpRTxw+rlMGAaRRQkgybsTleWloxe996l+bLnzHjwrtZ77huHkhDRBASm9Wy5aHprb55oMA0GiSeR/XuOSuANJIIWQ4DiEvCSE0fAh54NMPF5ac852mMy9+Syg0LWm0ADJ+VayRPvNBAGgoH7DauQDSyCHkPNWgkY398J9fHHvh4dubVl+zutDStrrRAkiibfUrwtCux8PYwQMOGABzLVnv4xPKIIA0cghJLsnWoRo0smjPD4eK93z8q82Xv69QmL/0DY0WQMrzQc4Lgw9bHwSAObU5Dh/rlUEAafQQsl8IIS2K9/3NvU0rLr+3cNoFR68XMscBpPTG1b44zDvXpHQA5kxyqd0PWO9DABFCoNoh5JEv/Sh64eHPNV/0jjWhufXcRgkgpTevZctD89LlYfAHDztQANRTMtn8NWH3RpPOBZBUhpAzVYNGlwzJGt32l19suvhn9hUWnvbWRgkgyfetK84OxX39YaTvOQcKgHqFj2vi8NGrFAKIEAI1Vrz/tu2Fxed8s+nMV701NJ3gKll1DCCJ+a+4RAgBoF6udcUrASQLIeSF4BK9pMTY4//8YvTCI7c3rfzxeYV5i9Y0QgAZDyGDP3jElbEAqKXr4/CxRRkEkCyEEOuEkCqlq2T9219/u6nzTQ8XFp/91uMWLpyDAJJYcOkVpUUKhRAAahQ+NiuDACKEwBwae/AfnoheeORzzRe87cIwvmbIHAaQ5PK8QggANZCs9XGLMgggWQ0hT8dfnh5vbSpCGkQvPT5U3PbxrxzXDZmDACKEAFAD1voQQDIfQsbiEPK8EELajD3wD09ELz76uebVXatDy7wL5yqAJD9LQsj8OIQMCyEAzD58XK8MAkguQki8/SgOIgvibxerCGlR6YZ8uanzLQ8Xlpz11povXniCP0MIAUD4EEA49SDyQhxCRkO5GwKpUe6G/OCzhZVvaCvMa18zFwFECAFA+BBAmFkI2ReHkOTM6bRgcjopEgeQobF7//rbhXOuvKewbOWPH7VuSJ0CSOnb1jiEXCKEADBtydWuNihDbRWUoPF1dHQsim8ujbdFx57nTXX+N82fZfm+atNA9239D3ffUFh81rpQSIJIdNQ7T3Tcu1E06btTdJL95Z9Fk/6ZY4ODYc9n/jaMPG+xQgBOGD42K0Pt6YCkQOUKWcnk9IXx1q4ipM3YvX9zT2hu/UrTikvPm3SS+mSBoooT2ZPhWAtf82OhOLA3jFoxHYCj9cfbh4UPAYTjQ0gyOb0vDiLJt8tVhLSJnrxrX/Huj3+5cM6aewpLzzv5sKwaXElr/qsujkNIfxjVCQHg5fBxTRw+vqYU9WMIVgp1dHQkAeSKEwRIw4EMf2r4+7Z+uHtdYfmqG6JCJYjUcAjWsfsPP9AT+r98uzcTgHzrCeVhVz1KUV86ICl08ODBwfb29h/FXy6Nt/kqQhqNfW/z/dFLP/xM06o3tIV5C19Tjw7I+PetK84KbedfEIYeeyREo6MOBkD+dMfbtXH46FUKAYTph5BkSNZzLtVLmkUvPDY0tu1T3y60zPtC4ezLLw3NrefVI4CU3vyWLgttq18RRp552hWyAPIluczudWFg26BSCCDMLIgkl+p9MZS7IfNUhFQGkd7v7hv77v/8QtN5r91WWNRxXimI1GE19ebFi0prhRRfejGMvvSiAwGQbeOTzV1md46ZA5IhHR0dF8Q3ncEcgzw+3kzdt+X6299ZOOfyPwxNLUc6ItWcAzLxHXD8Jwf+9c5w4Nvd3kgAsqk33q4z30MAoTYhJFkr5OJgzRAn9Bm4b8uvf+3nCmdceEMSRGodQJKvhp/sDf3/53OldUMAyIwtoTzZvF8pBBBqG0Q6Q7kbIoC4b+rv2/IbX//34YzVN5Y7IrULIKX/Dg2GgX/cEgYffcQbCUC6JYFjQxw8blEKAYT6hZCkC3JRvC0TQNw3C/dt/vDXf65w+gXlIFKjADL+/xy6d1tpSJZuCEAqucSuAMIcB5FkHP358dYigLhvFu57JIg0vzxHpNoBJJEsWDjwpS1hxMKFAGlySxw81iuDAMLch5AkfFwYb2cJIO6blfs2f/Dv31g477XrQ+v8N9YigIx/n3RCDmzt9kYC0Nh6Q7nr4Q1bAKHBgsiiShBZJoC4b1buWwoiZ1/2vrBgyc/VIoAkRp5/Nuz/+tdLE9UBaDjJpXVvMdFcAKGxg8gZlSDSJoC4b1bu2/TO3z+vac11vxwtWPa+UGhaUs0AElX2l+aGbN0aInNDABpBd7ytN9dDACFdQeTccPz8EAHEfVN938KVP7uk6S2/8a5w+vnrJ64lUo0AUvp/4vCRdEMOb/d5BzBHXOFKACHlISQJH+dWthYBxH2zdN+m6z/zxsI5l/9KmNf+rmoFkHHJcKwkiIw+Z5I6QB3dUgkfhlsJIGQoiJwT0n/FLCfp7nvU903X/uF5hcuvfX9oP/19oan5vGoEkHFJJyQJIoZlAdRUdyhPMu9VCgGE/AQRAcR9UxtAJmr65c+8sXDWJe8PCxa/rxoBpDws63A4dM894eC2ewQRgOpKxruud3UrAYT8BJEVlSAyXwBx36wEkPGfFV73viWFN//au8Py834lNLdcNpsAMv7XJAsXJkHkkCACMFu9oTzUarNSCCDkM4yMB5F2AcR9sxJAjnozfM8fVYZoLU+GaK2caQApfVWZqJ6EEEEEQPBAAGF2QWRpKHdFOgQQ981SAJn488IvfuKywqrXvT/MX/yu0FwOI6caQI58LYgATFd3vN0meAggMFUQmV8JIck23bVEBBD3TUUAOepN8pc+eWnh/Ne+P2pb9O5SZ+QUA0h5f1QKH4d7tofDd98biv0u3AIwwZZ4u9UcDwEETiWMnBbfnB5e7ooIIO6bmQAy8WeF925YGS6+5t1h0envD82tl51KAJlo6JFHw+Ft94ThXU96AwHyKvlNzOZK8OhVDgEEZhpEkknrSRhJ5oosFEDcN2sB5Chv/IXFhTf/8rWh/bSrQtvCa0OhsGS6AWT83TfphBy6+94weP92w7OAvOgphY6k62EdDwEEqhxG2iphJOmKtAsg7pu5AHLMzwvrPnVZOO+Kd4e2RVdHrfOunk4AmXgJ4MGeB8Lww4+GoXgDyJjeUB5mlczv6FEOBBDqGUaSbYkA4r5ZDCBH/ezqX1wafvwDV4clHVeHeQuvDi3Nl50sgBy52tbgYBxCHguH774njD77vDcQIK36K6Hjjjh0bFEOBBDmMowkw7SWx9vSym2LAOK+mQsgx3rzB5eE1/zMZWH5uW8Kbe1xIJl39VQBZOK7c7F/IAw/9GgY2dVbCiUAQgcCCMw+kCTDs5ZM2JoFEPfNXACZ7Oe/uumy6KyLro4DyeWhufXy0NJy+dTvzlFpgcPhOISM7HqytBX3DngDARpBTylwlOd0GF6FAEKqA8niUJ7I3iaAuG8mA8gkP4tu/EIybOvy0Dp/ZWhti0NJ65vG73rsxPZkeNZ4GBl5YrdJ7EA9A0d3vG0t3ZpIjgBCBgNJWyWItE8IJc1OvN03iwFksp9Hv/CRleGsi1ZGy89+U2iZtyo0t6wMTS2Xh0Jh6cTL/yaBpBhvw7t2h+Izz5s/AlRDfyVwbD0SPAQOBBByGkqaK4EkCSPzJty2OfF236wFkKl+Fv3Ery2NXvuey8K8+UvDwiVXhObWlXE4WRU1NS0JTc1XJPcZicPI2N7+cjgphZK+EB3WKQEmlQSM3njbXvm6x/ocCCAwvXAy3iFpq4SS5vDymiTzKpuTdAEkF3UZ+3+/9ObS8K2FS1aG1vmrSu/4La0rh3c+virZP/yDXUubli+7YvSJ3aX7F/cMxIHF3BLIqO7KbRIqklVQ+4+EDkEDAQTqHlame2JXDf7c9P25uarB6C33XxGaW5Kr1IU9v/dfvVFAegkWAAAAAAAAAAAAAAAAAAAAAAAAAAAAAAAAAAAAAAAAAAAAAAAAAAAAAAAAAAAAAAAAAAAAAAAAAAAAAAAAAAAAAAAAAAAAAAAAAAAAAAAAAAAAAAAAAAAAAAAAAAAAAAAAAAAAAAAAAAAAAAAAAAAAAAAAAAAAAAAAAAAAAAAAAAAAAAAAAAAAAAAAAAAAAAAAAAAAAAAAAAAAAAAAAAAAAAAAAAAAAAAAAAAAAAAAAAAAAAAAAAAAAAAAAAAAAAAAAAAAAAAAAAAAAAAAAAAAAAAAAAAAAAAAAAAAAAAAAAAAAAAAAAAAAAAAAAAAAAAAAAAAAAAAAAAAAAAAAAAAAAAAAAAAAAAAAAAAAAAAAAAAAAAAAAAAAAAAAAAAAAAAAAAAAAAAAAAAAAAAAAAAAAAAAORBQQloKKvWd8X/XRZvayo/ubLy/URdL38Z7S5vE5/UYw/GPxsIUdTfFIYeLESjA6cNf3XHDF8HhVm8fgr2ZXaf2ji+9jm+Ndl3oGXNFVGhrX20sHR1sm+ssPCCKDS3T7zPWGH+FRO+7a1sE/XE20C89Ve+7g+7N/Y4yUAAIe9Bo7MSJK6shI01kwSNKoseLJTCSvHBpujwd9qKTz24aLRnwAmMfY6vfR6/41vvfUPNq1YMNp1/RbFp8eqxsGD1WGFeHDia2mv86dtTCSvb46279P3ujf1OShBAyHLgWBtvb6sEj2WN8Q9LQknxO03R0HfnF3d9p310+4ATGPscX8dXbRzfau9LAsfh5oveWCwsuaJYWPDqOoSNUwklSRjZWroVSBBASHnoSLoaH6oEj850/KPH4jAy8tXW6IWvLB3eutsJjH0ev+Nrn+M7032HWi5ZPdh8wTuKhcVXRaFlRUo+vZMwcke8bYnDSK+TGQQQhI66ih5sigY/saD4+FfbRx8YcAJjn8fv+Nrn+J5sX0pDx1SS7sitlTCiM4IAQkOFjmWVwHFDeHnyeMZeKMXPNkcHPnva0Je/4wTGPo/f8bXP8Z1otGn5ooPNV1w13LxibRSSuRyZtDnebouDSLcTHwQQ5jJ4dMb/vakSPpbl40FHu5uiwT8/Y+iLn3UC4wTGPsfXvnwf36Hm81ccaLny/y4W2q9uoDkdtdYbbxviILLZiRACCHMRPNbluAoDhWj4EwuLD3+yfXTHgA94JzD2Ob725ef4vhw8Fv9kjj8HkyFZyfCsWwzPQgBB8Kh/EPlkHEQ+MUkQ8eHvBMY+x9e+DB3fOHicJXgIIggg1Cd4JMOrNgoeJ5IMzTr8kTOGbv+sD3gnMPY5vvZl6/iONp22aKD1zb8ueJxQbzA0CwGEKoWPm0N5cvkyxZhWENnREg38/mlDX/muD38nMPY5vval//junfeuXxxpOu26HM3xmK3kylnrTVZHAGEmwaMr/u+mkPpL6c7VC2v0s+2jO/5g4ehO80OcwNjn+NqXwuN7oOW1rz7c8sr/GIXmtF9Kd65srgQRw7IQQDhp8Eg6Hck8jxsVY9YGmqP9v3X60Je+6sPfCap9jq996Ti+o02nLd7XetUvjhaWrfUxNmtJ+Lg+DiFblAIBhKnCR1fQ9ajBi6z41fbRB3/rmG6IEwMnqPY5vvY12PGtdD1+V9ej6rZUgohuCAIIR4WPm0O580FNRE+1jr3wS8uH/3mHD38nqPY5vvY13vHdO+9dvzTSdMYv+ryqmd54uy4OIT1KgQAieCRDrm6Pty7FqL2maPA/nTH0hU86MXCCap/ja19jHN/kClf9rdfcNFaY/2qfUnWRzAu5RRkEEPIbPtbE/70zuMJVnV90yZCsB3574ehDJqg7QbXP8bVvDo/voZZLLzzQcuVHQmha5NOprgzJEkDIafhYF8rzPZgTYzvmF3d/cMnId59yYuAE1T7H1776H9+B1rf+5FDzyt/1eTRnkqFYyZCsXqUQQMhH+EgWFXSVq7k3MG/s+bXLhr+5w4mBE1T7HF/76nd897S958OjhWXX+Riac0kH5BrzQvKnSQlyFz42CR8NY+lw04otL7X9zLVKAVAf8Xvu7wofDSMZAn5nfG7iksc5owOSn+CRvMiTzsc6xWg8zdHB3zp9aMvnpvG6tK8x9qmN42tfyvYlk80HWt/8G8XC4nf61GlIyZyQzcqQk/MeJchN+Egmm79bMRpTVJj3U4PNFz61sPjIDicNTlDtc3ztq+6+JHzsnfeOj44VFvyYT5yGtTYsverJMLDNcCwBhAyFjzWKkZoQstNJgxNU+xxf+6qzbzx8RKH1Qp80QgiNwRyQ7Ltd+EiPYqH9f7zUtvb/UgmA6uhvveZm4SNVNlWu1IkAQiqVJ5x3KUTqQshfvNT270xMB5ilZMK5BQZTG0JMTBdASGn4WKcQaQ0hS/6if95PXK4SADMPHyacpz6EGMEhgJCi8HGj8JF6S4ebzrp9X+vVK5UC4NT0z3vHdcJH6o1fordTKQQQGj98JC3LjQqRjRAy2Hz+bYdaLlmqFADTs6/1qquHm1Z8WCUyE0Jur1xQBwGEBg0fSatyk0Jk6iV6+cGWK/9CHQBO7lDLpRcONnf+nkpkinObDHIZ3uyEj/JvCULoVIzMhZBXHG5+xcDC4sP3BZfVbJR9auP42tdg+5LL7e5rfeOGEFrO8rmROReHpVcNhIFt25QiI2c2SpAZG4PL7WbWWGHBn+6Zd+2bVAJgcgOtb/6wy+1m/Dxn1fouZRBAaBTleR/rFCLbRpuW/8Wh5ovNBwE4RjLvw6TzXNhkPogAQmOEj85gbGROFFYebF1zqzoAvGywuXOFeR+54ZxHAKFhfhtQvkoEORCF5mv3tP20RQoBKg60vD4OH02LVCI31lqkUABhLpXX++hSiHwZLSy51VAsgNJ6Hz87Vmi7UiVyx1AsAYQ5Ch/JC+8mhcijwtKDrVf+iToAeTbadFr7cNOZv6QSuZScA1nzTABhDmwMhl7lVhRafn7vvHdfrRJAXg20vuX/MfQq19a5KpYAQj2VX3DrFCLfRpqW64IAuXSg5XVXFguLXPUKXRABhDoy9Irk5Xv5S21rf14dgLwZbL7gg6pASNY/W7V+nTIIINRa+YXWpRAkioWFf2JCOpAnA/Pe9i4Tz5lgownpAgi1p/vBBIWlh1ou/zV1APJiuOls3Q8mSsLHjcoggFAr5e5Hp0Iw0Vhh3q8ean6VLgiQeUn3IwrNK1SCY9ygCyKAUDu6H0wi6YJcoQsCZJ7uB1PQBRFAqAndD05grDDv1w7rggAZpvvBSeiCCCDU5IUFUyosOdRy8bvVAciq4aYVP6sKnEASPtYqgwBCtZTX/VijEJxIsdD+u6oAZFGy7kcUWi9UCU7CUHUBhCrS/WAaCiutjg5k0WDzKt0PpqPT6ugCCNWwan1n0FJkmkablpqMDmQsfHSeNVZY+CaVYJr80lYAoQqED6YtCi3vNhkdyFYAuUhnl1M7bzIZXQBBkqe+DrZc9vOqAGTFSNMZ/14VOEXrlEAAYaZWrU8mnncqBKdirNAmgACZcKjlsgtdepcZ+JASCCB4AVHfl/Vl+1vfuFIdgLQbbL7gnarADKypzKFFAGEGzP9gRoaazrlWFYC0KxYWmXyOcygBhLox/IpZiArzLEoIpFpl+NVZKsEMvVcJBBBOXZcSMOMAEpqvdjUsIM2Gms62AC+zO49yNSwBBMmd+jrc8gqXrgRSq1hYZvgVsw8hCCB40VDPD++FhmEBqTVWaLtSFZglv8wVQJi2VeuFD2YtCs2XqwKQRgdaXyd8UA2G8QkgnAIBhGq8vC8zDwRIo5HCmU4cqU4AMQ9EAGHa/OaHqhhsvuAyVQDSplhYcKEqULUQggDCtHQpAdX5EG83ER1InbHCfL+IwzmVAELdlFuF2oVURVRoMQ8ESJWRptMXxacni1SCKhFmBRCmQauQ6gWQ0GwIFpAqQ82dhl/hvEoAoc66lIDqKaxUAyBNTECnyjqVQADh5Fy1iKrqn3eNYVhAakSFlnZVoKpWrRdqBRBOwouE6n6Yh7YlqgCkxViYf5EqUGXm1gogeJFQT66EBaRJVDABnarrUgIBhBPTAQEgvwEktJqEDgIIkOoP80KziegA5Nn5SiCAMJVV6zsVgRq8zAUQIBUGmzvPUgVqwPmVAIIXCAAcb7Tp9BWqAAIIAACAAAJMT2QIFgD51qkEAghQV1ZDB0AAQQABAAAEEAAAAAEEAAAQQAAAAAQQoKIQinepAgA51q0EAggAACCAAAAACCD5sXtjtyIAkFeLRu7brgoggAApV4hGzAEBIM+2KoEAwon1KwEA+TV2QA1AAKG+epSAaiqE0adUAUjNiUk08kNVoMp6lUAA4cR0QKjyh/mQAAKkSFEHBAFEAKHOTMCjquYXd+1UBSAtmqPDOiBUm9ElAgheJNTTguKjA6oApCeA7HtcFaiq3RuNLhFAOIleJaBarIIOpE1LNPCcKlBF3UoggHDylK4DQvVERcOvgFRZOLrTECyqyXmVAIK0Tn1f4MM7VAFI3XtXNGQ+JNXiuSSAIK1TT83RPh0QIIUnJ4PmgeCcSgBBWid9on3Lhu/UAQFSpzk6YBgW1dBvaLsAwvR1KwGzZQI6kFZtxV6/iMP5lABCXe3e2BtcDYvZBpBoRAABUml+sfe5Qii6GhaztVUJBBCkduqoJdorgADpPUGJDuuC4FxKAKHO7lACZi56yvwPIM1ax174riowC73mfwggnKrdG7coAjNVCKO6H0CqLRm5SwBhNrqVQABhZoQQZqQ5OvQ1VQBSf5ISHRJCmCkjSQQQvHion2jfaUNf/id1ANKuNdorgDAT/UaSCCDM3JbSiwhOQSGMCh9AJrSPPhgHkLEDKsEMzp8QQJiR3Rv7vYg4VS1j+z6vCkA23s9eOtgcHTKnjVN1mxIIIHgRUTfRU8uHv+bDGsiMtuLTX1cFTkFy9atuZRBAmI3yi6hXIZjWCzoa/GtVALJk0eh92wuh+LxKME23KoEAghcTddQ+utPwKyBzWsde/IIqME2blUAAoXovJpPROaFCGPn8guKjAyoBZM2i0e9/w2R0pnW+VJ4/iwDCrJmMzjTML+7+mCoAWdQytueAyehMwwYlEEDwoqJOCqF41+KRbU+pBJBV7aPb/5cqcALdYffGXmUQQKim8otqs0IwmZaxft0PINPmF3ufa44OfEMlmIJf1AogeHFRL0n3Y/nw16wWDGSeLghT6HbpXQGEWtEFYRItY/0fVQUgD3RBmIJf0Aog1OFF5goPlBTC6OctPAjkSbkL4opYHLFZ90MAodbKXRDrglDSVtyt+wHkStIFaR3b+0WVoEL3QwChTm4JVkf34o2GPrZk5G5XvgJyZ/HovV+0Ojql8OHKVwIIdVJeF2S9QuRZ9NTC0R2fUgcgj5J1QdqKuz+uErmWBI9blEEAob4hJFmY0OKEOdU6tue3FxYfseo5kFtLRu66q8nihHl2vVXPBRDmRtIF8eLLmUIo/pOJ5wAhLBq9/+MmpOfSFhPPBRDmSnnco6FYuRINtI/03KAOAKUJ6c+3jT3zVyqRK8kvXq9XBgGEuQ0hm4OhWLnROrZnnaFXAC9bOrz1G4Zi5cp1hl4JIDSG64OhWJlXCMOfMvQK4HjLRrZ+1FCsXLjF0KtsaFaCDBjYNhiWXnVP/NU6xciqsR0dg5//UCmHnCij2FevfWrj+NrXQPuaosPDUWh7ZKTpjHf6vMisnjh8XKcM2aADkhXl3wiYD5LRiDm/+OSHlAFgaotG79s+b+x580GyKRnlIXxkiA5Ipk5T/3/27ic2jquOA/jM7NpxbQcnTurklLrJAQEyiRCgOJe2UpHoieQUIZBKT1AJChH0hBD02PYQbqgnwgUnQpTkELeVUJtAgnxCzh+14VAwG1WAKkEcx7H3z8wwY2+gEmmoXXs9O/v5SJO4/VW1/H5avff1mzczMxOMTI5nXx0yGOVRTf751R3Nt663/9FvO4tRMzb6q1bA2kD853eWK4/uTcNtB8wepfJUUDs5axjKww5I+eS7ID6kZfkNQbr43GjjtctGAuCjGWle+lkYNN81EqXxjHMfAghFt/pkiCcCh9K7Xhi0Tu+qnz1tJAA+uvwt6Tsbv/2BQ+mlcKr9tE8EEIQQOhE+Hl4+85yRAFhXCFkcbl15Xgjp+vDhfR8CCF0WQmaFkG6VXB9qXf2RcQBYv8HW2+8KIV0rX8N4sI4AghBCp8LHcGv22GDrHS8bBBBCejV8POFlg+XmKVhlNz/z9/Y7Qo5m14ABKXr4uHI0Cx+3H/AfeeJNMWrGRn/VuqTWl7z/rzTov9GMdh3J/nW/uUb4YOvZAekFq0+PsBPSFeHjbTsfABtsuPXHK3ZChA8EEDofQtyOVVBhEL8mfABsLrdjFdpZ4aPX1j70ln0n8pcUvpVdOwxGET6AK0+7+s4aPpdqxagZG/1V69La3eqnD9ypHnw5CKJhs1AheNpVD7ID0mtWd0IeDbyscOs/fGn95fuEDwA2Ub4TMtp442kvKyyEF4SP3uQQei+an1kORibPZF/tza5DBqTzHaiki8/vrr/6yofU/day+DVjo79qXdzfKF1qbkv+drER7R1Nw20HTEsdl99q9WwWPn5qKAQQei2EzM+cy4JIfu7gywakU9Kbfcn7x0cb029aGFigqumv2tb1NwshjcH4T39oRmOLcTj8efNTx8xl11NZ+HjdUAgg9G4QmclCyMXAY3o3XRjE08Otq8c/0ZypWRhYoKrpr1ox+jsQ/+VGGvRd9ZjejjjbDh9zhqLX10SQ23ciP5T+83YQYYNjXpQuv7S7/utXTP4WqGr6q1bM/rai0eFbfY99PwkHj5i2Nlx+y9ULbrniHjsgtJfIK7dknWnfknU4sBuyQQk/uTwQ147vbLzxpsnfAlVNf9WK29/VW7JuXGxGY3fjcPBTdkM2zIXALVes8QNKL9p3Yjz782RgN+RjRbr77HqY/C1Q1fRXrQv6W688smeh+rlvJeHgpOls3ex6IICwriBytB1Exg3GWj5U8XR//N4PR5q/v2nyt0BV01+17u3v7b7DR+qV8W+mQWWP2W1N8rMeJ5z1QABhvSEkPxvyvez6buDlhf9HWqum898erZ+/bIK3gFHTX7Vy9Dc/G7JQ/cLRZjR6LAiiIXPdA+WB45kseFwwFAggbEQQGc/+/HF2fcNg/G/wiNKll3bXfzNlgreAUdNftXL2N78t60714NfjcPuXzHv3DR757VanDAUCCILIJgePMG2efrj+qxdN8BYwavqr1hv9bQeRrwki/wkev8iCx08MBQIInQwi+TmRHrs1K9/xWH5xd/3V0xYwFjBq+qvWm/39bxAZOtKDt2blwcOOBwIIWxZE7p0ReToo+WH1/HB5lC79clf93LQFjAWMsdFfNf3NtaKdQwvVLx5rRTueTINq2Q+r54fL8x2PsxZACCAUJYzkuyFfCUp1e1ZaC4PmVH/8j6mR5u9qFjBqfn79VdPfD6st9B2ebERjk3G4/ckSze5zK6EjCE55qhUCCEUOIvmuyL0w0oXvEslDR3y+msxP7Wy8ft0CRs3Pr79q+ruWWr4rsliZmGxFu7Iw0pXvEsmDxr3djlkLGwQQujGMPN4OI/nf4wUNHdfCoDVdTW6fz0LHNQsYNf3VXzX93YhaFkaGlyqf/GwjGjuchA9NFPg2rTxonFsJHkIHAgglCyTj7SDyWHYdal+dNh8ESRY44ktRunRpIL55fag1O28Bo6a/an5+/d3sWr2yb89y9MhEFkwmkmDb/jTs378F8+CtduC4mF0XVr6unbxlkYIAQi+FkjyQjLevg8HqU7Ue//j/47S2ejtV/neSv6vjUiVdqO1oXFjLWQ4LGDU/v/6q6e+m1u5UD03E4fY9SfjQWBIO7k+DylASDkxswAw794Hrr+2wMecsBwIIPDic5GFkDbskyfzY8tS1En+Gyv79jKke+n566Pt9QBZOhu5WP7OWXZJbbqECAAAAAAAAAAAAAAAAAAAAAAAAAAAAAAAAAAAAAAAAAAAAAAAAAAAAAAAAAAAAAAAAAAAAAAAAAAAAAAAAAAAAAAAAAAAAAAAAAAAAAAAAAAAAAAAAAAAAAAAAAAAAAAAAAAAAAAAAAAAAAAAAAAAAAAAAAAAAAAAAAAAAAAAAAAAAAAAAAAAAAAAAAAAAAAAAAAAAAAAAAKBw/i3AAF63f7KgpXExAAAAAElFTkSuQmCC;" vertex="1" parent="1">
                    <mxGeometry x="122" y="152" width="19" height="19" as="geometry"/>
                </mxCell>
                <mxCell id="93" value="e.g. OSCAL Component Definition" style="text;strokeColor=none;fillColor=none;html=1;fontSize=12;fontStyle=0;verticalAlign=middle;align=center;whiteSpace=wrap;" vertex="1" parent="1">
                    <mxGeometry x="266.5" y="194" width="118.5" height="40" as="geometry"/>
                </mxCell>
                <mxCell id="94" value="e.g. OSCAL Assessment Results" style="text;strokeColor=none;fillColor=none;html=1;fontSize=12;fontStyle=0;verticalAlign=middle;align=center;whiteSpace=wrap;" vertex="1" parent="1">
                    <mxGeometry x="271.5" y="270.5" width="118.5" height="40" as="geometry"/>
                </mxCell>
                <mxCell id="98" value="&amp;nbsp; &amp;nbsp; &amp;nbsp; Trestle AgileAuthoring&lt;br&gt;&amp;nbsp; &amp;nbsp; &amp;nbsp; /GRC* tools/CSPM**" style="rounded=0;whiteSpace=wrap;html=1;fillColor=none;strokeColor=#0e8088;align=left;" vertex="1" parent="1">
                    <mxGeometry x="120.5" y="306.5" width="146" height="49" as="geometry"/>
                </mxCell>
                <mxCell id="99" value="" style="shape=image;imageAspect=0;aspect=fixed;verticalLabelPosition=bottom;verticalAlign=top;strokeColor=#000000;fontSize=16;fillColor=none;image=data:image/png,iVBORw0KGgoAAAANSUhEUgAAAyAAAAMgCAYAAADbcAZoAAAAGXRFWHRTb2Z0d2FyZQBBZG9iZSBJbWFnZVJlYWR5ccllPAAAT9BJREFUeNrs3Ql4XXd9J/z/1WLZltcscjY7ihMgKzFLKQmbQimQ0ilOp9CXvi047dOFt9Mm7rTP8z6dtom7zEyBGSedDgX6tnamZesMxKFAgVIiU0iclBA5sbMRYsUJWZTElrxquzrvOfdeObIt2bJ079U953w+z3NyJZ0b2/d37nK++v3/5x8CAAAAAAAAAAAAAAAAAAAAAAAAAAAAAAAAAAAAAAAAAAAAAAAAAAAAAAAAAAAAAAAAAAAAAAAAAAAAAAAAAAAAAAAAAAAAAAAAAAAAAAAAAAAAAAAAAAAAAAAAAAAAAAAAAAAAAAAAAAAAAAAAAAAAAAAAAAAAAAAAAAAAAAAAAAAAAAAAAAAAAAAAAAAAAAAAAAAAAAAAAAAAAECtFJQAID9O/2xf1/jXUYjWxJ8CyybsPj/+vvPlb6MjnxJR+Sa575qXPzmi8U+S/vi/PUd+cuz+8s+2Hv3pE/XEe/sr3/UPXHduj6MDIIAAkBJn/P0LpTARn9QnASLZlsbfr6mEgDWl8HDMO345LEQn+FQ4LoAcc5/ouP/nBAHkmL8nmuLPDL2lrfzvGg8t5bBSCD37fua8fkcbQAABoB4h4+9eLAeJELrCkW5FNB44Su/ox5/UTx0CGjSAHNl//L/1yLc98U/6K12V8e5Lz75/t1I4ARBAADhVZ972Ume5e1HqYFyZBIyo/P0k7+BHn+TnJIAc9W+b8Gf0R+VwkgSSJ0vBpBB69r9nlWACIIAAUAobm/d0xifMXfG78ZXlwFHqbhx3sh0VpnoHF0COf/zH/b29odwl2R5/350ElP0/db5QAiCAAGRbx6Y9y46EjEJ4WzQ+N2OKk2kBpGoBZLKa9Mb/7Y6/3x5/3X3g2vNNggcQQABSHjj+dm95vkYhelsodzbWTB4WBJA5CCDH/pnluSSleSVR94F3d3Z7BgMIIAANbcXflANHHBaODhzHnuQLII0YQCar2ZZ42xrXvvvguzp1SAAEEIAGCB3/X39y+ds4bETvrYSO48OCAJLWABImHM/+ciCJtsb32XLwnReYQwIggADULXSsjW/GA0fnsSetAkgmA8ixf2/SEbkjCSVxGNEdARBAAKrnrL8eWBafLpdDRyGsPVkQEEByEUAm6k26IkkgOfiTF3R7xQAIIACnHjo+NZDM51gbv0smnY610SQn2wKIAHL844/KQ7UK4Y5D71i9xSsJQAABOHnoKA+vWjvxXVIAEUCmGUCOvbJWEkJujcOIYVoAAghAJXh8cl8cNqIPhXLHY9J3SQFEAJlBAJl4n95yGIluPfQTF/Z61QECCEDOnP2JfWviE8skdKwL44sBTnlCKoAIILMOIBMfSbLeyK3xV1sOv/1CV9MCBBCADIeO8SFWN4RkjY5jQ4AAIoDUJ4BMPFab4+22OIh0e4UCAghAVoLHX+1fUwodhdKVrJZNGQIEEAGk/gFkXG/8mG9NAsnhay7SFQEEEICUBo91YbzbMcXJtgAigDREADn6790cb7fGQcTEdUAAAWh053x8f2dUntdxQ/wOt+yEQUAAEUAaM4CM/6ynFES6LtrslQ0IIAANFzwOdFWuZLUumuZJrQAigDR4ABn/P3rjm9vimtwy+LZXGJ4FCCAAcxo8/mcSPMJN8dY1ftIqgAggGQsg4zUZX1dkQxxEer36AQEEoL7BY10leHQee9IqgAggGQ0gE/dujvdvGHyrIAIIIAC1DR5/WQkehQnBQwARQPIXQMb3l1Zaj4NIt3cHQAABqGrwOBgHj+jljsekJ3kCiACSuwAyLg4g0YbBt75SEAEEEIDZOPd/JMEj3BQd6XicKAgIIAJIbgPI+PMkCSAbht4iiAACCMCMgkeodDyiwkmCggAigAggE/+tydCs9XEQ6fVuAgggACcKHn9xMFmtfOOxczwEEAFEADmlADJ+n80h6Yi8WRABBBCAY4LHoa5Q6nhEXZOeLAsgAogAMpMAMr7vlnIQeZV1RAABBMh58Lj1UGcodzzWnigICCACiAAyqwCS/Kc//v7WoTe96mbvPIAAAuTOebceWhaSyeUh3Hiyk1oBRAARQKoSQMa/742/Wz/8pldt8U4ECCBAXsLHupB0PUJYFk3jpFYAEUAEkKoGkPHvukM5iPR4VwIEECCbweOWw13xqU8y3GrNcaeoAogAIoDUO4CMf39LsobI8NUXmx8CCCBAZoJHMtwq6XisO/YETgARQASQOQ8gyU+S8LE+DiGbvWMBtdakBEBNw8fGw8kcj13l8AE0qOSXBJvm3fXInfPufmSNcgC1pAMC1Cp4JCcxSdej60S/udYBOb4mx/89OiA6IKHWHZBj/58N8XbL8FWGZQHVpwMC1CJ83Bzf3F8KH0Aa3ZS8hufd/YjXMFB1OiBA1az874NdySTzaMIk8+PfaXRAJv27dUBOWDMdkFDvDsjEx1+apD7yxkt0QwABBGiY4FFa0yOU1vQ40UmQACKACCApDCDJf3vj/1wfh5Bu73jAbBmCBcw2fHSF8nCrG1UDMqsz3u5s3fbwxnhbphyAAALMTfj4b4M3JycllZMTIPtuDIVwf+s9D3cpBTBThmABMwkeyRyPTfG25tSGgZT3G4IVDMEyBCttQ7Am23/LyI9fst47InCqdECAUwwfQ8lQq/tL4QPIsxtb73n4/tZ7HvJeAJwSHRBgesHjY0PJuO/b43eNrhP+hlkHRAdEB+QEn7aZ6oBM/HetH3nDpbd4pwSmQwcEOKlVHxuKQ0dpNfMu1QAmsbHl3odujzcT1AEBBJh1+Lg5vrmzEIITC+BE1sbbrjiEdCkFcCKGYAGTB4+PThxyVfbykBVDsI6/jyFYRz9HTvI8MQQra0Owjn08G0Z/7NKbvZMCAggw3fDRVQofSddj0pNLAUQAEUAEkBMGkMSWeLs+DiJWUAeOYggWcEz4GL45lNf2MOQKmI1kSNb9Lf+201WygKPogADl4PGR4SRwbIrfFdZO9dtOHZCgA3KSY6UDogMyyfOoP/5+/ejrL9vsnRZI6IAASfhIfkOZdD3WqgZQZaVfbrR8b+cmpQASOiAgfCShY1MYH3J1gt926oAEHZCTHCsdEB2Qk7zme+LtmtHXX2ZeCOSYDgjk2PkfGU5WNb89mO8B1EfSbb2/+XvmhYAAAuQvfPz5cNL12KgSQJ11xtudzfftNOQTcsoQLMhd8BhZFkKUzPdYc9wwkCPvCoZgHftvNwRrsvsYgnX84zcEK0zjWE34d64vvu6yW7wzQ77ogEC+wkdp+EMoD4MAmGsbm+/bYXI6CCBAJsPHfx0Zv9JVp2oADWRdHELubP7+DnPRQAABMhQ+1oVy58MHPNCIukIyL0QIAQEEyEz4MMQBaHTlK2R9f4choiCAACkOH5uEDyBFOkO5EyKEgAACpC58/JdS+FinEkDKLCuFkPt3dCkFCCBAasLHqPABZCCEPOh9DDKoRQkgOzr/y2jpQzve1kTKAaTfpqb7Hwxjr7lis1JAduiAQAbDh2oAGQsh65QBBBCgkcLHfxY+ACEEEEAA4QOgOgpxCOl58GaFAAEEED4A6uWmOIS4tDgIIIDwAVA364QQEECAeoePPysKH0DeQ8jNygACCCB8ANTLTU3bH1inDCCAAMIHQL1sEkJAAAGEDwAhBBBAIO0K8Yes8AEweQgpCCEggADVc8GfFpPwsVYlAE4QQh54wPskCCBAlcLHOpUAmFYI0SkGAQSYRfi4WfgAmLbSXDkhBAQQYGbhIwkeN6kEwCmHkNvjELJMKUAAAaYdPsbWhlCw0i/AzHSGUidkuxACAghw0vDxJ2PJ0AHhA2B21oRCuF0ZQAABThw+xtf68Fs7gNnrKjy43S90QAABhA+AulkXh5AblQEEEOB4FhoEqI2NcQixRggIIMC4C/5kbGOw0CBALW2KQ4hf8oAAAlzwx2Pr4hvDAwBqq3x53h2ujAUCCOTY6j92xSuAuimUL8+rECCAQF7DxzIfhAB1tybscGUsEEAglwqueAUwN9aFHT3rlAEEEMiN1X8cJZPOTYYEmDub4hDifRgEEMhB+NgQrQsmnQM0gtvDzh6daBBAINPhI/lt20aVAGgInaUQAgggkNHwkfyWLZn46LdtAI2jK+zsuVkZQACBLDLvA6Ax3RSHkC5lAAEEMqMy72OdSgA0LPNBQACBzIQP8z4AGt/4MFlAAIHUM+8DIB3Whp09rlIIAgik1+oN1vsASJmNcQjxvg0CCKQyfHQF630ApNEm80FAAIG0hY/kg8u15QHSKemA3KQMIIBAmpj3AZBuN7o0LwggkAqrN0RrQzKREYC0MxQLBBBo+PDhMo4A2dEZXEYdBBBocIZeAWTLurCzR1cbBBBoPIZeAWSWoVgggEDDhQ9DrwCyK3mPd1UsEECgoRh6BZBtrooFAgg0BkOvAHLDUCwQQGDOw0fyQeQKKQD50BmSTggggMAcuqnygQRAXt73d/asUQYQQKDuVm+Ikg8gvwkDyB+dbxBAwAcQAHXTFXb2rFMGEECgblZviNaVPoAAyKuNJqSDAAL1Ch8mngNgbRAQQKBubgrW/ACgvDaICekggEDtmHgOwDF0xEEAAR80ANRNMiHdYrQggED1VVY871IJAI7hl1MggIAPGADqpjPs7LlZGUAAgapZvSG6MVjxHICp3eCyvCCAQLXCh0stAnAyPitAAIGquTG47C4A0/m82NnTqQwggMCMVbofN6gEANOkCwICCMxKMvFc9wOA6VpncUIQQGBGVm+IOksfJABwalw1EQQQmBFtdABmIlmcsEsZQACBadP9AGCW/BILBBDwwQFA3eiCgAAC06P7AUCV+GUWCCDgAwOAutEFAQEETkz3A4Aq80stEEDABwUAddNlXRAQQGBSlVXP16kEAFV2gxKAAAKTuVEJAKiBZHX0TmUAAQSOqHQ//IYKgFoxxBcEEDjKunhbpgwA1MjasLPH5wwIIHCE7gcAtZSED0N9QQCB0vCrdfFNp0oAUGN+2QUCCJR8SAkAqINlYWfPOmVAAIEcW70hSq7N3qUSANSJLggCiBLggwAA6mZN2NnTpQwIIJBDFh4EYI4Y+osAAjklfAAwN58/LsmLAAK5ZPgVAHPFJXkRQCBPVm+I1gaX3gVg7hiGhQAC3vgBoG46w86etcqAAAI5UJl87k0fgLn2XiVAAIF8WKcEADTE55HJ6AggkAsmnwPQOCEEBBDIrsrK550qAUCDMCcRAQQyTvcDgEaSrIy+RhkQQCC7TD4HoNHogiCAQBZV1v4w2Q+ARuOXYwggkBUdHR1t8bY42cLo4ferCAANyJog5EqLEpD2gBHfzIu3hZXn8+LKrkUT79d8zlWLQ8uCD6gYAA0qWRNkizIggEDjBI3m+Ka9EjSSrW1C2Igm+V+O+tm8N/ze21QRgAaWdECuVwYEEJi7wLFkQthYUgkcU4WNk2o67VVdqgpAA1tWGoZ12RpdEAQQqGPgmLhF1fqzk+FXhQVn6IAA0OgMw0IAgRoGjvZK0Fheua0Zw68ASAnDsBBAoMqh47RK2Ehu2ybsimr59xp+BUBKGIaFAAJVCh3jW/Nc/BsK85e/1pEAICUMw0IAgVmGjonPsaje/5b5P3Xb20KhebGjAkBKdCkBAghML3Qkczo6KlvLXISNyTSfeaU3cgDSJFmUcE24bE2PUiCAwPGhI3n+JF2Oc0J5jY6GU2jvMAEdgLRJJqMLIAggMCF4JGHj3DCH8zqmY95Vf/BKw68ASKFkHsjNyoAAguDR0bEilIdYLZ3w46hhn9yd7+xy1ABIoTVhZ09nuGxNr1IggJDH0JE8R5LgkQyzakvTv72weKXhVwCkVVe8bVYGBBDyFjzOrQSP8edJlJZ/f2n189aFr3QkAUip9wogCCDkOXikjtXPAUi5LiUgq5qUgPHgEW/nx1++Id5WpT2cNi294HWOKgAptqx0OV7IIB0QwWO843FuSOFQq6kUFpwugACQdi7HiwBC5sJHEjrOz9rzoPXyD50dmtvOdoQBSDnDiRFAyEzwWBbfvCre5ocMdDuOe1Jf+DO6HwBkQZcSkEXmgOQreMyPtyvjL6+shI9sPqmXrX6tow1AJuzsEULIHB2QfASP5DifF8rDrTLP/A8AMiQJIN3KgABCmsLHGfHNRSFliwjOlPkfAGSMeSAIIKQmeMyvBI8zKj+KcvGENv8DgGzpUgKyxhyQbIaPZLjV6yeEj/w8oc3/ACBrrAdCxuiAZCt4JF2Pi0OyeFFetS19pWcCABnTFawHQobogGQnfJwV3/xYvC3Paw2az7lqcaG1XQABIGvMAyFTdEDSHzySY3hJyOFwq+OezBf/vPABQBYZgkWm6ICkO3wkQ62uEj7Kmle8xvwPALKoM+zsWaYMCCDMdfi4IL55TdDFOqKw4AwdEACySheEzHDymr7gkRyzV4fyRPNIRSYEkPnLdUAAyKquYEFCBBDmIHwkE8yvcNyOV1qAsNC8WCUAyCgT0RFAqHv4WBnfvEIlJtfU8ZpzVAGADOtUAjJz3qYEDR88WuLtEuHjxExAByDzAcREdAQQ6hE+4pvkxNpv90/CBHQAcsBEdAQQaho+kvkMb4o38xqmo2XB2YoAQMZ1KQGZOG1TgoYMH8nJ9Csdn+mzAjoAOXC+EiCAUKvwcalKTF/b2295nSoAkAOdSoAAQrXDx2XxzVkqcWqaFq80/AqAPOhSAjJx7qYEDRU+nEjPQGHhGeoGQD7s7OlUBNJOB2Tug0dyDF4lfMwigLgCFgD5kQSQXmUgzXRA5j58vE74mG2MdgUsAHLDpXgRQJh1+HCZ3VlyBSwAcsSVsEg9Q7DmLny8Pt4WqcbstF72Qd0PAPJEB4TU0wGZu/Ch81GNJ3DHGgEEgDzpVAIEEISPuXwCn36J4VcACCAggCB81EehZYF6ApAvLsWLAMI0rRE+ahBAFp75ClUAIGcEEAQQTqyyyOBylajFM7hVqANAAIEUcRWs2oePy4N1Pmqm0DJfbQEQQCBN529KUNPwkVyrO1nlPJriLtE0f+a+U/x80W8+f0+6X3lR+QEVpt4/8WdHPfhCdMJXc+lPPtmfW5ik0IXj/96j/q8T7D/yNxdO9E4THf9nTvFvO+r/Osn+iTWJpvq3TVKzKJzkzy0cdaSm+HuPrkl0sr93sr/7JDWLpvH3Hv8cOfGxSvZEg4Oh+Ozzpe9Hn+kL0eHB0v3G9gyEsb0Dx73okp8l+4CG0j3Fz3vibfwF21vZ+sPujT1KxlzSAald+DinEj6okeZz3mj4FUxDEhqKyRYHjdLtM8/HwWMoDhzPKw5kQ9cp/XzV+onBpT/eth8JKLs3disnAkg6w0dyYny5StT4yfuq95uADpOEjZEnngyjSdh4tq90W+pqAEwdUNYeE06SMNJTCSbdpa93b+xXLgSQxg4fP6YSQD2M7Np9JHCMPLG7NKQKYJY6K1sSTG6qBJOeSijZWgoluzf2KhMCSGOEj6Sel6trfViEkDwqBY1dT5a24YceUxCgXtZUtnWVQNIbyt2ROyqBRIcEAWSOvCZY66NuLEJIXgw9/Fg5cDz8aGkOB0AD6KyEkfFAMh5GtuiOIIDUSUdHx8XxzWlh6qs3AZxC6Hg0DhyPhaGHHjWsCkiDrsq2sTJc6zZhBAGktuHj3PjmfJWoL6ugkzXJ8KrDd99bCh9CB5Bi48O1hBEEkBqFj2QY0MUqMQesgk4GFPv7w9D928Pg/Q+UvgbIcBjZUgojuzduURYBhJmHj6R+V6gjcKpGep8Mh+6+p9TtAMiJtaVt1frkty23xttmXREBhFOXdD78Fn6uNLUsUgTSJBlWNfTIo+Hgnd/W7QDybFkoX973pjiMbA7lrki3suRHQQlmpjLvY7LFBqNp/sx9Z3nfRb/5/D3pf+VF5QdUmHr/xJ8dVZRCdMJXc+lPPtmfW5ik0IXj/96j/q8T7D/yNxdO9E4THf9nTvFvO+r/Osn+iTWJpvq3TVKzKJzkzy0cdaSm+HuPrsmxjz8aOhwObbu31PEwtwNgUt2VILJZKQQQJg8fC+Kbq8PkHSRBQQARQASQkqTLcbB7axjs2e6NE2B6euNtgyAigHB8AHlTcv4rKAggAogAMlnNRgcEDwBBBAGkeuHjovjmIkFBABFABJBja5YMrzqwdWs4tO2eAIAgwuRMQj+18LGkEj6YY62XffBsVaBRJMHj0D3bwsFt5ngAVFlnvG0Kq9bfEN+uN1ldAMlb+GiNb16jEo2hqWONAEJDOLy9JxzcutVVrQBqK1lL5M44iCQB5HqX7xVA8iLpfCxQBiAx+txzYf83vh6Ge30GAtRRV7ztioPIhvj2ljiI+O1PCjUpwcl1dHScFt+crxJAMsRq/9e/Hl761CeFD4C5k6wjcn8cRNYqRfrogEzPJUoADD36SBj40h3meQA0hs54u92wrPTRATmJylWvrHYOOZYEjv5/+HxpEz4AGk5XKHdDblSKdNABOXH4WFBJ10BOlbseW8KY4AHQyJbF28Y4hLw36IY0PB2QE3t1vLUqA+RPqevxvz8X9v7D54QPgPToCuVuyDqlaFw6IFPo6OhYEd+cphKQP8NP9pbCh+ABkEpJN2TThG6IK2U1GB2QycNH0vUw8Rxy6MC3u8Oev9ssfACkX3KFrKQbskYpBJA06AzW/IBcSYZc7fn7zaUAAkCmzulMUG8whmAdozLx3JofkCOlIVf/57O6HgDZlUxQf1swJKsh6IAc7xXBxHPIjUP3bgt7/n6T8AGQfcmQrDsNyRJAGkql+3GuSkA+9P/j7WHfP/+TQgDkx5pKCLGCugDSMF6tBJB9Sbfjxb/5q3D4gR7FAMif5CpZt5sXIoDMuY6OjtODy+5C5o08/1wpfCS3AORaMi9kkzIIIHPpFUoA2Q8fez69KRQHzD8EoGRdHEKSbsgypRBA6kr3A7Lv8IP3l8KHyeYAHGN8croQIoDUle4HZDx89H/5duEDgKmsEUIEkLrR/YB8hA8AmEYI2eUyvQJIPeh+pNDQnb/zfVVA+ACgypIOiLVCBJDa0f0A4QMAhBABpJ4sOghZDR9fET4AEEIEkAZSWfX8PE8ByJZDwgcAQogA0qDM/Ui7qLhfERA+AKhDCHF1LAFkdjo6OlrjmxUOf8rzx/CBH6gCwgcAQogAkgbJ3I9Whx+yYXj3rtD/1S8qBAC1Yp0QAWTWLnDoIRtG+p4Ne774GYUAoB4hRKtdADl1HR0dydCrhQ59+kWDex5ThXwbGxoML33mb0u3AFAHXWHV+k3KIICcqpUOe0aMDh5QhByHj0HhA4A5sS4OITcqgwAyLZVL75p8DhmQzPlIhl8BwBzYGIeQtcoggEzHWQ55dowN7DIEK6f2f/fOMPiDhxUCgLm0yRohAsh0mHyeIdHgXuuA5FASPPZ/91sKAcBcW1YJIa6MJYBMrqOjY0l8s8Ahz1AAOfyiOSA5kwy5crldABrImlIIQQCZwnkOd7YMb/vPhmDlKXAODpbCh0nnADSYtWHV+puVQQARQCBjBr71VZPOAWhUN8UhpEsZBJAjKmt/WPk8g6Khge+rQvYd2nF/vDnUADQ080EEkKO4+hWkVHGgPwx86ysKAUCj6wzmgwggE1j7I6Oshp59L235tHkfAKTFWosUCiCGX2Wd1dAzbf9d3zLvA4C0SeaDdCpDjgNI7HSHObssRphdSfDYZ70PANKnvD4IuQ4g5n9kmMUIs2vvP1nvA4DU6jIUK6cBxOKD2Td05++4NFIGGXoFQAYYipXHABIMv8qHqKgLkiHFff1h312GXgGQeoZi5TSAGH6Vh/wxfOAHqpAde//pC4oAQFYkQ7HWKkNOAkhHR0dy5SsdkDwEkMG9JqJnxKGd3w9DT+1SCACyxAKFeQkgwkeOFAcNwcqAZK0PCw4CkEFJ+LhJGQQQspQ/nr/fRPQMOHjfXRYcBCCrbjQhXQAhQ8b67n9GFVIeIvftDfvu+heFACDLTEjPcgCpzP9Y4vDmw8iO2551Jax067/zq4oAQNYlE9K7lCG7HRDdj5xxJaz0SiadDz7+kEIAkAcblUAAISsBxJWwUmv/3YZeAZAba8Kq9esEkGwy/CpvAWT/0wJICiXdD5fdBSBncn9FLB0QMqH4/PcFkBTap/sBQP505r0LkrkA0tHRofuRQ8Pb/kwASRndDwByLNddkCx2QHQ/cioaGrAeSIrofgCQY7nugmQxgCz1nM5pADERPTV0PwAgv12QLAaQBZ7POQ0gJqKnhu4HAOS3C2IIFplhIno6DD2t+wEAFTcIIClnAnq+lSaiWxG94R3aaaoOAFSsyePq6FnrgCz0PM43K6I3tuK+veGgAAIAE+WuC5K1AKIDkvcAcvDZ+1ShcQkfAHCctWHV+k4BJL10QHKu+Pz9znAb2IHvf1cRAOB4ueqCZC2AuAJWzg1960YdkAaVzP0YGxpUCAA43joBJL0MwcKChA3q4EMOCwBMYVmeLsmbtQDS6vmLeSCNJ5l8PvTUEwoBAFN7rwCSMh0dHdb/oHyyax5IwzH5HABOKjeT0Zsca7LGPJDGY+0PAJhmCBFAUkUHhCPMA2kcIy88G0b37VUIADi5XFwNSweETBobeKJbFRqDS+8CwLR1hlXr1wgg6WENEI4oPv2vhmE1iMM/fEgRAGD6PiSApIc1QDhi+O4/eyxExf0qMbeGnt5l7Q8AODWZnwdiCBaZFR3s26oKc+vw47ofAHCKMj8MK0sBZKnnKxONDTxhGNYcGzT8CgBmoksASQeLEHKU4Xs/qgMyh1z9CgBmLNPzQAzBIrOKz9y9Pxoa0AWZI0NPW/kcAGZoTVi1fpkAAikUDezSBZkjhx9/WBEAYOYyOxk9EwGko6Njiecokxl5+LPdqjAHwW9oUAcEAGbnbQJIYzP/g8kDyI7Nz0Yjhx5TifoSPgBg1roEEEipaP9ThmHVO4A8tUsRAGB2ksvxdgogkEKjvd/oVoX6GtQBAYBq6BJAIIWG7/7Tx0Jx6FmVqI9k5fPkErwAwKxlch6IAEI+TooPPNutCvUhfABA1XQJIJBSoz/8xy+rQn2YgA4AVdOZxfVABBByIRmG5WpYdaq1DggAVFOXAAIpFe19TBekDnRAAKCq1gggkFIWJay90X17S5PQAYCquVIAgbQGkGRRwqGB+1SidopxAAEAqkoHBNJs7MWdhmHV0NDTFiAEgCrL3ER0AYRcGf63j3aHqLhfJWpjVAcEAGohU10QAYRcKf7orv3Rob6tKiGAAECKdAogkOYQ8tS3/1EVasMVsABAABFA4BiD//Lb94XisMUqqszVrwCgZt4mgDSefZ6XnNLJ8ksPfUYVqmvkhWcUAQBqwyT0RtPX1zfiecmpGLprg6thVZn5HwBQMyahQ9qVJqMffFYIqWZN9/UrAgAggMCUJ8wmo1fV2NBhRQCAWlm1vksAaTwvemZyKkxGr67hF5QSAMhXAIFTVnzue59SBQAgBTIzD0QAIdesjF7FMGcSOgDUUmauhJWlAPKS5yWnfNL8o7v2j+1/2mT0KnAVLAAgbwEEZmSk5xPWBAEAGt35AkjjsRghMwsgD/7tM9HBZ10RCwBoZJ0CSAOeR3peMuMnz2Nf1AWZhaGnn1AEACB3AcQiBMzY8F1//Fg0tO8+lQAAEECmpa+v75DDyWwUd33tk6oAACCAnArzQJixwX/5rfuikUOPqQQA0IA6BZDGZB4IszL2wnZzQQAAAUQAmTZrgTArh29f+4+hOPyMSgAACCDTOn90SJmt4vP3fUoVAAAEkOkwEZ3Zp1hdEAAAAWQ6+vr6DMGiKnRBAAAEkOkyDIvZP4l0QQAABJBpGnBYqYbi8/dZFwQAaBT9AkjjshYIVaELAgA0kB4BpHGZB0LVjD5+x82qAAAggJyIDghVM/jN//C9aHjffSoBACCATKqvry9ZDd1EdKqmuOvr5oKcRPOS5YoAAOQzgFQYhkXVlLogh1/qVomptQggAEDOA4grYVFVw9/7bx9TBQBgDm0VQBqbDghVNfLA3zwztm/3Z1QCAEAAOU5fX18yEX3E4aWahu5c/8kQFferxOTazlutCABAPgNIhS4IVVV8+jv7x17caUI6ADAXrAMigJBHh/7hJz9tccIp3kza5isCANSOldAFEPJq9PEv3aQKx5t35jmKAAC10yuANLjKPBDrgVB1g9/8ze9Fg3vuVImjFXRAAKB2dm8UQFJCF4SaGP63//4xE9KPNu/MsxUBAGqjN0sPJusB5DnPV2ph5IG/fmas/wmX5Z34ZtK2QBEAQADJfQDRAaFmDn3mzZ8Io4ceVYmyVh0QABBA8h5A+vr6krVAnvecpVZGf/hVK6RP0LJkuSIAQPU9KYCkiy4INZNMSB/bt/vTKlHWLIAAQC10CyDpYh4INTV05+9YIb1ivtXQAaAWegWQFOnr60suxbvP85ZaKT79r/uLu7v/SCWSDsgyRQCAasvQJXhzEUAqnvbMpZYOf/kX7rQ2iMUIAaAGurP2gPISQAzDouYGv/7rf5T3oViuhAUAVdcjgKRQZRiWq2FRU8Wnv20oVqzNPBAAqKbtAkh66YJQc4ZiWREdAKpMByTFdECoi7wPxTIMCwCqaPdGASStKosSmoxOzeV9KJYhWABQNd1ZfFBNOTuIAgh1URqKtf+pXC5Q2LJkWWhqm+9JAACzt1UASbm+vr5kVfTDnsvUw+Cd//GvwujhR/P42HVBAKAqugWQbNjluUw9FJ/aun9k59/9YS4DyMoLPAEAYLZ2bxRAMsIwLOpm6Dt/+OjYizs+krfHveDCSx18AJid7qw+sNwFkMpk9Kc8p6mXQ5//iU9Hw/u/l6fH3LxkeWiJNwBgxrZm9YE15fSA/shzmnoa/Nqv3Ji3S/O2nWcYFgDMwhYBJEMqk9H3eF5TL8l8kNEf3HFjnh7z/IsMwwKAGerP4vofuQ4gFeaCUFeD//zh7431P/6JvDxeV8ICgBnbkuUHl9sA0tfXlwQQl+Slrg59+k1/FQ3u/VYeHmuyFojJ6AAwI3cIINn1A89v6m3wG7/xh6E4/EweHusCw7AA4NTt3qgDkmHPx9uIZzn1VHyqe//IjttuyMOk9Pk6IABwqrZk/QHmOoBULsnb63lOvQ396x88Wnzu+5lfH8QwLAA4ZXdk/QE2OcalAKILQt0d/sJP3xHtf/rvs/44DcMCgGlLrn61WQDJOF0Q5tLB217/kawvUmgYFgBM25Y8PEgdkLIkgOiCMCeGvvarN4TRw49m9k0mGYalCwIA03FHHh5ks+McwsGDB8fa29uTWpymGtRbNNA7XFh45gPNK668NhSa2ko/LExyx8Ipfl+v/2caf0ahpSUcfvQBBxsAptYbdm/8cB4eqA7IxIOuC8IcGf72Hzwy+viXb8jq40s6IEknBACY0pa8PFAdkIpKF2Qo/nKFajAXio9/+ZmW87ueKSw65+1Z64Ak3xcPHQjDzz7lQAPA5D4QBrb15+GB6oBM0NfX96NgdXTm0OH/nVwZ60eZvDLW4tde7QADwOS6w+6NvXl5sALI8R5WAubSoc2v+/PoYF/mJqE1L1ke2laudoAB4Hi35unBGoJ1jIOx9vb20+MvF6gGc2VszyP/1nLRe94UmlrOOPLDlA/BSiTzQExGB4Cj5Gby+TgdkMnpgjCnik/euX/wK7/8y2H08CNZelzJZPSWJcsdYAB42a15e8ACyCT6+vr2BYsT0hAh5FeuD1Fxf5Ye15Kr3u7gAkBZMul8swDCuMeDy/LSACFk5MHbMhVC5rskLwCM2xx2b+zP24M2B2QKLstLw4SQ3m+9WFh4+nebV7z65YUKEymcA1L6sqUlzlPFMPT0LgcXgLzLzaV3BZDph5D9cQhJVkc3IZ25DyELTv9u01mveX/aA0iidcXZ4eD2e+MgMurgApBXSffjtjw+cAHkJOIAkgx9WakSNEIIae68prxQYcoDyJEuyFO6IADk1nV57H4kzAE5icqE9MdVgkYw+Pmf3jL23Pf/UxYey6LXXm0uCAB5tTlPCw8eSwdkGg4ePLinvb09mQvSphrMtdGdn3mkufPtzxQWn/0TR+1IUQck+V4XBIAcy233I6EDMn0PKgGNYvDz78lEJ0QXBIAcynX3I6EDMk0HDx4cam9vT748TTVoBKM7kk5IMiek0glJWQekdKMLAkC+JF2PD+S5+5HQATkFfX19yVyQ/SpBoxj8XPrnhLS/9urQbHV0APLh1rx3PwSQmTEUiwYMIfenNoQkQ7CWXG11dAAyL+l63KIMhmCdsspQrGTxgjNUg0ZRGo51wdt/dGQ41rgGH4I1rrXj7DD4w4fD2MEDDiYAWfXhsHvjNmUQQGYaQvrjELIk/rJdNWjoEJKSAJJoOf3McGjn9x1IALKoJw4fH1aGMkOwZi4ZimUZZxrK4Gffs2X0gf/1s1FUTN1cpbaVF4SFl7/WQQQgi9Yrwct0QGbo4MGDY+3t7QPxl+eqBo2kuOubLxbaO77T1HHFT4VC4ei1axq4A5L8rG3l6nBo+70hKsr2AGRGctndW5VBAKlWCDkch5DkVMqleWkoY7v+pRxCVhwTQho8gCSX5U22od4fOIgAZEEy8fzaMLBtUCkEkGqGkD3mg9CoISTqe/DzzRdd+5bQ1HJGGgJIYt45K8PwU7tCcV+/gwhA2pl4PglzQKojmQ9ifRAaTvGJb+4b/vKvfzCMDj6Spn/30mt+ysEDIO264/CxWRmOpwNSBZX5IMmva88S6mg00d4nhqMXHvpq06q3nFGYt/CSo3Y2YAek9MbUvjgU4u+tkA5ASo0PvdLOn4ST5Srp6+tLOiA7VIJGVHzim/sHP3Hl70eHXrw9Lf/mxVe/vbQ+CACk0AYrnk9NB6SKDsYsUkgjG/3eJ/6lefU7niksWlFeK6RBOyDj3yfzQQ4/8qCrYgGQJt3W/BBA6h1CBuIQsiD+crFq0IiKD376kaaOS+9tWr76HcddprfBAkhpKFZyVaxdrooFQCokQ66uctUrAWQuQkhfHEI64i/bVIOGDCGPfulHhUVnfafpzEveEpqalzRqAEkkXZCRF54No3tedOAAaHQfCLs39iiDADIn4gDyXCgPxRJCaEhjT3zzxeiFh7Y0X/iTV4bmeec2agBJzL/gleFQjwUKAWhot1hwUACZU5UrYyUhZGUw2Z8GFe19Ymj0nr+8vfnVv7CkMG/RlY0aQJJhWEkn5NCO+x00ABpRTxw+rlMGAaRRQkgybsTleWloxe996l+bLnzHjwrtZ77huHkhDRBASm9Wy5aHprb55oMA0GiSeR/XuOSuANJIIWQ4DiEvCSE0fAh54NMPF5ac852mMy9+Syg0LWm0ADJ+VayRPvNBAGgoH7DauQDSyCHkPNWgkY398J9fHHvh4dubVl+zutDStrrRAkiibfUrwtCux8PYwQMOGABzLVnv4xPKIIA0cghJLsnWoRo0smjPD4eK93z8q82Xv69QmL/0DY0WQMrzQc4Lgw9bHwSAObU5Dh/rlUEAafQQsl8IIS2K9/3NvU0rLr+3cNoFR68XMscBpPTG1b44zDvXpHQA5kxyqd0PWO9DABFCoNoh5JEv/Sh64eHPNV/0jjWhufXcRgkgpTevZctD89LlYfAHDztQANRTMtn8NWH3RpPOBZBUhpAzVYNGlwzJGt32l19suvhn9hUWnvbWRgkgyfetK84OxX39YaTvOQcKgHqFj2vi8NGrFAKIEAI1Vrz/tu2Fxed8s+nMV701NJ3gKll1DCCJ+a+4RAgBoF6udcUrASQLIeSF4BK9pMTY4//8YvTCI7c3rfzxeYV5i9Y0QgAZDyGDP3jElbEAqKXr4/CxRRkEkCyEEOuEkCqlq2T9219/u6nzTQ8XFp/91uMWLpyDAJJYcOkVpUUKhRAAahQ+NiuDACKEwBwae/AfnoheeORzzRe87cIwvmbIHAaQ5PK8QggANZCs9XGLMgggWQ0hT8dfnh5vbSpCGkQvPT5U3PbxrxzXDZmDACKEAFAD1voQQDIfQsbiEPK8EELajD3wD09ELz76uebVXatDy7wL5yqAJD9LQsj8OIQMCyEAzD58XK8MAkguQki8/SgOIgvibxerCGlR6YZ8uanzLQ8Xlpz11povXniCP0MIAUD4EEA49SDyQhxCRkO5GwKpUe6G/OCzhZVvaCvMa18zFwFECAFA+BBAmFkI2ReHkOTM6bRgcjopEgeQobF7//rbhXOuvKewbOWPH7VuSJ0CSOnb1jiEXCKEADBtydWuNihDbRWUoPF1dHQsim8ujbdFx57nTXX+N82fZfm+atNA9239D3ffUFh81rpQSIJIdNQ7T3Tcu1E06btTdJL95Z9Fk/6ZY4ODYc9n/jaMPG+xQgBOGD42K0Pt6YCkQOUKWcnk9IXx1q4ipM3YvX9zT2hu/UrTikvPm3SS+mSBoooT2ZPhWAtf82OhOLA3jFoxHYCj9cfbh4UPAYTjQ0gyOb0vDiLJt8tVhLSJnrxrX/Huj3+5cM6aewpLzzv5sKwaXElr/qsujkNIfxjVCQHg5fBxTRw+vqYU9WMIVgp1dHQkAeSKEwRIw4EMf2r4+7Z+uHtdYfmqG6JCJYjUcAjWsfsPP9AT+r98uzcTgHzrCeVhVz1KUV86ICl08ODBwfb29h/FXy6Nt/kqQhqNfW/z/dFLP/xM06o3tIV5C19Tjw7I+PetK84KbedfEIYeeyREo6MOBkD+dMfbtXH46FUKAYTph5BkSNZzLtVLmkUvPDY0tu1T3y60zPtC4ezLLw3NrefVI4CU3vyWLgttq18RRp552hWyAPIluczudWFg26BSCCDMLIgkl+p9MZS7IfNUhFQGkd7v7hv77v/8QtN5r91WWNRxXimI1GE19ebFi0prhRRfejGMvvSiAwGQbeOTzV1md46ZA5IhHR0dF8Q3ncEcgzw+3kzdt+X6299ZOOfyPwxNLUc6ItWcAzLxHXD8Jwf+9c5w4Nvd3kgAsqk33q4z30MAoTYhJFkr5OJgzRAn9Bm4b8uvf+3nCmdceEMSRGodQJKvhp/sDf3/53OldUMAyIwtoTzZvF8pBBBqG0Q6Q7kbIoC4b+rv2/IbX//34YzVN5Y7IrULIKX/Dg2GgX/cEgYffcQbCUC6JYFjQxw8blEKAYT6hZCkC3JRvC0TQNw3C/dt/vDXf65w+gXlIFKjADL+/xy6d1tpSJZuCEAqucSuAMIcB5FkHP358dYigLhvFu57JIg0vzxHpNoBJJEsWDjwpS1hxMKFAGlySxw81iuDAMLch5AkfFwYb2cJIO6blfs2f/Dv31g477XrQ+v8N9YigIx/n3RCDmzt9kYC0Nh6Q7nr4Q1bAKHBgsiiShBZJoC4b1buWwoiZ1/2vrBgyc/VIoAkRp5/Nuz/+tdLE9UBaDjJpXVvMdFcAKGxg8gZlSDSJoC4b1bu2/TO3z+vac11vxwtWPa+UGhaUs0AElX2l+aGbN0aInNDABpBd7ytN9dDACFdQeTccPz8EAHEfVN938KVP7uk6S2/8a5w+vnrJ64lUo0AUvp/4vCRdEMOb/d5BzBHXOFKACHlISQJH+dWthYBxH2zdN+m6z/zxsI5l/9KmNf+rmoFkHHJcKwkiIw+Z5I6QB3dUgkfhlsJIGQoiJwT0n/FLCfp7nvU903X/uF5hcuvfX9oP/19oan5vGoEkHFJJyQJIoZlAdRUdyhPMu9VCgGE/AQRAcR9UxtAJmr65c+8sXDWJe8PCxa/rxoBpDws63A4dM894eC2ewQRgOpKxruud3UrAYT8BJEVlSAyXwBx36wEkPGfFV73viWFN//au8Py834lNLdcNpsAMv7XJAsXJkHkkCACMFu9oTzUarNSCCDkM4yMB5F2AcR9sxJAjnozfM8fVYZoLU+GaK2caQApfVWZqJ6EEEEEQPBAAGF2QWRpKHdFOgQQ981SAJn488IvfuKywqrXvT/MX/yu0FwOI6caQI58LYgATFd3vN0meAggMFUQmV8JIck23bVEBBD3TUUAOepN8pc+eWnh/Ne+P2pb9O5SZ+QUA0h5f1QKH4d7tofDd98biv0u3AIwwZZ4u9UcDwEETiWMnBbfnB5e7ooIIO6bmQAy8WeF925YGS6+5t1h0envD82tl51KAJlo6JFHw+Ft94ThXU96AwHyKvlNzOZK8OhVDgEEZhpEkknrSRhJ5oosFEDcN2sB5Chv/IXFhTf/8rWh/bSrQtvCa0OhsGS6AWT83TfphBy6+94weP92w7OAvOgphY6k62EdDwEEqhxG2iphJOmKtAsg7pu5AHLMzwvrPnVZOO+Kd4e2RVdHrfOunk4AmXgJ4MGeB8Lww4+GoXgDyJjeUB5mlczv6FEOBBDqGUaSbYkA4r5ZDCBH/ezqX1wafvwDV4clHVeHeQuvDi3Nl50sgBy52tbgYBxCHguH774njD77vDcQIK36K6Hjjjh0bFEOBBDmMowkw7SWx9vSym2LAOK+mQsgx3rzB5eE1/zMZWH5uW8Kbe1xIJl39VQBZOK7c7F/IAw/9GgY2dVbCiUAQgcCCMw+kCTDs5ZM2JoFEPfNXACZ7Oe/uumy6KyLro4DyeWhufXy0NJy+dTvzlFpgcPhOISM7HqytBX3DngDARpBTylwlOd0GF6FAEKqA8niUJ7I3iaAuG8mA8gkP4tu/EIybOvy0Dp/ZWhti0NJ65vG73rsxPZkeNZ4GBl5YrdJ7EA9A0d3vG0t3ZpIjgBCBgNJWyWItE8IJc1OvN03iwFksp9Hv/CRleGsi1ZGy89+U2iZtyo0t6wMTS2Xh0Jh6cTL/yaBpBhvw7t2h+Izz5s/AlRDfyVwbD0SPAQOBBByGkqaK4EkCSPzJty2OfF236wFkKl+Fv3Ery2NXvuey8K8+UvDwiVXhObWlXE4WRU1NS0JTc1XJPcZicPI2N7+cjgphZK+EB3WKQEmlQSM3njbXvm6x/ocCCAwvXAy3iFpq4SS5vDymiTzKpuTdAEkF3UZ+3+/9ObS8K2FS1aG1vmrSu/4La0rh3c+virZP/yDXUubli+7YvSJ3aX7F/cMxIHF3BLIqO7KbRIqklVQ+4+EDkEDAQTqHlame2JXDf7c9P25uarB6C33XxGaW5Kr1IU9v/dfvVFAegkWAAAAAAAAAAAAAAAAAAAAAAAAAAAAAAAAAAAAAAAAAAAAAAAAAAAAAAAAAAAAAAAAAAAAAAAAAAAAAAAAAAAAAAAAAAAAAAAAAAAAAAAAAAAAAAAAAAAAAAAAAAAAAAAAAAAAAAAAAAAAAAAAAAAAAAAAAAAAAAAAAAAAAAAAAAAAAAAAAAAAAAAAAAAAAAAAAAAAAAAAAAAAAAAAAAAAAAAAAAAAAAAAAAAAAAAAAAAAAAAAAAAAAAAAAAAAAAAAAAAAAAAAAAAAAAAAAAAAAAAAAAAAAAAAAAAAAAAAAAAAAAAAAAAAAAAAAAAAAAAAAAAAAAAAAAAAAAAAAAAAAAAAAAAAAAAAAAAAAAAAAAAAAAAAAAAAAAAAAAAAAAAAAAAAAAAAAAAAAAAAAAAAAAAAAORBQQloKKvWd8X/XRZvayo/ubLy/URdL38Z7S5vE5/UYw/GPxsIUdTfFIYeLESjA6cNf3XHDF8HhVm8fgr2ZXaf2ji+9jm+Ndl3oGXNFVGhrX20sHR1sm+ssPCCKDS3T7zPWGH+FRO+7a1sE/XE20C89Ve+7g+7N/Y4yUAAIe9Bo7MSJK6shI01kwSNKoseLJTCSvHBpujwd9qKTz24aLRnwAmMfY6vfR6/41vvfUPNq1YMNp1/RbFp8eqxsGD1WGFeHDia2mv86dtTCSvb46279P3ujf1OShBAyHLgWBtvb6sEj2WN8Q9LQknxO03R0HfnF3d9p310+4ATGPscX8dXbRzfau9LAsfh5oveWCwsuaJYWPDqOoSNUwklSRjZWroVSBBASHnoSLoaH6oEj850/KPH4jAy8tXW6IWvLB3eutsJjH0ev+Nrn+M7032HWi5ZPdh8wTuKhcVXRaFlRUo+vZMwcke8bYnDSK+TGQQQhI66ih5sigY/saD4+FfbRx8YcAJjn8fv+Nrn+J5sX0pDx1SS7sitlTCiM4IAQkOFjmWVwHFDeHnyeMZeKMXPNkcHPnva0Je/4wTGPo/f8bXP8Z1otGn5ooPNV1w13LxibRSSuRyZtDnebouDSLcTHwQQ5jJ4dMb/vakSPpbl40FHu5uiwT8/Y+iLn3UC4wTGPsfXvnwf36Hm81ccaLny/y4W2q9uoDkdtdYbbxviILLZiRACCHMRPNbluAoDhWj4EwuLD3+yfXTHgA94JzD2Ob725ef4vhw8Fv9kjj8HkyFZyfCsWwzPQgBB8Kh/EPlkHEQ+MUkQ8eHvBMY+x9e+DB3fOHicJXgIIggg1Cd4JMOrNgoeJ5IMzTr8kTOGbv+sD3gnMPY5vvZl6/iONp22aKD1zb8ueJxQbzA0CwGEKoWPm0N5cvkyxZhWENnREg38/mlDX/muD38nMPY5vval//junfeuXxxpOu26HM3xmK3kylnrTVZHAGEmwaMr/u+mkPpL6c7VC2v0s+2jO/5g4ehO80OcwNjn+NqXwuN7oOW1rz7c8sr/GIXmtF9Kd65srgQRw7IQQDhp8Eg6Hck8jxsVY9YGmqP9v3X60Je+6sPfCap9jq996Ti+o02nLd7XetUvjhaWrfUxNmtJ+Lg+DiFblAIBhKnCR1fQ9ajBi6z41fbRB3/rmG6IEwMnqPY5vvY12PGtdD1+V9ej6rZUgohuCAIIR4WPm0O580FNRE+1jr3wS8uH/3mHD38nqPY5vvY13vHdO+9dvzTSdMYv+ryqmd54uy4OIT1KgQAieCRDrm6Pty7FqL2maPA/nTH0hU86MXCCap/ja19jHN/kClf9rdfcNFaY/2qfUnWRzAu5RRkEEPIbPtbE/70zuMJVnV90yZCsB3574ehDJqg7QbXP8bVvDo/voZZLLzzQcuVHQmha5NOprgzJEkDIafhYF8rzPZgTYzvmF3d/cMnId59yYuAE1T7H1776H9+B1rf+5FDzyt/1eTRnkqFYyZCsXqUQQMhH+EgWFXSVq7k3MG/s+bXLhr+5w4mBE1T7HF/76nd897S958OjhWXX+Riac0kH5BrzQvKnSQlyFz42CR8NY+lw04otL7X9zLVKAVAf8Xvu7wofDSMZAn5nfG7iksc5owOSn+CRvMiTzsc6xWg8zdHB3zp9aMvnpvG6tK8x9qmN42tfyvYlk80HWt/8G8XC4nf61GlIyZyQzcqQk/MeJchN+Egmm79bMRpTVJj3U4PNFz61sPjIDicNTlDtc3ztq+6+JHzsnfeOj44VFvyYT5yGtTYsverJMLDNcCwBhAyFjzWKkZoQstNJgxNU+xxf+6qzbzx8RKH1Qp80QgiNwRyQ7Ltd+EiPYqH9f7zUtvb/UgmA6uhvveZm4SNVNlWu1IkAQiqVJ5x3KUTqQshfvNT270xMB5ilZMK5BQZTG0JMTBdASGn4WKcQaQ0hS/6if95PXK4SADMPHyacpz6EGMEhgJCi8HGj8JF6S4ebzrp9X+vVK5UC4NT0z3vHdcJH6o1fordTKQQQGj98JC3LjQqRjRAy2Hz+bYdaLlmqFADTs6/1qquHm1Z8WCUyE0Jur1xQBwGEBg0fSatyk0Jk6iV6+cGWK/9CHQBO7lDLpRcONnf+nkpkinObDHIZ3uyEj/JvCULoVIzMhZBXHG5+xcDC4sP3BZfVbJR9auP42tdg+5LL7e5rfeOGEFrO8rmROReHpVcNhIFt25QiI2c2SpAZG4PL7WbWWGHBn+6Zd+2bVAJgcgOtb/6wy+1m/Dxn1fouZRBAaBTleR/rFCLbRpuW/8Wh5ovNBwE4RjLvw6TzXNhkPogAQmOEj85gbGROFFYebF1zqzoAvGywuXOFeR+54ZxHAKFhfhtQvkoEORCF5mv3tP20RQoBKg60vD4OH02LVCI31lqkUABhLpXX++hSiHwZLSy51VAsgNJ6Hz87Vmi7UiVyx1AsAYQ5Ch/JC+8mhcijwtKDrVf+iToAeTbadFr7cNOZv6QSuZScA1nzTABhDmwMhl7lVhRafn7vvHdfrRJAXg20vuX/MfQq19a5KpYAQj2VX3DrFCLfRpqW64IAuXSg5XVXFguLXPUKXRABhDoy9Irk5Xv5S21rf14dgLwZbL7gg6pASNY/W7V+nTIIINRa+YXWpRAkioWFf2JCOpAnA/Pe9i4Tz5lgownpAgi1p/vBBIWlh1ou/zV1APJiuOls3Q8mSsLHjcoggFAr5e5Hp0Iw0Vhh3q8ean6VLgiQeUn3IwrNK1SCY9ygCyKAUDu6H0wi6YJcoQsCZJ7uB1PQBRFAqAndD05grDDv1w7rggAZpvvBSeiCCCDU5IUFUyosOdRy8bvVAciq4aYVP6sKnEASPtYqgwBCtZTX/VijEJxIsdD+u6oAZFGy7kcUWi9UCU7CUHUBhCrS/WAaCiutjg5k0WDzKt0PpqPT6ugCCNWwan1n0FJkmkablpqMDmQsfHSeNVZY+CaVYJr80lYAoQqED6YtCi3vNhkdyFYAuUhnl1M7bzIZXQBBkqe+DrZc9vOqAGTFSNMZ/14VOEXrlEAAYaZWrU8mnncqBKdirNAmgACZcKjlsgtdepcZ+JASCCB4AVHfl/Vl+1vfuFIdgLQbbL7gnarADKypzKFFAGEGzP9gRoaazrlWFYC0KxYWmXyOcygBhLox/IpZiArzLEoIpFpl+NVZKsEMvVcJBBBOXZcSMOMAEpqvdjUsIM2Gms62AC+zO49yNSwBBMmd+jrc8gqXrgRSq1hYZvgVsw8hCCB40VDPD++FhmEBqTVWaLtSFZglv8wVQJi2VeuFD2YtCs2XqwKQRgdaXyd8UA2G8QkgnAIBhGq8vC8zDwRIo5HCmU4cqU4AMQ9EAGHa/OaHqhhsvuAyVQDSplhYcKEqULUQggDCtHQpAdX5EG83ER1InbHCfL+IwzmVAELdlFuF2oVURVRoMQ8ESJWRptMXxacni1SCKhFmBRCmQauQ6gWQ0GwIFpAqQ82dhl/hvEoAoc66lIDqKaxUAyBNTECnyjqVQADh5Fy1iKrqn3eNYVhAakSFlnZVoKpWrRdqBRBOwouE6n6Yh7YlqgCkxViYf5EqUGXm1gogeJFQT66EBaRJVDABnarrUgIBhBPTAQEgvwEktJqEDgIIkOoP80KziegA5Nn5SiCAMJVV6zsVgRq8zAUQIBUGmzvPUgVqwPmVAIIXCAAcb7Tp9BWqAAIIAACAAAJMT2QIFgD51qkEAghQV1ZDB0AAQQABAAAEEAAAAAEEAAAQQAAAAAQQoKIQinepAgA51q0EAggAACCAAAAACCD5sXtjtyIAkFeLRu7brgoggAApV4hGzAEBIM+2KoEAwon1KwEA+TV2QA1AAKG+epSAaiqE0adUAUjNiUk08kNVoMp6lUAA4cR0QKjyh/mQAAKkSFEHBAFEAKHOTMCjquYXd+1UBSAtmqPDOiBUm9ElAgheJNTTguKjA6oApCeA7HtcFaiq3RuNLhFAOIleJaBarIIOpE1LNPCcKlBF3UoggHDylK4DQvVERcOvgFRZOLrTECyqyXmVAIK0Tn1f4MM7VAFI3XtXNGQ+JNXiuSSAIK1TT83RPh0QIIUnJ4PmgeCcSgBBWid9on3Lhu/UAQFSpzk6YBgW1dBvaLsAwvR1KwGzZQI6kFZtxV6/iMP5lABCXe3e2BtcDYvZBpBoRAABUml+sfe5Qii6GhaztVUJBBCkduqoJdorgADpPUGJDuuC4FxKAKHO7lACZi56yvwPIM1ax174riowC73mfwggnKrdG7coAjNVCKO6H0CqLRm5SwBhNrqVQABhZoQQZqQ5OvQ1VQBSf5ISHRJCmCkjSQQQvHion2jfaUNf/id1ANKuNdorgDAT/UaSCCDM3JbSiwhOQSGMCh9AJrSPPhgHkLEDKsEMzp8QQJiR3Rv7vYg4VS1j+z6vCkA23s9eOtgcHTKnjVN1mxIIIHgRUTfRU8uHv+bDGsiMtuLTX1cFTkFy9atuZRBAmI3yi6hXIZjWCzoa/GtVALJk0eh92wuh+LxKME23KoEAghcTddQ+utPwKyBzWsde/IIqME2blUAAoXovJpPROaFCGPn8guKjAyoBZM2i0e9/w2R0pnW+VJ4/iwDCrJmMzjTML+7+mCoAWdQytueAyehMwwYlEEDwoqJOCqF41+KRbU+pBJBV7aPb/5cqcALdYffGXmUQQKim8otqs0IwmZaxft0PINPmF3ufa44OfEMlmIJf1AogeHFRL0n3Y/nw16wWDGSeLghT6HbpXQGEWtEFYRItY/0fVQUgD3RBmIJf0Aog1OFF5goPlBTC6OctPAjkSbkL4opYHLFZ90MAodbKXRDrglDSVtyt+wHkStIFaR3b+0WVoEL3QwChTm4JVkf34o2GPrZk5G5XvgJyZ/HovV+0Ojql8OHKVwIIdVJeF2S9QuRZ9NTC0R2fUgcgj5J1QdqKuz+uErmWBI9blEEAob4hJFmY0OKEOdU6tue3FxYfseo5kFtLRu66q8nihHl2vVXPBRDmRtIF8eLLmUIo/pOJ5wAhLBq9/+MmpOfSFhPPBRDmSnnco6FYuRINtI/03KAOAKUJ6c+3jT3zVyqRK8kvXq9XBgGEuQ0hm4OhWLnROrZnnaFXAC9bOrz1G4Zi5cp1hl4JIDSG64OhWJlXCMOfMvQK4HjLRrZ+1FCsXLjF0KtsaFaCDBjYNhiWXnVP/NU6xciqsR0dg5//UCmHnCij2FevfWrj+NrXQPuaosPDUWh7ZKTpjHf6vMisnjh8XKcM2aADkhXl3wiYD5LRiDm/+OSHlAFgaotG79s+b+x580GyKRnlIXxkiA5Ipk5T/3/27ic2jquOA/jM7NpxbQcnTurklLrJAQEyiRCgOJe2UpHoieQUIZBKT1AJChH0hBD02PYQbqgnwgUnQpTkELeVUJtAgnxCzh+14VAwG1WAKkEcx7H3z8wwY2+gEmmoXXs9O/v5SJO4/VW1/H5avff1mzczMxOMTI5nXx0yGOVRTf751R3Nt663/9FvO4tRMzb6q1bA2kD853eWK4/uTcNtB8wepfJUUDs5axjKww5I+eS7ID6kZfkNQbr43GjjtctGAuCjGWle+lkYNN81EqXxjHMfAghFt/pkiCcCh9K7Xhi0Tu+qnz1tJAA+uvwt6Tsbv/2BQ+mlcKr9tE8EEIQQOhE+Hl4+85yRAFhXCFkcbl15Xgjp+vDhfR8CCF0WQmaFkG6VXB9qXf2RcQBYv8HW2+8KIV0rX8N4sI4AghBCp8LHcGv22GDrHS8bBBBCejV8POFlg+XmKVhlNz/z9/Y7Qo5m14ABKXr4uHI0Cx+3H/AfeeJNMWrGRn/VuqTWl7z/rzTov9GMdh3J/nW/uUb4YOvZAekFq0+PsBPSFeHjbTsfABtsuPXHK3ZChA8EEDofQtyOVVBhEL8mfABsLrdjFdpZ4aPX1j70ln0n8pcUvpVdOwxGET6AK0+7+s4aPpdqxagZG/1V69La3eqnD9ypHnw5CKJhs1AheNpVD7ID0mtWd0IeDbyscOs/fGn95fuEDwA2Ub4TMtp442kvKyyEF4SP3uQQei+an1kORibPZF/tza5DBqTzHaiki8/vrr/6yofU/day+DVjo79qXdzfKF1qbkv+drER7R1Nw20HTEsdl99q9WwWPn5qKAQQei2EzM+cy4JIfu7gywakU9Kbfcn7x0cb029aGFigqumv2tb1NwshjcH4T39oRmOLcTj8efNTx8xl11NZ+HjdUAgg9G4QmclCyMXAY3o3XRjE08Otq8c/0ZypWRhYoKrpr1ox+jsQ/+VGGvRd9ZjejjjbDh9zhqLX10SQ23ciP5T+83YQYYNjXpQuv7S7/utXTP4WqGr6q1bM/rai0eFbfY99PwkHj5i2Nlx+y9ULbrniHjsgtJfIK7dknWnfknU4sBuyQQk/uTwQ147vbLzxpsnfAlVNf9WK29/VW7JuXGxGY3fjcPBTdkM2zIXALVes8QNKL9p3Yjz782RgN+RjRbr77HqY/C1Q1fRXrQv6W688smeh+rlvJeHgpOls3ex6IICwriBytB1Exg3GWj5U8XR//N4PR5q/v2nyt0BV01+17u3v7b7DR+qV8W+mQWWP2W1N8rMeJ5z1QABhvSEkPxvyvez6buDlhf9HWqum898erZ+/bIK3gFHTX7Vy9Dc/G7JQ/cLRZjR6LAiiIXPdA+WB45kseFwwFAggbEQQGc/+/HF2fcNg/G/wiNKll3bXfzNlgreAUdNftXL2N78t60714NfjcPuXzHv3DR757VanDAUCCILIJgePMG2efrj+qxdN8BYwavqr1hv9bQeRrwki/wkev8iCx08MBQIInQwi+TmRHrs1K9/xWH5xd/3V0xYwFjBq+qvWm/39bxAZOtKDt2blwcOOBwIIWxZE7p0ReToo+WH1/HB5lC79clf93LQFjAWMsdFfNf3NtaKdQwvVLx5rRTueTINq2Q+r54fL8x2PsxZACCAUJYzkuyFfCUp1e1ZaC4PmVH/8j6mR5u9qFjBqfn79VdPfD6st9B2ebERjk3G4/ckSze5zK6EjCE55qhUCCEUOIvmuyL0w0oXvEslDR3y+msxP7Wy8ft0CRs3Pr79q+ruWWr4rsliZmGxFu7Iw0pXvEsmDxr3djlkLGwQQujGMPN4OI/nf4wUNHdfCoDVdTW6fz0LHNQsYNf3VXzX93YhaFkaGlyqf/GwjGjuchA9NFPg2rTxonFsJHkIHAgglCyTj7SDyWHYdal+dNh8ESRY44ktRunRpIL55fag1O28Bo6a/an5+/d3sWr2yb89y9MhEFkwmkmDb/jTs378F8+CtduC4mF0XVr6unbxlkYIAQi+FkjyQjLevg8HqU7Ue//j/47S2ejtV/neSv6vjUiVdqO1oXFjLWQ4LGDU/v/6q6e+m1u5UD03E4fY9SfjQWBIO7k+DylASDkxswAw794Hrr+2wMecsBwIIPDic5GFkDbskyfzY8tS1En+Gyv79jKke+n566Pt9QBZOhu5WP7OWXZJbbqECAAAAAAAAAAAAAAAAAAAAAAAAAAAAAAAAAAAAAAAAAAAAAAAAAAAAAAAAAAAAAAAAAAAAAAAAAAAAAAAAAAAAAAAAAAAAAAAAAAAAAAAAAAAAAAAAAAAAAAAAAAAAAAAAAAAAAAAAAAAAAAAAAAAAAAAAAAAAAAAAAAAAAAAAAAAAAAAAAAAAAAAAAAAAAAAAAAAAAAAAAKBw/i3AAF63f7KgpXExAAAAAElFTkSuQmCC;" vertex="1" parent="1">
                    <mxGeometry x="122.5" y="313.5" width="19" height="19" as="geometry"/>
                </mxCell>
                <mxCell id="100" value="*GRC: Governance, Risk, Compliance&lt;br&gt;**CSPM: Cloud Security Posture Management" style="text;html=1;strokeColor=none;fillColor=none;align=left;verticalAlign=middle;whiteSpace=wrap;rounded=0;fontSize=12;fontColor=#000000;" vertex="1" parent="1">
                    <mxGeometry x="90" y="370" width="250" height="30" as="geometry"/>
                </mxCell>
            </root>
        </mxGraphModel>
    </diagram>
</mxfile>